<?xml version="1.0" encoding="utf-8" ?>
<svg baseProfile="full" height="200mm" version="1.1" viewBox="0,0,200,200" width="200mm" xmlns="http://www.w3.org/2000/svg" xmlns:ev="http://www.w3.org/2001/xml-events" xmlns:xlink="http://www.w3.org/1999/xlink"><defs /><rect fill="#1a1a1a" height="200" width="200" x="0" y="0" /><rect fill="#1a1a1a" height="200" width="180" x="10" y="0" /><text alignment-baseline="middle" fill="#e1ed5e" style="dominant-baseline: central; font-size:9.0px; font-family:Arial;" text-anchor="middle" x="100.0" y="100.0">2025</text><line stroke="#e1ed5e" stroke-width="0.3" x1="100.0" x2="100.0" y1="15.0" y2="10.0" /><path d="M 100.0 14.0 a86.0,86.0 0 0,1 42.46469731375804,11.215312516191453" fill="none" id="id73" stroke="none" /><text fill="#e1ed5e" style="font-size:6.75px; font-family:Arial;" text-anchor="middle"><textPath startOffset="22.20632615414155" xlink:href="#id73">January</textPath></text><path d="M 100.36148047927253 79.00311137660856 l 0.6142780295177201 -35.680840623916204 a56.68612790885076,56.68612790885076 0 0,0 0.9754693704855005,0.02519349592467106 l -1.2283740351980885 35.66498033584917" fill="red" stroke="none" /><path d="M 101.08401301168833 79.027996857942 l 1.250201783568053 -24.187196510085954 a45.219485533700976,45.219485533700976 0 0,0 0.7769955482146413,0.04687049335110979 l -1.6663593806223063 24.16209274735454" fill="red" stroke="none" /><path d="M 101.80526077348638 79.07773832637324 l 3.0879344088105274 -35.78794414690549 a56.920917098191445,56.920917098191445 0 0,0 0.975447990791352,0.09263054035844642 l -3.703507526692124 35.72948806203186" fill="red" stroke="none" /><path d="M 102.16513564639614 79.11191278185805 l 3.3293270615398596 -32.1195922088852 a53.291680389037985,53.291680389037985 0 0,0 0.9116260010314401,0.10243180318347614 l -3.8817197660810248 32.05752445223112" fill="red" stroke="none" /><path d="M 102.88285421437855 79.19881850522331 l 4.977366723763192 -35.91409793484079 a57.25736628571028,57.25736628571028 0 0,0 0.9750957277489751,0.1437037631272717 l -5.594831431940823 35.82309968755255" fill="red" stroke="none" /><path d="M 103.59715602781102 79.31037775812273 l 9.562854380613926 -55.00229713676941 a76.8274204511215,76.8274204511215 0 0,0 1.300962168833218,0.23774252081335986 l -10.508211670550045 54.829539134605305" fill="red" stroke="none" /><path d="M 104.307194497241 79.44645832069477 l 7.401185192164065 -35.3177847949152 a57.084947901703444,57.084947901703444 0 0,0 0.9599983187049224,0.2098184495196173 l -8.008026235022514 35.18515284729971" fill="red" stroke="none" /><path d="M 104.66035177308747 79.52364482259891 l 13.663094449494329 -60.0320294244389 a82.56723728374126,82.56723728374126 0 0,0 1.3831046813983316,0.32733619176696865 l -14.694422817855184 59.78794732053106" fill="red" stroke="none" /><path d="M 105.36241919743992 79.69619591428918 l 9.247294170947443 -35.01316145882233 a57.21372564133108,57.21372564133108 0 0,0 0.9500260426908402,0.25967800490907844 l -9.848618102861995 34.84879691308696" fill="red" stroke="none" /><path d="M 106.0581310904928 79.89281104454417 l 18.174393271478365 -60.321566866367476 a84.0,84.0 0 0,0 1.380858509157127,0.4290394604699177 l -19.21003715334621 59.99978727101504" fill="red" stroke="none" /><path d="M 106.74666289553966 80.11325718540242 l 11.219512976911433 -33.07110085852761 a55.92241663221475,55.92241663221475 0 0,0 0.9089203415641044,0.31710446005297555 l -11.787115322538812 32.87307554530242" fill="red" stroke="none" /><path d="M 107.08798089147638 80.2323363322302 l 19.67160068498524 -54.86210983089442 a79.28226976196649,79.28226976196649 0 0,0 1.2806641502916887,0.471679414521787 l -20.613047161049508 54.515367148566305" fill="red" stroke="none" /><line stroke="#e1ed5e" stroke-width="0.3" x1="143.23703022742887" x2="145.7803849466894" y1="26.81831364943548" y2="22.513508569990506" /><path d="M 143.74570117128098 25.957352633546492 a86.0,86.0 0 0,1 28.547481713284135,27.462654790039103" fill="none" id="id74" stroke="none" /><text fill="#e1ed5e" style="font-size:6.75px; font-family:Arial;" text-anchor="middle"><textPath startOffset="19.985693538727396" xlink:href="#id74">February</textPath></text><line stroke="#e1ed5e" stroke-width="0.3" x1="172.23445277983987" x2="176.4835382374775" y1="55.19839476539836" y2="52.563006222186495" /><path d="M 173.08426987136738 54.67131705675599 a86.0,86.0 0 0,1 12.851231095245387,41.99856678651699" fill="none" id="id75" stroke="none" /><text fill="#e1ed5e" style="font-size:6.75px; font-family:Arial;" text-anchor="middle"><textPath startOffset="22.20632615414155" xlink:href="#id75">March</textPath></text><path d="M 119.85752413597 93.16781622104841 l 26.68548925489581 -9.181414841663491 a49.22080288134762,49.22080288134762 0 0,0 0.2687519267191227,0.8035340534992776 l -26.839578475386702 8.7207076852419" fill="red" stroke="none" /><path d="M 119.97218684219823 93.5106431181261 l 30.12630840039684 -9.788630974075797 a52.676675238769256,52.676675238769256 0 0,0 0.2727761697875845,0.8647750010369175 l -30.29034005395263 9.26860580661246" fill="red" stroke="none" /><path d="M 120.18372546131832 94.20196356495316 l 24.299219201807148 -6.980265290730207 a46.2819334178865,46.2819334178865 0 0,0 0.21336683041038823,0.767594012636502 l -24.4157728027839 6.560959974674753" fill="red" stroke="none" /><path d="M 120.37134235888165 94.90015583598534 l 31.261737505850665 -7.82618969174905 a53.22647168052918,53.22647168052918 0 0,0 0.21485042649310737,0.8906937245333496 l -31.391820732604593 7.286910735556295" fill="red" stroke="none" /><path d="M 120.45610955862082 95.25157060432595 l 31.758626265188003 -7.372056455392396 a53.60302989958728,53.60302989958728 0 0,0 0.2008980631807202,0.9005866250876381 l -31.880818715370758 6.8242916607547945" fill="red" stroke="none" /><line stroke="#e1ed5e" stroke-width="0.3" x1="184.98032266829074" x2="189.97916517819016" y1="98.17113171792111" y2="98.06355123074" /><path d="M 185.9800911702706 98.14961562048488 a86.0,86.0 0 0,1 -9.607161424134198,41.387399972396054" fill="none" id="id76" stroke="none" /><text fill="#e1ed5e" style="font-size:6.75px; font-family:Arial;" text-anchor="middle"><textPath startOffset="21.466115282336823" xlink:href="#id76">April</textPath></text><line stroke="#e1ed5e" stroke-width="0.3" x1="174.80103733775053" x2="179.2010983576182" y1="140.37084112569926" y2="142.7455964860345" /><path d="M 175.68104954172406 140.8457921977663 a86.0,86.0 0 0,1 -30.038265399797805,32.042727171017184" fill="none" id="id77" stroke="none" /><text fill="#e1ed5e" style="font-size:6.75px; font-family:Arial;" text-anchor="middle"><textPath startOffset="22.206326154141568" xlink:href="#id77">May</textPath></text><path d="M 116.71984013943494 112.70617746262583 l 26.51124746798384 20.147119366846812 a54.29793779035953,54.29793779035953 0 0,0 -0.5719206513497593,0.7392845375492104 l -26.160519999416014 -20.600481898509276" fill="red" stroke="none" /><line stroke="#e1ed5e" stroke-width="0.3" x1="143.8653032363475" x2="146.44561519142675" y1="172.8068346515853" y2="177.08958963109032" /><path d="M 144.38136562736335 173.6633856474863 a86.0,86.0 0 0,1 -40.68145358897372,12.25698825130547" fill="none" id="id78" stroke="none" /><text fill="#e1ed5e" style="font-size:6.75px; font-family:Arial;" text-anchor="middle"><textPath startOffset="21.466115282336833" xlink:href="#id78">June</textPath></text><path d="M 108.59647513512805 119.15986991738527 l 13.098309285455802 29.193582032419226 a52.99735829753838,52.99735829753838 0 0,0 -0.8355395061938239,0.36627596527271805 l -12.593849104604224 -29.414722550986397" fill="red" stroke="none" /><path d="M 107.59598834532513 119.57807347666477 l 11.538959741473459 29.740777814894685 a52.90080652507515,52.90080652507515 0 0,0 -0.8517780015203369,0.3220695564286389 l -11.025311519192847 -29.934995621429955" fill="red" stroke="none" /><path d="M 107.2578585660854 119.70592522655815 l 11.479755468661795 31.16886349118192 a54.21570166280104,54.21570166280104 0 0,0 -0.8785020372659598,0.3149995749582037 l -10.9415338707661 -31.361850607180084" fill="red" stroke="none" /><path d="M 106.57524785965236 119.94407469862006 l 12.08396464533371 36.65314200866662 a59.593717372872455,59.593717372872455 0 0,0 -0.9769926122934851,0.31280218204655813 l -11.451250687949285 -36.85571703737289" fill="red" stroke="none" /><path d="M 105.88484417918355 120.15858648285463 l 9.756571714467102 33.4212238580538 a55.8162159889567,55.8162159889567 0 0,0 -0.924605802709495,0.26130283548343713 l -9.179834743653 -33.584215486875756" fill="red" stroke="none" /><path d="M 105.18746579009965 120.34920634021253 l 7.824685604527195 30.694398451301527 a52.676044593619274,52.676044593619274 0 0,0 -0.8805596393957228,0.21642013545388175 l -7.295172680388261 -30.824539845069438" fill="red" stroke="none" /><path d="M 104.13013068566511 120.58985236759428 l 6.317620633667319 31.4950993229237 a53.122478295296084,53.122478295296084 0 0,0 -0.8981047709067537,0.17212391685164943 l -5.774548248188861 -31.599180438123817" fill="red" stroke="none" /><path d="M 103.7750983002368 120.6578951692458 l 5.9176198320661335 32.38208926496132 a53.918352474581496,53.918352474581496 0 0,0 -0.9144322233502258,0.15898576328721478 l -5.359338637243858 -32.47915360676954" fill="red" stroke="none" /><path d="M 101.62511606390274 120.93702456842531 l 2.5081974603002064 32.31411775147558 a53.41131377399079,53.41131377399079 0 0,0 -0.9172432734582062,0.063258466434252 l -1.9515914260630698 -32.35250456242611" fill="red" stroke="none" /><path d="M 100.90346689309514 120.98055641714683 l 1.4151927364847026 32.86399454797393 a53.89445102339693,53.89445102339693 0 0,0 -0.92718896725812,0.031934262752340195 l -0.8492834175519303 -32.883485609152366" fill="red" stroke="none" /><line stroke="#e1ed5e" stroke-width="0.3" x1="102.19456741930631" x2="102.32365962044197" y1="184.97166512339345" y2="189.96999836594603" /><path d="M 102.22038585953345 185.97133177190398 a86.0,86.0 0 0,1 -42.740103519485714,-10.115201625700543" fill="none" id="id79" stroke="none" /><text fill="#e1ed5e" style="font-size:6.75px; font-family:Arial;" text-anchor="middle"><textPath startOffset="22.20632615414155" xlink:href="#id79">July</textPath></text><path d="M 100.54218724476979 120.99299961872073 l 0.17465995437269088 6.7626754242595375 a27.764930523925976,27.764930523925976 0 0,0 -0.47787452850839685,0.008227043382270613 l -0.05822573597162608 -6.764679944920967" fill="red" stroke="none" /><path d="M 99.81925306533755 120.99922214144158 l -0.29175669492773665 33.896362665746565 a54.89761826348354,54.89761826348354 0 0,0 -0.9448672461574964,-0.016266746522121234 l 0.875183630977901 -33.886318441945285" fill="red" stroke="none" /><path d="M 99.09653310690486 120.98055641714683 l -1.1221615610273392 26.059144081783696 a47.083294209976806,47.083294209976806 0 0,0 -0.8094109994380819,-0.041837303249060376 l 1.5705606288789102 -26.035966971772435" fill="red" stroke="none" /><path d="M 98.01472825383883 120.90594882070398 l -2.7794682834959916 29.269253338187397 a50.40092915052098,50.40092915052098 0 0,0 -0.8629776773008708,-0.0894511647550655 l 3.2828785574024555 -29.21707280497657" fill="red" stroke="none" /><path d="M 97.2962882734958 120.8252237178851 l -4.296028905591245 33.0899785581486 a54.36768714394826,54.36768714394826 0 0,0 -0.9270244918831985,-0.12847714750859765 l 4.864981988661274 -33.0111268451474" fill="red" stroke="none" /><path d="M 96.58105272829116 120.7198165907248 l -7.94008721748255 48.11924191459335 a69.76993364211589,69.76993364211589 0 0,0 -1.1832682679507809,-0.20572635560070895 l 8.76720445690538 -47.975436980471635" fill="red" stroke="none" /><path d="M 95.86986931433489 120.58985236759428 l -6.393887175097659 31.875309284339245 a53.51026199802398,53.51026199802398 0 0,0 -0.9015422664786422,-0.18892694747187241 l 6.9416209030056875 -31.760526356140833" fill="red" stroke="none" /><path d="M 95.51606077576429 120.51570834832081 l -5.71004430398142 26.125600222969297 a47.74231839171473,47.74231839171473 0 0,0 -0.8013431073499998,-0.1823830822836875 l 6.158907560724282 -26.023440407107923" fill="red" stroke="none" /><path d="M 94.81253420990036 120.34920634021253 l -8.074141466965045 31.67295503806727 a53.68589667229576,53.68589667229576 0 0,0 -0.8935111415810587,-0.2359844134879504 l 8.618143051357594 -31.529279275275737" fill="red" stroke="none" /><path d="M 94.11515582081647 120.15858648285463 l -13.979106481263019 47.885554549155636 a70.88428362214546,70.88428362214546 0 0,0 -1.168324975261903,-0.3520067311305 l 14.801306430965168 -47.63783244891941" fill="red" stroke="none" /><path d="M 93.42475214034765 119.94407469862007 l -10.180890085406153 30.88072673392975 a53.515685546313875,53.515685546313875 0 0,0 -0.8723828059579559,-0.295959613021342 l 10.710942624301333 -30.700904134010287" fill="red" stroke="none" /><path d="M 92.40401165467489 119.57807347666478 l -11.907248196068315 30.690012871199556 a53.918983119731486,53.918983119731486 0 0,0 -0.862392858627268,-0.3431639162080068 l 12.43376213073744 -30.480502110585483" fill="red" stroke="none" /><path d="M 91.7346041902142 119.30500536409082 l -9.090034885129604 21.23106699977233 a44.09517136030159,44.09517136030159 0 0,0 -0.6951904564199929,-0.3047510663302404 l 9.454146016207341 -21.07145138014764" fill="red" stroke="none" /><path d="M 91.07499286063937 119.00905698771935 l -13.905427664458648 29.616678483826906 a53.71862715558016,53.71862715558016 0 0,0 -0.8336295277343697,-0.40019283289547586 l 14.413169860193259 -29.372931374431868" fill="red" stroke="none" /><path d="M 90.10565033884886 118.52300852407294 l -15.292708310062105 28.629164733853287 a53.45760312799994,53.45760312799994 0 0,0 -0.8079154173812755,-0.4405399026579416 l 15.783246539312021 -28.36168417943558" fill="red" stroke="none" /><line stroke="#e1ed5e" stroke-width="0.3" x1="58.666819895761336" x2="56.23545636021788" y1="174.27360380694188" y2="178.64263932499728" /><path d="M 58.180547188652646 175.14741091055294 a86.0,86.0 0 0,1 -31.652253787137756,-30.449443065178592" fill="none" id="id80" stroke="none" /><text fill="#e1ed5e" style="font-size:6.75px; font-family:Arial;" text-anchor="middle"><textPath startOffset="22.20632615414155" xlink:href="#id80">August</textPath></text><path d="M 89.4739219176387 118.17145234162733 l -11.15593980042818 19.25879960450271 a43.256602504361965,43.256602504361965 0 0,0 -0.6410878328338854,-0.3787659917249452 l 11.485795504290449 -19.063915040484012" fill="red" stroke="none" /><path d="M 88.8546689885994 117.79835938074946 l -16.99173281836731 27.134677910743495 a53.015773135918046,53.015773135918046 0 0,0 -0.7692795644317177,-0.4909906152231733 l 17.45629418484595 -26.838172866696517" fill="red" stroke="none" /><path d="M 88.54995079064634 117.60387380957326 l -13.608232596785054 20.921972039161915 a45.95822326239743,45.95822326239743 0 0,0 -0.6594464509484763,-0.437045149172751 l 13.966353746473493 -20.684628868897846" fill="red" stroke="none" /><path d="M 87.95078237400918 117.19931262002967 l -18.73805033008132 26.747096410786042 a53.657643769576275,53.657643769576275 0 0,0 -0.7519037244478921,-0.5364633431114912 l 19.1956813823781 -26.42058880583033" fill="red" stroke="none" /><path d="M 87.36589467227662 116.77436683061367 l -30.15257464200372 40.03372892756878 a71.11863135988116,71.11863135988116 0 0,0 -0.9715186764767666,-0.7449190934407778 l 30.837222046973974 -39.50877049230064" fill="red" stroke="none" /><path d="M 86.79598089348748 116.32954008644616 l -19.762232338823026 24.440146789495806 a52.43034524318377,52.43034524318377 0 0,0 -0.6968988346708321,-0.5735002963029766 l 20.180001302038548 -24.096351374335647" fill="red" stroke="none" /><path d="M 86.51685102203217 116.09983520530335 l -36.222807563632195 43.25259873645557 a77.41701060184567,77.41701060184567 0 0,0 -1.0142901103222746,-0.8644000365706663 l 36.961963150531524 -42.62267430966195" fill="red" stroke="none" /><path d="M 85.97065885151581 115.62618273729859 l -21.873847398415872 24.363562978319916 a53.74215021967473,53.74215021967473 0 0,0 -0.6830382907738649,-0.6239392839403587 l 22.289985238656595 -23.983430927792984" fill="red" stroke="none" /><path d="M 84.9287848128048 114.62390073753433 l -23.55965780420702 22.860405936723833 a53.82766570201316,53.82766570201316 0 0,0 -0.6395071403436129,-0.670520679934423 l 23.94967149592959 -22.45147814020691" fill="red" stroke="none" /><path d="M 84.67929136418377 114.36230785411682 l -42.4478056946824 39.79244482814237 a79.18294315084333,79.18294315084333 0 0,0 -0.9236260166794792,-1.002413622751819 l 43.12647811935761 -39.055879950589215" fill="red" stroke="none" /><path d="M 84.19399662182784 113.82643327865904 l -23.777000926539987 20.799129862987318 a52.59033991773584,52.59033991773584 0 0,0 -0.5901575012301583,-0.6864865016348055 l 24.131500937340924 -20.38676626219098" fill="red" stroke="none" /><path d="M 83.28015986056508 112.70617746262583 l -32.336363003465415 24.573893254448684 a61.6142413689204,61.6142413689204 0 0,0 -0.634446928912316,-0.8499453411133822 l 32.754571199072814 -24.013635033825995" fill="red" stroke="none" /><path d="M 83.06392112726016 112.41649034213515 l -34.34990518374283 25.183235692985573 a63.592386010889136,63.592386010889136 0 0,0 -0.6396189036452627,-0.8883747145130487 l 34.7783038797637 -24.588227373021386" fill="red" stroke="none" /><path d="M 82.6465618267979 111.8261652097733 l -38.44552530135985 26.200175968155442 a67.52426932752206,67.52426932752206 0 0,0 -0.6462937354400669,-0.9661214441973581 l 38.890822142210645 -25.534517609752264" fill="red" stroke="none" /><path d="M 82.24976979558568 111.22182372390057 l -24.434953782758498 15.447954245888086 a49.90858448192501,49.90858448192501 0 0,0 -0.45282619656789747,-0.7301000118673338 l 24.69724461899435 -15.025057902655488" fill="red" stroke="none" /><line stroke="#e1ed5e" stroke-width="0.3" x1="26.63291911575756" x2="22.317208475507996" y1="142.92168965132927" y2="145.44649492493687" /><path d="M 25.769776987707644 143.4266507060508 a86.0,86.0 0 0,1 -11.730757126820373,-40.83630448921669" fill="none" id="id81" stroke="none" /><text fill="#e1ed5e" style="font-size:6.75px; font-family:Arial;" text-anchor="middle"><textPath startOffset="21.46611528233685" xlink:href="#id81">September</textPath></text><path d="M 81.87401531095188 110.60418214915194 l -38.01079285436067 22.23732271521027 a65.03769856563264,65.03769856563264 0 0,0 -0.5569952505653538,-0.9711681686300977 l 38.38794010107841 -21.579734700721865" fill="red" stroke="none" /><path d="M 81.69416730710424 110.29060199501025 l -23.890431308766704 13.429977440089887 a48.40651386368255,48.40651386368255 0 0,0 -0.40205895019230725,-0.7298537805155438 l 24.118066668410528 -13.01675314117652" fill="red" stroke="none" /><path d="M 81.35079622478065 109.6543875284942 l -38.873564153381416 20.12420784683663 a64.77371050584748,64.77371050584748 0 0,0 -0.504066949225946,-0.9945719116666697 l 39.21420977239363 -19.452081723467277" fill="red" stroke="none" /><path d="M 81.02952815118164 109.00673069616217 l -53.03069685562541 25.177718773409563 a79.70410830279376,79.70410830279376 0 0,0 -0.5777613536110824,-1.2444465556152902 l 53.45623282607632 -24.261152150515443" fill="red" stroke="none" /><path d="M 80.73074385275274 108.34839909993369 l -29.981453934726062 12.989455385859666 a53.67435586605097,53.67435586605097 0 0,0 -0.3599990647080115,-0.8509314469651624 l 30.20060398062638 -12.471449413228346" fill="red" stroke="none" /><path d="M 80.58989483394504 108.01547362559985 l -20.99003472546682 8.667911291724316 a43.709342657538656,43.709342657538656 0 0,0 -0.28119132978864353,-0.6978938202022926 l 21.13612866951285 -8.305318103679218" fill="red" stroke="none" /><path d="M 80.32549172779594 107.34259656027581 l -23.157783894220476 8.642567428510635 a45.717947460251835,45.717947460251835 0 0,0 -0.26881225466566283,-0.7396558745704359 l 23.303120409891363 -8.242663756934082" fill="red" stroke="none" /><path d="M 79.97269907076064 106.31721596034903 l -30.1809953694873 9.519998042721108 a52.646845723174806,52.646845723174806 0 0,0 -0.26517270426247747,-0.8665997403197672 l 30.340394846255908 -8.999071329849293" fill="red" stroke="none" /><line stroke="#e1ed5e" stroke-width="0.3" x1="15.007084014347285" x2="10.007500721073583" y1="101.09737516637583" y2="101.16192664675087" /><path d="M 14.007167355692545 101.11028546245083 a86.0,86.0 0 0,1 10.666146001902534,-42.60595125391555" fill="none" id="id82" stroke="none" /><text fill="#e1ed5e" style="font-size:6.75px; font-family:Arial;" text-anchor="middle"><textPath startOffset="22.20632615414155" xlink:href="#id82">October</textPath></text><line stroke="#e1ed5e" stroke-width="0.3" x1="26.266209847984243" x2="21.928928074336255" y1="57.711370442889674" y2="55.22380399835377" /><path d="M 25.398753493254645 57.213857153982495 a86.0,86.0 0 0,1 29.58750427330803,-30.492523968695096" fill="none" id="id83" stroke="none" /><text fill="#e1ed5e" style="font-size:6.75px; font-family:Arial;" text-anchor="middle"><textPath startOffset="21.46611528233685" xlink:href="#id83">November</textPath></text><line stroke="#e1ed5e" stroke-width="0.3" x1="56.762969772571076" x2="54.21961505331055" y1="26.818313649435495" y2="22.513508569990535" /><path d="M 56.25429882871897 25.957352633546506 a86.0,86.0 0 0,1 42.265352541879196,-11.944610805530505" fill="none" id="id84" stroke="none" /><text fill="#e1ed5e" style="font-size:6.75px; font-family:Arial;" text-anchor="middle"><textPath startOffset="22.20632615414155" xlink:href="#id84">December</textPath></text></svg>