<?xml version="1.0" encoding="utf-8" ?>
<svg baseProfile="full" height="200mm" version="1.1" viewBox="0,0,200,200" width="200mm" xmlns="http://www.w3.org/2000/svg" xmlns:ev="http://www.w3.org/2001/xml-events" xmlns:xlink="http://www.w3.org/1999/xlink"><defs /><rect fill="#1a1a1a" height="200" width="200" x="0" y="0" /><rect fill="#1a1a1a" height="200" width="180" x="10" y="0" /><text alignment-baseline="middle" fill="#e1ed5e" style="dominant-baseline: central; font-size:9.0px; font-family:Arial;" text-anchor="middle" x="100.0" y="100.0">2025</text><line stroke="#e1ed5e" stroke-width="0.3" x1="100.0" x2="100.0" y1="15.0" y2="10.0" /><path d="M 100.0 14.0 a86.0,86.0 0 0,1 42.46469731375804,11.215312516191453" fill="none" id="id73" stroke="none" /><text fill="#e1ed5e" style="font-size:6.75px; font-family:Arial;" text-anchor="middle"><textPath startOffset="22.20632615414155" xlink:href="#id73">January</textPath></text><path d="M 100.36148047927253 79.00311137660856 l 0.6043147727981112 -35.10211672687786 a56.107318254916315,56.107318254916315 0 0,0 0.9655090660938822,0.02493625064799587 l -1.2084504740868611 35.08651368408751" fill="red" stroke="none" /><path d="M 101.08401301168833 79.027996857942 l 1.2299241882082106 -23.794893291384128 a44.82665860453574,44.82665860453574 0 0,0 0.7702456975346123,0.04646332392504779 l -1.6393319345824349 23.770196698078774" fill="red" stroke="none" /><path d="M 101.80526077348638 79.07773832637324 l 3.0378497862619267 -35.20748308877096 a56.338299290854174,56.338299290854174 0 0,0 0.9654637284403776,0.09168241434313633 l -3.643438641792548 35.14997512991265" fill="red" stroke="none" /><path d="M 102.16513564639614 79.11191278185805 l 3.275327180991135 -31.598629831055206 a52.76792683419224,52.76792683419224 0 0,0 0.9026664907430716,0.10142509780929843 l -3.8187603752439316 31.537568779775306" fill="red" stroke="none" /><path d="M 102.88285421437855 79.19881850522331 l 4.896636533078321 -35.331590730637295 a56.66929145489622,56.66929145489622 0 0,0 0.965080784828581,0.14222782087441427 l -5.504086298335557 35.24206842560191" fill="red" stroke="none" /><path d="M 103.59715602781102 79.31037775812273 l 9.407750065323503 -54.110189686707905 a75.92192994809182,75.92192994809182 0 0,0 1.2856289859440588,0.23494047964760453 l -10.337774172370462 53.94023372570956" fill="red" stroke="none" /><path d="M 104.307194497241 79.44645832069477 l 7.281141979554306 -34.74494946665853 a56.49966960363269,56.49966960363269 0 0,0 0.9501556858783163,0.20766723121159428 l -7.87814038958615 34.61446873735107" fill="red" stroke="none" /><path d="M 104.66035177308747 79.52364482259891 l 13.441486462486472 -59.05834244262646 a81.5686500624848,81.5686500624848 0 0,0 1.3663770942107156,0.3233773123263262 l -14.45608724365971 58.818219218159264" fill="red" stroke="none" /><path d="M 105.36241919743992 79.69619591428918 l 9.09730807123421 -34.44526695598092 a56.626358638117004,56.626358638117004 0 0,0 0.9402728944136455,0.25701210105761046 l -9.688878854871565 34.28356831409701" fill="red" stroke="none" /><path d="M 106.0581310904928 79.89281104454417 l 17.879614462558504 -59.34318374416704 a82.97817414399768,82.97817414399768 0 0,0 1.364060926679299,0.42382036982761473 l -18.898460761948524 59.0266232394569" fill="red" stroke="none" /><path d="M 106.74666289553966 80.11325718540242 l 11.037538557045375 -32.53470552608786 a55.355993961280106,55.355993961280106 0 0,0 0.8997141391404596,0.31389259679588905 l -11.595934700249108 32.33989207611976" fill="red" stroke="none" /><path d="M 107.08798089147638 80.2323363322302 l 19.352537983257132 -53.97227614295717 a78.33696293356523,78.33696293356523 0 0,0 1.2653943986839946,0.46605543613793843 l -20.278714707713704 53.6311574390129" fill="red" stroke="none" /><line stroke="#e1ed5e" stroke-width="0.3" x1="143.23703022742887" x2="145.7803849466894" y1="26.81831364943548" y2="22.513508569990506" /><path d="M 143.74570117128098 25.957352633546492 a86.0,86.0 0 0,1 28.547481713284135,27.462654790039103" fill="none" id="id74" stroke="none" /><text fill="#e1ed5e" style="font-size:6.75px; font-family:Arial;" text-anchor="middle"><textPath startOffset="19.985693538727396" xlink:href="#id74">February</textPath></text><line stroke="#e1ed5e" stroke-width="0.3" x1="172.23445277983987" x2="176.4835382374775" y1="55.19839476539836" y2="52.563006222186495" /><path d="M 173.08426987136738 54.67131705675599 a86.0,86.0 0 0,1 12.851231095245387,41.99856678651699" fill="none" id="id75" stroke="none" /><text fill="#e1ed5e" style="font-size:6.75px; font-family:Arial;" text-anchor="middle"><textPath startOffset="22.20632615414155" xlink:href="#id75">March</textPath></text><path d="M 119.85752413597 93.16781622104841 l 26.252665081868425 -9.032497268966738 a48.76307675339038,48.76307675339038 0 0,0 0.26625268307422045,0.7960616331107555 l -26.404255058714416 8.579262532933669" fill="red" stroke="none" /><path d="M 119.97218684219823 93.5106431181261 l 29.637676005644057 -9.629864684803165 a52.16289673414762,52.16289673414762 0 0,0 0.27011566526685243,0.8563404746577751 l -29.799047154679116 9.11827404371897" fill="red" stroke="none" /><path d="M 120.18372546131832 94.20196356495316 l 23.905099035758344 -6.867049170796498 a45.87187415985276,45.87187415985276 0 0,0 0.21147639417089262,0.7607931076602371 l -24.0197622004956 6.454544759717308" fill="red" stroke="none" /><path d="M 120.37134235888165 94.90015583598534 l 30.754689066373906 -7.699253136494954 a52.703775775594394,52.703775775594394 0 0,0 0.21274054705613316,0.8819469121359574 l -30.88266241369086 7.1687209926995905" fill="red" stroke="none" /><path d="M 120.45610955862082 95.25157060432595 l 31.243518559332706 -7.252485695106225 a53.07422642442196,53.07422642442196 0 0,0 0.19891616786318025,0.8917021769897253 l -31.363729114197923 6.713605348566536" fill="red" stroke="none" /><line stroke="#e1ed5e" stroke-width="0.3" x1="184.98032266829074" x2="189.97916517819016" y1="98.17113171792111" y2="98.06355123074" /><path d="M 185.9800911702706 98.14961562048488 a86.0,86.0 0 0,1 -9.607161424134198,41.387399972396054" fill="none" id="id76" stroke="none" /><text fill="#e1ed5e" style="font-size:6.75px; font-family:Arial;" text-anchor="middle"><textPath startOffset="21.466115282336823" xlink:href="#id76">April</textPath></text><line stroke="#e1ed5e" stroke-width="0.3" x1="174.80103733775053" x2="179.2010983576182" y1="140.37084112569926" y2="142.7455964860345" /><path d="M 175.68104954172406 140.8457921977663 a86.0,86.0 0 0,1 -30.038265399797805,32.042727171017184" fill="none" id="id77" stroke="none" /><text fill="#e1ed5e" style="font-size:6.75px; font-family:Arial;" text-anchor="middle"><textPath startOffset="22.206326154141568" xlink:href="#id77">May</textPath></text><path d="M 116.71984013943494 112.70617746262583 l 26.081249402306668 19.82034400981492 a53.75786328582388,53.75786328582388 0 0,0 -0.56623204189273,0.7319312429937282 l -25.736210543195867 -20.266353246921902" fill="red" stroke="none" /><line stroke="#e1ed5e" stroke-width="0.3" x1="143.8653032363475" x2="146.44561519142675" y1="172.8068346515853" y2="177.08958963109032" /><path d="M 144.38136562736335 173.6633856474863 a86.0,86.0 0 0,1 -40.68145358897372,12.25698825130547" fill="none" id="id78" stroke="none" /><text fill="#e1ed5e" style="font-size:6.75px; font-family:Arial;" text-anchor="middle"><textPath startOffset="21.466115282336833" xlink:href="#id78">June</textPath></text><path d="M 108.59647513512805 119.15986991738527 l 12.885861807713036 28.720077953846985 a52.478378487503534,52.478378487503534 0 0,0 -0.8273574354617961,0.36268918591269106 l -12.389583697593487 -28.937631693054133" fill="red" stroke="none" /><path d="M 107.59598834532513 119.57807347666477 l 11.351804068216198 29.258398517293422 a52.383392732461665,52.383392732461665 0 0,0 -0.8434469057359566,0.31891944886651513 l -10.846486941719967 -29.44946621626657" fill="red" stroke="none" /><path d="M 107.2578585660854 119.70592522655815 l 11.293560056622704 30.663321417888323 a53.676960983685014,53.676960983685014 0 0,0 -0.8697723746470913,0.31186942852959665 l -10.764068121345877 -30.85317838745788" fill="red" stroke="none" /><path d="M 106.57524785965236 119.94407469862006 l 11.88796928791117 36.05864791012407 a58.96774819365265,58.96774819365265 0 0,0 -0.966730334815565,0.3095165248701696 l -11.265517608004664 -36.257937281653945" fill="red" stroke="none" /><path d="M 105.88484417918355 120.15858648285463 l 9.598325409010222 32.87914972031727 a55.25151583489833,55.25151583489833 0 0,0 -0.915251441615998,0.2586591996002275 l -9.030942799289619 -33.03949771325602" fill="red" stroke="none" /><path d="M 105.18746579009965 120.34920634021253 l 7.697773444752671 30.196551943809823 a52.162276317720185,52.162276317720185 0 0,0 -0.8719712267453648,0.21430931257946537 l -7.176848933264095 -30.32458251470332" fill="red" stroke="none" /><path d="M 104.13013068566511 120.58985236759428 l 6.215152250938826 30.984265881248703 a52.60146910670867,52.60146910670867 0 0,0 -0.8892964311422656,0.17043577757175996 l -5.680888205224856 -31.08665885716893" fill="red" stroke="none" /><path d="M 103.7750983002368 120.6578951692458 l 5.82163924555189 31.856869327146832 a53.38443463814458,53.38443463814458 0 0,0 -0.9053772049408723,0.1574114322688737 l -5.272413069138969 -31.952359337936713" fill="red" stroke="none" /><path d="M 101.62511606390274 120.93702456842531 l 2.467515856857443 31.79000027477143 a52.8856198304786,52.8856198304786 0 0,0 -0.9082154252456599,0.06263585316506579 l -1.9199376708328526 -31.82776447245278" fill="red" stroke="none" /><path d="M 100.90346689309514 120.98055641714683 l 1.392239077288405 32.330958367646325 a53.36092085554441,53.36092085554441 0 0,0 -0.918010224809895,0.03161812830356167 l -0.8355085008038576 -32.350133294375986" fill="red" stroke="none" /><line stroke="#e1ed5e" stroke-width="0.3" x1="102.19456741930631" x2="102.32365962044197" y1="184.97166512339345" y2="189.96999836594603" /><path d="M 102.22038585953345 185.97133177190398 a86.0,86.0 0 0,1 -42.740103519485714,-10.115201625700543" fill="none" id="id79" stroke="none" /><text fill="#e1ed5e" style="font-size:6.75px; font-family:Arial;" text-anchor="middle"><textPath startOffset="22.20632615414155" xlink:href="#id79">July</textPath></text><path d="M 100.54218724476979 120.99299961872073 l 0.17182706457290992 6.65298849403319 a27.655207017205232,27.655207017205232 0 0,0 -0.47598602858957734,0.008194531143528703 l -0.05728134609066462 -6.654960502455879" fill="red" stroke="none" /><path d="M 99.81925306533755 120.99922214144158 l -0.2870245594588645 33.346582034059395 a54.34781726668157,54.34781726668157 0 0,0 -0.935404377453619,-0.016103834655714522 l 0.8609886268051515 -33.33670072212452" fill="red" stroke="none" /><path d="M 99.09653310690486 120.98055641714683 l -1.103960708683376 25.636478888005016 a46.660237314207436,46.660237314207436 0 0,0 -0.8021382095755727,-0.04146138308593469 l 1.5450869866724377 -25.61367769815688" fill="red" stroke="none" /><path d="M 98.01472825383883 120.90594882070398 l -2.7343868143211565 28.794521912047045 a49.92406201406868,49.92406201406868 0 0,0 -0.8548126354904766,-0.08860482478657644 l 3.2296320464172266 -28.74318771880471" fill="red" stroke="none" /><path d="M 97.2962882734958 120.8252237178851 l -4.226349645053681 32.55327703965211 a53.826481342699324,53.826481342699324 0 0,0 -0.9177963812302905,-0.12719821545884044 l 4.786074617470803 -32.47570425870067" fill="red" stroke="none" /><path d="M 96.58105272829116 120.7198165907248 l -7.811303306089894 47.338773889838386 a68.97891175019474,68.97891175019474 0 0,0 -1.1698528745985979,-0.20339391750695848 l 8.625005152160542 -47.19730139381042" fill="red" stroke="none" /><path d="M 95.86986931433489 120.58985236759428 l -6.290181790401207 31.358309043151806 a52.98296316794476,52.98296316794476 0 0,0 -0.8926583222662459,-0.1870652305851931 l 6.82903157409684 -31.24538783184007" fill="red" stroke="none" /><path d="M 95.51606077576429 120.51570834832081 l -5.617430480033371 25.701857146597703 a47.30857248088773,47.30857248088773 0 0,0 -0.7940627885952494,-0.18072610543778922 l 6.059013418021483 -25.601354307582227" fill="red" stroke="none" /><path d="M 94.81253420990036 120.34920634021253 l -7.9431832682989265 31.159236873084783 a53.15574914298826,53.15574914298826 0 0,0 -0.8846877307137804,-0.23365407048316872 l 8.478361441824196 -31.017891453298034" fill="red" stroke="none" /><path d="M 94.11515582081647 120.15858648285463 l -13.752372950368347 47.10887680681695 a70.07518757749051,70.07518757749051 0 0,0 -1.1549893376839748,-0.34798881292217343 l 14.561237262492567 -46.86517262478905" fill="red" stroke="none" /><path d="M 93.42475214034765 119.94407469862007 l -10.015761565939714 30.379858082677824 a52.98829874922079,52.98829874922079 0 0,0 -0.8637856410487056,-0.29304298790878214 l 10.537216939925644 -30.202952107870917" fill="red" stroke="none" /><path d="M 92.40401165467489 119.57807347666478 l -11.71411908367816 30.192237495440253 a53.38505505457203,53.38505505457203 0 0,0 -0.8538530879607532,-0.33976576521901986 l 12.23209324768077 -29.98612488581517" fill="red" stroke="none" /><path d="M 91.7346041902142 119.30500536409082 l -8.942599445802802 20.886710599599553 a43.720580197686346,43.720580197686346 0 0,0 -0.6892847712105725,-0.3021621874865207 l 9.300804891671119 -20.72968385881858" fill="red" stroke="none" /><path d="M 91.07499286063937 119.00905698771935 l -13.679889164040965 29.136312010117663 a53.18794875557267,53.18794875557267 0 0,0 -0.8253942244996868,-0.3962393868842746 l 14.179396056540893 -28.896518346733828" fill="red" stroke="none" /><path d="M 90.10565033884886 118.52300852407294 l -15.044668869434757 28.16481519796756 a52.93115839625308,52.93115839625308 0 0,0 -0.7999591531589715,-0.43620151303124555 l 15.527250834462368 -27.901673033176547" fill="red" stroke="none" /><line stroke="#e1ed5e" stroke-width="0.3" x1="58.666819895761336" x2="56.23545636021788" y1="174.27360380694188" y2="178.64263932499728" /><path d="M 58.180547188652646 175.14741091055294 a86.0,86.0 0 0,1 -31.652253787137756,-30.449443065178592" fill="none" id="id80" stroke="none" /><text fill="#e1ed5e" style="font-size:6.75px; font-family:Arial;" text-anchor="middle"><textPath startOffset="22.20632615414155" xlink:href="#id80">August</textPath></text><path d="M 89.4739219176387 118.17145234162733 l -10.974996503030036 18.946432312574952 a42.89561247411238,42.89561247411238 0 0,0 -0.635737752088547,-0.37560506971780155 l 11.299502126146965 -18.754708670563403" fill="red" stroke="none" /><path d="M 88.8546689885994 117.79835938074946 l -16.71613612103253 26.694568141164243 a52.49649464718494,52.49649464718494 0 0,0 -0.7617446308449296,-0.48618146410504137 l 17.173162553924385 -26.402872248235397" fill="red" stroke="none" /><path d="M 88.54995079064634 117.60387380957326 l -13.387514439294758 20.58262899173059 a45.55341440764511,45.55341440764511 0 0,0 -0.6536379199908108,-0.4331955715835226 l 13.739827058025531 -20.34913539905575" fill="red" stroke="none" /><path d="M 87.95078237400918 117.19931262002967 l -18.434129309155132 26.313273003079242 a53.127954487038714,53.127954487038714 0 0,0 -0.7444811968011238,-0.5311675667158541 l 18.88433783380514 -25.992061174519172" fill="red" stroke="none" /><path d="M 87.36589467227662 116.77436683061367 l -29.663516223047527 39.38440354137229 a70.30573432192915,70.30573432192915 0 0,0 -0.9604140666252822,-0.7364045521315155 l 30.337059018166297 -38.86795964741341" fill="red" stroke="none" /><path d="M 86.79598089348748 116.32954008644616 l -19.441699640789142 24.04374085435296 a51.920562077587505,51.920562077587505 0 0,0 -0.6901228485049765,-0.567924120995267 l 19.85269261783881 -23.705521614500515" fill="red" stroke="none" /><path d="M 86.51685102203217 116.09983520530335 l -35.635293256560516 42.55106502648409 a76.5019572661104,76.5019572661104 0 0,0 -1.0023014073016032,-0.8541830037670924 l 36.362460140439175 -41.93135763249404" fill="red" stroke="none" /><path d="M 85.97065885151581 115.62618273729859 l -21.519065448543646 23.96839919108836 a53.211090288316385,53.211090288316385 0 0,0 -0.6762887605386437,-0.6177737481003016 l 21.928453758549143 -23.594432676401482" fill="red" stroke="none" /><path d="M 84.9287848128048 114.62390073753433 l -23.177532923208517 22.48962254204362 a53.295218755877954,53.295218755877954 0 0,0 -0.633181329638898,-0.6638880927007873 l 23.561220804226373 -22.08732733276033" fill="red" stroke="none" /><path d="M 84.67929136418377 114.36230785411682 l -41.759325291676205 39.14703293927027 a78.23924734624259,78.23924734624259 0 0,0 -0.912618317770131,-0.99046693963266 l 42.426990017442066 -38.42241474483627" fill="red" stroke="none" /><path d="M 84.19399662182784 113.82643327865904 l -23.39135085789031 20.461779249076994 a52.07796172523037,52.07796172523037 0 0,0 -0.584407703182706,-0.6797981875178545 l 23.740101070643796 -20.056103962397607" fill="red" stroke="none" /><path d="M 83.28015986056508 112.70617746262583 l -31.81188472083021 24.17531802413064 a60.9555003855445,60.9555003855445 0 0,0 -0.6276638186351141,-0.840858256417031 l 32.22330980616041 -23.6241468882043" fill="red" stroke="none" /><path d="M 83.06392112726016 112.41649034213515 l -33.79276833821938 24.774777258558693 a62.901560593512016,62.901560593512016 0 0,0 -0.6326705089742817,-0.8787240020388278 l 34.21421863956927 -24.189419651068725" fill="red" stroke="none" /><path d="M 82.6465618267979 111.8261652097733 l -37.82195971722458 25.77522331361461 a66.76967089370494,66.76967089370494 0 0,0 -0.6390712620182016,-0.955324826389732 l 38.26003408465351 -25.120361573019057" fill="red" stroke="none" /><path d="M 82.24976979558568 111.22182372390057 l -24.038632075370494 15.197396800320004 a49.43970290916218,49.43970290916218 0 0,0 -0.4485719813574488,-0.7232408623764782 l 24.296668696395898 -14.78135960657826" fill="red" stroke="none" /><line stroke="#e1ed5e" stroke-width="0.3" x1="26.63291911575756" x2="22.317208475507996" y1="142.92168965132927" y2="145.44649492493687" /><path d="M 25.769776987707644 143.4266507060508 a86.0,86.0 0 0,1 -11.730757126820373,-40.83630448921669" fill="none" id="id81" stroke="none" /><text fill="#e1ed5e" style="font-size:6.75px; font-family:Arial;" text-anchor="middle"><textPath startOffset="21.46611528233685" xlink:href="#id81">September</textPath></text><path d="M 81.87401531095188 110.60418214915194 l -37.394278394904575 21.876645392691703 a64.32343096193105,64.32343096193105 0 0,0 -0.550878126625413,-0.9605024474268995 l 37.765308517682364 -21.229723099406495" fill="red" stroke="none" /><path d="M 81.69416730710424 110.29060199501025 l -23.50294146079297 13.21215048463256 a47.961995062273076,47.961995062273076 0 0,0 -0.39836682803001444,-0.7231515063416056 l 23.726884698274503 -12.805628459893132" fill="red" stroke="none" /><path d="M 81.35079622478065 109.6543875284942 l -38.24305601104983 19.79780410224199 a64.06372464540247,64.06372464540247 0 0,0 -0.4985418619046667,-0.9836703902166156 l 38.57817654274076 -19.13657950032269" fill="red" stroke="none" /><path d="M 81.02952815118164 109.00673069616217 l -52.17056769357938 24.76934982042821 a78.75195948188335,78.75195948188335 0 0,0 -0.5708593907973398,-1.229580341741926 l 52.589201701216545 -23.867649411407456" fill="red" stroke="none" /><path d="M 80.73074385275274 108.34839909993369 l -29.49517100089994 12.778773459372998 a53.14439552236602,53.14439552236602 0 0,0 -0.356444569735868,-0.8425296708318558 l 29.710766551828115 -12.269169262874984" fill="red" stroke="none" /><path d="M 80.58989483394504 108.01547362559985 l -20.649587738151446 8.527322468304979 a43.34100942737533,43.34100942737533 0 0,0 -0.2788217651944913,-0.6920127552061849 l 20.793312117603325 -8.170610345255987" fill="red" stroke="none" /><path d="M 80.32549172779594 107.34259656027581 l -22.78217719023907 8.502389668817054 a45.31703574878847,45.31703574878847 0 0,0 -0.26645497514925337,-0.7331696537525442 l 22.92515642639355 -8.108972218058394" fill="red" stroke="none" /><path d="M 79.97269907076064 106.31721596034903 l -29.691475981734467 9.365588834004537 a52.133551037129465,52.133551037129465 0 0,0 -0.2625873311387409,-0.8581505913627081 l 29.84829008537934 -8.853111270089782" fill="red" stroke="none" /><path d="M 79.86692584326677 105.97154293290107 l -7.24150422312236 2.1478564590046783 a28.55332183757498,28.55332183757498 0 0,0 -0.13570627432146573,-0.47241134390365713 l 7.277403134329929 -2.022887639596425" fill="red" stroke="none" /><path d="M 79.76711848015287 105.62410040840567 l -29.144760411114223 8.101320554378034 a51.2497678362337,51.2497678362337 0 0,0 -0.22894472894069126,-0.8519885059179918 l 29.27989321639669 -7.598441115284504" fill="red" stroke="none" /><path d="M 79.58551787078972 104.9243191809786 l -19.928590085035765 4.807113782484076 a41.50017184550252,41.50017184550252 0 0,0 -0.1615333600207659,-0.6958814872486524 l 20.008384010987086 -4.463363637886849" fill="red" stroke="none" /><path d="M 79.35854240842038 103.8639653848113 l -53.60680329463312 10.03489367947291 a75.53795422114597,75.53795422114597 0 0,0 -0.228245330178629,-1.2801210245370829 l 53.77159506715093 -9.110653904202612" fill="red" stroke="none" /><path d="M 79.29508885075956 103.50808413554451 l -33.993610937089706 5.759621298478816 a55.478091914201336,55.478091914201336 0 0,0 -0.15142413809071814,-0.9429182524365445 l 34.08771682954171 -5.173623816349058" fill="red" stroke="none" /><path d="M 79.23777060512086 103.15116336523772 l -33.22123954683155 5.042115228414834 a54.60169166879217,54.60169166879217 0 0,0 -0.13303558906346719,-0.9304506000574913 l 33.30310918691161 -4.469519156376942" fill="red" stroke="none" /><path d="M 79.1416061653843 102.43462659150553 l -33.71508606914867 3.935281198048173 a54.94397541181372,54.94397541181372 0 0,0 -0.10156184151759065,-0.9403365168227593 l 33.777830212167316 -3.3543483593406314" fill="red" stroke="none" /><path d="M 79.07016306316243 101.71520430193888 l -36.15986542757671 2.9633081674778605 a57.281084093999986,57.281084093999986 0 0,0 -0.07207444596195631,-0.9833985517369099 l 36.205516432203005 -2.3404364792441896" fill="red" stroke="none" /><path d="M 79.0235259727143 100.99374915477108 l -35.38602908799606 1.676394061802727 a56.42571596548122,56.42571596548122 0 0,0 -0.03761141313622288,-0.9705834504884476 l 35.40964263398348 -1.0670333643002827" fill="red" stroke="none" /><path d="M 79.0095281055655 100.63252640178507 l -40.40879837908276 1.2176778096140275 a61.42714095368838,61.42714095368838 0 0,0 -0.02275125960842855,-1.0571616346456305 l 40.4237717013762 -0.5219263591782682" fill="red" stroke="none" /><line stroke="#e1ed5e" stroke-width="0.3" x1="15.007084014347285" x2="10.007500721073583" y1="101.09737516637583" y2="101.16192664675087" /><path d="M 14.007167355692545 101.11028546245083 a86.0,86.0 0 0,1 10.666146001902534,-42.60595125391555" fill="none" id="id82" stroke="none" /><text fill="#e1ed5e" style="font-size:6.75px; font-family:Arial;" text-anchor="middle"><textPath startOffset="22.20632615414155" xlink:href="#id82">October</textPath></text><path d="M 79.00019446554 99.90962569577889 l -26.189644293056357 -0.11270918089692038 a47.18988681831745,47.18988681831745 0 0,0 0.010487374566518869,-0.8122587176691349 l 26.183823911372123 0.5635041566265272" fill="red" stroke="none" /><path d="M 79.01574976396665 99.18683210126434 l -62.95275070810006 -2.4395036962069616 a84.0,84.0 0 0,0 0.06842556706600478,-1.4443555735079636 l 62.90143153280056 3.522770376337934" fill="red" stroke="none" /><path d="M 79.05617556472873 98.46500227214037 l -35.33126060100911 -2.5894699849389338 a56.426026173694936,56.426026173694936 0 0,0 0.07933369279966243,-0.9680719970310437 l 35.281452424389954 3.197255899177756" fill="red" stroke="none" /><path d="M 79.08570108090925 98.10471618934814 l -37.062319146472056 -3.3586405996809074 a58.21419040087765,58.21419040087765 0 0,0 0.09902753367625534,-0.9971937498774742 l 36.99901448711358 3.996109880262812" fill="red" stroke="none" /><path d="M 79.16333360222342 97.38593545837743 l -36.12146157964369 -4.531618930991955 a57.404609004704334,57.404609004704334 0 0,0 0.13144015587937533,-0.9793818327302596 l 36.03810542470648 5.152719105786874" fill="red" stroke="none" /><path d="M 79.26566170972629 96.67025291283419 l -39.511114037264974 -6.34512734549015 a61.01735590336079,61.01735590336079 0 0,0 0.17546307323628516,-1.0355929906356618 l 39.39603910250847 7.02430612444164" fill="red" stroke="none" /><path d="M 79.3925641242962 95.95851677861259 l -40.1118344071128 -7.866641280031646 a61.87595019730228,61.87595019730228 0 0,0 0.21397500329794392,-1.04341810775646 l 39.97048010789987 8.555935043951509" fill="red" stroke="none" /><line stroke="#e1ed5e" stroke-width="0.3" x1="26.266209847984243" x2="21.928928074336255" y1="57.711370442889674" y2="55.22380399835377" /><path d="M 25.398753493254645 57.213857153982495 a86.0,86.0 0 0,1 29.58750427330803,-30.492523968695096" fill="none" id="id83" stroke="none" /><text fill="#e1ed5e" style="font-size:6.75px; font-family:Arial;" text-anchor="middle"><textPath startOffset="21.46611528233685" xlink:href="#id83">November</textPath></text><line stroke="#e1ed5e" stroke-width="0.3" x1="56.762969772571076" x2="54.21961505331055" y1="26.818313649435495" y2="22.513508569990535" /><path d="M 56.25429882871897 25.957352633546506 a86.0,86.0 0 0,1 42.265352541879196,-11.944610805530505" fill="none" id="id84" stroke="none" /><text fill="#e1ed5e" style="font-size:6.75px; font-family:Arial;" text-anchor="middle"><textPath startOffset="22.20632615414155" xlink:href="#id84">December</textPath></text></svg>