<?xml version="1.0" encoding="utf-8" ?>
<svg baseProfile="full" height="200mm" version="1.1" viewBox="0,0,200,200" width="200mm" xmlns="http://www.w3.org/2000/svg" xmlns:ev="http://www.w3.org/2001/xml-events" xmlns:xlink="http://www.w3.org/1999/xlink"><defs /><rect fill="#1a1a1a" height="200" width="200" x="0" y="0" /><rect fill="#1a1a1a" height="200" width="180" x="10" y="0" /><text alignment-baseline="middle" fill="#e1ed5e" style="dominant-baseline: central; font-size:9.0px; font-family:Arial;" text-anchor="middle" x="100.0" y="100.0">2025</text><line stroke="#e1ed5e" stroke-width="0.3" x1="100.0" x2="100.0" y1="15.0" y2="10.0" /><path d="M 100.0 14.0 a86.0,86.0 0 0,1 42.46469731375804,11.215312516191453" fill="none" id="id73" stroke="none" /><text fill="#e1ed5e" style="font-size:6.75px; font-family:Arial;" text-anchor="middle"><textPath startOffset="22.20632615414155" xlink:href="#id73">January</textPath></text><path d="M 100.36148047927253 79.00311137660856 l 0.5257905482684189 -30.540973065659326 a51.54549871090627,51.54549871090627 0 0,0 0.8870081099866097,0.022908802552124827 l -1.0514252934498964 30.527397470964843" fill="red" stroke="none" /><path d="M 101.08401301168833 79.027996857942 l 1.070108728688366 -20.703002065854005 a41.73063981718775,41.73063981718775 0 0,0 0.71704755105934,0.04325426645182297 l -1.4263183285873178 20.68151453002188" fill="red" stroke="none" /><path d="M 101.80526077348638 79.07773832637324 l 2.643113782044466 -30.632648198690255 a51.746466238082625,51.746466238082625 0 0,0 0.8867739505218549,0.08420987175953278 l -3.170012859656565 30.582612782415545" fill="red" stroke="none" /><path d="M 102.16513564639614 79.11191278185805 l 2.849733535849062 -27.492726723316114 a48.640025396303145,48.640025396303145 0 0,0 0.8320531744992695,0.09349086896607323 l -3.322553413858057 27.43959990087944" fill="red" stroke="none" /><path d="M 102.88285421437855 79.19881850522331 l 4.260371123276416 -30.74062938332862 a52.034449519706556,52.034449519706556 0 0,0 0.8861492016460142,0.13059535730172167 l -4.788889305351086 30.66273954186593" fill="red" stroke="none" /><path d="M 103.59715602781102 79.31037775812273 l 8.185313825633092 -47.07915077195549 a68.78541409083547,68.78541409083547 0 0,0 1.1647823260789698,0.21285652498967003 l -8.994491272814962 46.93127876561508" fill="red" stroke="none" /><path d="M 104.307194497241 79.44645832069477 l 6.33503565654026 -30.230215860925252 a51.88686820912365,51.88686820912365 0 0,0 0.8725821442351915,0.19071265961061126 l -6.854460524928979 30.11668970321877" fill="red" stroke="none" /><path d="M 104.66035177308747 79.52364482259891 l 11.694909432595264 -51.384344137333436 a73.69840347733998,73.69840347733998 0 0,0 1.2345406024765235,0.29217587419905594 l -12.57767372203431 51.175422350993514" fill="red" stroke="none" /><path d="M 105.36241919743992 79.69619591428918 l 7.915210439740386 -29.969473878951106 a51.99709536209011,51.99709536209011 0 0,0 0.863404614618896,0.23600109647361392 l -8.429912943582993 29.8287862416512" fill="red" stroke="none" /><path d="M 106.0581310904928 79.89281104454417 l 15.556350290045355 -51.63217336615247 a74.92477501908579,74.92477501908579 0 0,0 1.231672775378428,0.3826867267859349 l -16.442808438134502 51.356746504484015" fill="red" stroke="none" /><path d="M 106.74666289553966 80.11325718540242 l 9.603328779423213 -28.307169419517397 a50.89180095261841,50.89180095261841 0 0,0 0.827156548131357,0.288578677998459 l -10.089167331617844 28.13766988834673" fill="red" stroke="none" /><path d="M 107.08798089147638 80.2323363322302 l 16.837883193700364 -46.959157614338984 a70.88663943675729,70.88663943675729 0 0,0 1.1450476649302272,0.42173071844856036 l -17.64371318440317 46.6623636280841" fill="red" stroke="none" /><line stroke="#e1ed5e" stroke-width="0.3" x1="143.23703022742887" x2="145.7803849466894" y1="26.81831364943548" y2="22.513508569990506" /><path d="M 143.74570117128098 25.957352633546492 a86.0,86.0 0 0,1 28.547481713284135,27.462654790039103" fill="none" id="id74" stroke="none" /><text fill="#e1ed5e" style="font-size:6.75px; font-family:Arial;" text-anchor="middle"><textPath startOffset="19.985693538727396" xlink:href="#id74">February</textPath></text><line stroke="#e1ed5e" stroke-width="0.3" x1="172.23445277983987" x2="176.4835382374775" y1="55.19839476539836" y2="52.563006222186495" /><path d="M 173.08426987136738 54.67131705675599 a86.0,86.0 0 0,1 12.851231095245387,41.99856678651699" fill="none" id="id75" stroke="none" /><text fill="#e1ed5e" style="font-size:6.75px; font-family:Arial;" text-anchor="middle"><textPath startOffset="22.20632615414155" xlink:href="#id75">March</textPath></text><path d="M 119.85752413597 93.16781622104841 l 22.841412767372816 -7.8588211062476 a45.15556263864505,45.15556263864505 0 0,0 0.24655519111454252,0.7371686392954176 l -22.97330525225913 7.464479364029868" fill="red" stroke="none" /><path d="M 119.97218684219823 93.5106431181261 l 25.786577819793553 -8.378567032093523 a48.1136124698933,48.1136124698933 0 0,0 0.24914721486678806,0.7898647567437848 l -25.926980518428547 7.933452108923318" fill="red" stroke="none" /><path d="M 120.18372546131832 94.20196356495316 l 20.798887755506346 -5.9747497678755535 a42.6400408191593,42.6400408191593 0 0,0 0.19657714547071012,0.7071925828127467 l -20.89865167154342 5.615845881643855" fill="red" stroke="none" /><path d="M 120.37134235888165 94.90015583598534 l 26.758447011249416 -6.6988177521310455 a48.58421007986469,48.58421007986469 0 0,0 0.19611178285762856,0.8130099490583999 l -26.869791594367864 6.237222571413239" fill="red" stroke="none" /><path d="M 120.45610955862082 95.25157060432595 l 27.183758353420508 -6.310102948968795 a48.906524639297956,48.906524639297956 0 0,0 0.18329609530170946,0.8216804544850903 l -27.288348835724253 5.841244324933741" fill="red" stroke="none" /><line stroke="#e1ed5e" stroke-width="0.3" x1="184.98032266829074" x2="189.97916517819016" y1="98.17113171792111" y2="98.06355123074" /><path d="M 185.9800911702706 98.14961562048488 a86.0,86.0 0 0,1 -9.607161424134198,41.387399972396054" fill="none" id="id76" stroke="none" /><text fill="#e1ed5e" style="font-size:6.75px; font-family:Arial;" text-anchor="middle"><textPath startOffset="21.466115282336823" xlink:href="#id76">April</textPath></text><line stroke="#e1ed5e" stroke-width="0.3" x1="174.80103733775053" x2="179.2010983576182" y1="140.37084112569926" y2="142.7455964860345" /><path d="M 175.68104954172406 140.8457921977663 a86.0,86.0 0 0,1 -30.038265399797805,32.042727171017184" fill="none" id="id77" stroke="none" /><text fill="#e1ed5e" style="font-size:6.75px; font-family:Arial;" text-anchor="middle"><textPath startOffset="22.206326154141568" xlink:href="#id77">May</textPath></text><path d="M 116.71984013943494 112.70617746262583 l 22.69227071724344 17.24490284349017 a49.50133022134369,49.50133022134369 0 0,0 -0.5213979420761157,0.6739771252832788 l -22.392065957949253 -17.6329579628867" fill="red" stroke="none" /><line stroke="#e1ed5e" stroke-width="0.3" x1="143.8653032363475" x2="146.44561519142675" y1="172.8068346515853" y2="177.08958963109032" /><path d="M 144.38136562736335 173.6633856474863 a86.0,86.0 0 0,1 -40.68145358897372,12.25698825130547" fill="none" id="id78" stroke="none" /><text fill="#e1ed5e" style="font-size:6.75px; font-family:Arial;" text-anchor="middle"><textPath startOffset="21.466115282336833" xlink:href="#id78">June</textPath></text><path d="M 108.59647513512805 119.15986991738527 l 11.211482243628673 24.988211795229077 a48.388100752378335,48.388100752378335 0 0,0 -0.7628714167471455,0.334420410377589 l -10.779690152223774 -25.17749675890112" fill="red" stroke="none" /><path d="M 107.59598834532513 119.57807347666477 l 9.876758857353087 25.456583373981168 a48.30545737765176,48.30545737765176 0 0,0 -0.7777863637704451,0.2940922502443969 l -9.437102272822369 -25.622823874332195" fill="red" stroke="none" /><path d="M 107.2578585660854 119.70592522655815 l 9.826083030503288 26.678951608929875 a49.430940305835236,49.430940305835236 0 0,0 -0.8009705755121412,0.2871995512105668 l -9.365392894361412 -26.844138701180402" fill="red" stroke="none" /><path d="M 106.57524785965236 119.94407469862006 l 10.343255156162016 31.37321327872936 a54.03424645210047,54.03424645210047 0 0,0 -0.8858494136930369,0.2836210080620421 l -9.80168439737804 -31.546607133451108" fill="red" stroke="none" /><path d="M 105.88484417918355 120.15858648285463 l 8.351125946987532 28.606856784254813 a50.80089863841884,50.80089863841884 0 0,0 -0.8415261556468137,0.23782369736335915 l -7.8574686232361115 -28.74636927495669" fill="red" stroke="none" /><path d="M 105.18746579009965 120.34920634021253 l 6.697530330463623 26.27283382273984 a48.113072669927746,48.113072669927746 0 0,0 -0.8042826724613961,0.1976731127908096 l -6.244294373259016 -26.38422819384468" fill="red" stroke="none" /><path d="M 104.13013068566511 120.58985236759428 l 5.407559862324514 26.95819278083209 a48.495197065544566,48.495197065544566 0 0,0 -0.8198745474283604,0.15713090833251425 l -4.942717700324449 -27.04728088751307" fill="red" stroke="none" /><path d="M 103.7750983002368 120.6578951692458 l 5.06517965226423 27.717410766047497 a49.176424622075764,49.176424622075764 0 0,0 -0.8340111527847377,0.14500352932635824 l -4.587319528007442 -27.80049287389486" fill="red" stroke="none" /><path d="M 101.62511606390274 120.93702456842531 l 2.14688863095446 27.659230629977248 a48.742425449769044,48.742425449769044 0 0,0 -0.8370635117687387,0.0577288006298719 l -1.670462358406791 -27.692087775123408" fill="red" stroke="none" /><path d="M 100.90346689309514 120.98055641714683 l 1.2113325384695548 28.12989701949137 a49.155966203381205,49.155966203381205 0 0,0 -0.8456690563357256,0.02912655219184732 l -0.7269431304591768 -28.146580370109312" fill="red" stroke="none" /><line stroke="#e1ed5e" stroke-width="0.3" x1="102.19456741930631" x2="102.32365962044197" y1="184.97166512339345" y2="189.96999836594603" /><path d="M 102.22038585953345 185.97133177190398 a86.0,86.0 0 0,1 -42.740103519485714,-10.115201625700543" fill="none" id="id79" stroke="none" /><text fill="#e1ed5e" style="font-size:6.75px; font-family:Arial;" text-anchor="middle"><textPath startOffset="22.20632615414155" xlink:href="#id79">July</textPath></text><path d="M 100.54218724476979 120.99299961872073 l 0.14949998006970072 5.788503980639621 a26.79043423051515,26.79043423051515 0 0,0 -0.46110204077083233,0.007938289795264728 l -0.04983824940620043 -5.790219747714045" fill="red" stroke="none" /><path d="M 99.81925306533755 120.99922214144158 l -0.24972879578238483 29.01355128120194 a50.014626008590525,50.014626008590525 0 0,0 -0.8608239016403426,-0.014819864129180321 l 0.7491123873153953 -29.0049539397936" fill="red" stroke="none" /><path d="M 99.09653310690486 120.98055641714683 l -0.9605128525946887 22.305293361906777 a43.32596463539083,43.32596463539083 0 0,0 -0.7448185800414912,-0.0384986129671619 l 1.3443195010496687 -22.285454942177413" fill="red" stroke="none" /><path d="M 98.01472825383883 120.90594882070398 l -2.379082569209618 25.05298255933939 a46.16569031418929,46.16569031418929 0 0,0 -0.7904608281992073,-0.08193449684217163 l 2.809975994014419 -25.008318694041456" fill="red" stroke="none" /><path d="M 97.2962882734958 120.8252237178851 l -3.6771808287221783 28.323327764040258 a49.561032097534145,49.561032097534145 0 0,0 -0.8450661231142256,-0.11711846440357557 l 4.164175543023235 -28.255834734144077" fill="red" stroke="none" /><path d="M 96.58105272829116 120.7198165907248 l -6.796308203724847 41.187607846562045 a62.74456665629908,62.74456665629908 0 0,0 -1.064121045199116,-0.18501108368769129 l 7.504278220396013 -41.064518184353346" fill="red" stroke="none" /><path d="M 95.86986931433489 120.58985236759428 l -5.472840117691416 27.283633044790005 a48.82712006436472,48.82712006436472 0 0,0 -0.8226405710754642,-0.17239233005332122 l 5.9416721501962675 -27.185384734010142" fill="red" stroke="none" /><path d="M 95.51606077576429 120.51570834832081 l -4.887505626050959 22.36217641686027 a43.89005559939646,43.89005559939646 0 0,0 -0.7366838209911531,-0.16766683922097733 l 5.271709596434975 -22.274732844061603" fill="red" stroke="none" /><path d="M 94.81253420990036 120.34920634021253 l -6.911051779021609 27.110428168530113 a48.977454354771965,48.977454354771965 0 0,0 -0.8151470658931831,-0.21528774885878188 l 7.376689287726281 -26.98744907036775" fill="red" stroke="none" /><path d="M 94.11515582081647 120.15858648285463 l -11.965399555078605 40.98758342424408 a63.69839319543586,63.69839319543586 0 0,0 -1.049886093946929,-0.3163220677592567 l 12.66916062346578 -40.7755459873791" fill="red" stroke="none" /><path d="M 93.42475214034765 119.94407469862007 l -8.714320751580441 26.43232129449253 a48.831762344068494,48.831762344068494 0 0,0 -0.7960281068757565,-0.2700559534828964 l 9.168018591393423 -26.278402354111513" fill="red" stroke="none" /><path d="M 92.40401165467489 119.57807347666478 l -10.191994921736491 26.269079990671163 a49.17696442204132,49.17696442204132 0 0,0 -0.7865478996953841,-0.3129836417874484 l 10.642663897473733 -26.08974950447765" fill="red" stroke="none" /><path d="M 91.7346041902142 119.30500536409082 l -7.7806045412104 18.172706529807297 a40.76828443859519,40.76828443859519 0 0,0 -0.6427398146329198,-0.28175824635306407 l 8.092265030501064 -18.03608373015978" fill="red" stroke="none" /><path d="M 91.07499286063937 119.00905698771935 l -11.902334259525462 25.35036069925341 a49.0054699729843,49.0054699729843 0 0,0 -0.760488660137624,-0.36508077168583336 l 12.336935587663328 -25.141725651068015" fill="red" stroke="none" /><path d="M 90.10565033884886 118.52300852407294 l -13.08977547702544 24.505099480275934 a48.78204676724083,48.78204676724083 0 0,0 -0.7372528016323509,-0.4020090104458724 l 13.509651090526432 -24.276149818070298" fill="red" stroke="none" /><line stroke="#e1ed5e" stroke-width="0.3" x1="58.666819895761336" x2="56.23545636021788" y1="174.27360380694188" y2="178.64263932499728" /><path d="M 58.180547188652646 175.14741091055294 a86.0,86.0 0 0,1 -31.652253787137756,-30.449443065178592" fill="none" id="id80" stroke="none" /><text fill="#e1ed5e" style="font-size:6.75px; font-family:Arial;" text-anchor="middle"><textPath startOffset="22.20632615414155" xlink:href="#id80">August</textPath></text><path d="M 89.4739219176387 118.17145234162733 l -9.548913394675468 16.48454660016614 a40.050512424395876,40.050512424395876 0 0,0 -0.5935717261070934,-0.3506926383316589 l 9.831252991810944 -16.317735389540733" fill="red" stroke="none" /><path d="M 88.8546689885994 117.79835938074946 l -14.54405348277577 23.225895262733324 a48.403862911372556,48.403862911372556 0 0,0 -0.702358946681962,-0.44827871073583675 l 14.941694231504655 -22.972102123173684" fill="red" stroke="none" /><path d="M 88.54995079064634 117.60387380957326 l -11.647950495063869 17.908137066149365 a42.3629614968396,42.3629614968396 0 0,0 -0.6078586731096473,-0.40285558301672153 l 11.954483866913478 -17.704983462041323" fill="red" stroke="none" /><path d="M 87.95078237400918 117.19931262002967 l -16.038811878507005 22.894145339133875 a48.95327131631507,48.95327131631507 0 0,0 -0.6859814267043082,-0.48942953401700656 l 16.4305206330602 -22.61467154327265" fill="red" stroke="none" /><path d="M 87.36589467227662 116.77436683061367 l -25.80906037803558 34.26682262847957 a63.89898286263633,63.89898286263633 0 0,0 -0.8728944029417802,-0.669298206048919 l 26.395083509470847 -33.817485080603284" fill="red" stroke="none" /><path d="M 86.79598089348748 116.32954008644616 l -16.91545924993545 20.91951455646021 a47.902766603347274,47.902766603347274 0 0,0 -0.6367187183021952,-0.5239761575730523 l 17.273048096782333 -20.625243280029977" fill="red" stroke="none" /><path d="M 86.51685102203217 116.09983520530335 l -31.004869022674686 37.02201041038351 a69.29007307863343,69.29007307863343 0 0,0 -0.9078138683062252,-0.7736586731718489 l 31.637548367557965 -36.48282734698871" fill="red" stroke="none" /><path d="M 85.97065885151581 115.62618273729859 l -18.72289364700621 20.853962734432212 a49.02560451169953,49.02560451169953 0 0,0 -0.623093139611067,-0.5691808096389591 l 19.07908633608413 -20.528589158206678" fill="red" stroke="none" /><path d="M 84.9287848128048 114.62390073753433 l -20.165861057436707 19.567337253695335 a49.09880138702887,49.09880138702887 0 0,0 -0.5833252038671171,-0.6116141441512393 l 20.49969281268278 -19.217315992961595" fill="red" stroke="none" /><path d="M 84.67929136418377 114.36230785411682 l -36.3331487641209 34.060295790745414 a70.8016209421823,70.8016209421823 0 0,0 -0.8258624461672559,-0.896310575500478 l 36.914057618283884 -33.429833960443595" fill="red" stroke="none" /><path d="M 84.19399662182784 113.82643327865904 l -20.35189564432164 17.80299045165619 a48.039713854608735,48.039713854608735 0 0,0 -0.5390913527578565,-0.62708503415597 l 20.655329506650276 -17.45002831833869" fill="red" stroke="none" /><path d="M 83.28015986056508 112.70617746262583 l -27.67827142694225 21.03399468395516 a55.76371156174412,55.76371156174412 0 0,0 -0.5742035405948661,-0.7692394776283411 l 28.0362362342322 -20.55444232681751" fill="red" stroke="none" /><path d="M 83.06392112726016 112.41649034213515 l -29.401760459686674 21.555560618997745 a57.456902113702434,57.456902113702434 0 0,0 -0.5779075616147917,-0.8026630578592268 l 29.76844781367707 -21.04626395568738" fill="red" stroke="none" /><path d="M 82.6465618267979 111.8261652097733 l -32.90740162486349 22.42600943719429 a60.82239295895207,60.82239295895207 0 0,0 -0.582148195535125,-0.870232565420614 l 33.28855292580935 -21.856239957567855" fill="red" stroke="none" /><path d="M 82.24976979558568 111.22182372390057 l -20.915069608523986 13.222658051026128 a45.74426848108001,45.74426848108001 0 0,0 -0.415042889436588,-0.6691812903047664 l 21.13957713762853 -12.860680429356098" fill="red" stroke="none" /><line stroke="#e1ed5e" stroke-width="0.3" x1="26.63291911575756" x2="22.317208475507996" y1="142.92168965132927" y2="145.44649492493687" /><path d="M 25.769776987707644 143.4266507060508 a86.0,86.0 0 0,1 -11.730757126820373,-40.83630448921669" fill="none" id="id81" stroke="none" /><text fill="#e1ed5e" style="font-size:6.75px; font-family:Arial;" text-anchor="middle"><textPath startOffset="21.46611528233685" xlink:href="#id81">September</textPath></text><path d="M 81.87401531095188 110.60418214915194 l -32.535292904261475 19.034009911817773 a58.69401567476281,58.69401567476281 0 0,0 -0.5026667408051035,-0.8764418324993842 l 32.858111641218954 -18.47114823346008" fill="red" stroke="none" /><path d="M 81.69416730710424 110.29060199501025 l -20.448986244986788 11.495373205845155 a44.45857292311963,44.45857292311963 0 0,0 -0.36926780571010054,-0.6703283284485702 l 20.643830460148404 -11.141674358998763" fill="red" stroke="none" /><path d="M 81.35079622478065 109.6543875284942 l -33.273780970810975 17.225291755206133 a58.46805540918123,58.46805540918123 0 0,0 -0.45499654237993625,-0.8977513436487874 l 33.56535618297718 -16.64998619985466" fill="red" stroke="none" /><path d="M 81.02952815118164 109.00673069616217 l -45.39156185785619 21.550838418252745 a71.24771163371744,71.24771163371744 0 0,0 -0.5164623906061035,-1.1124140427143239 l 45.75579886530212 -20.766304308259596" fill="red" stroke="none" /><path d="M 80.73074385275274 108.34839909993369 l -25.662589812304564 11.118308877824362 a48.9675760154023,48.9675760154023 0 0,0 -0.32843023976955027,-0.7763120700907731 l 25.85017103326642 -10.67492228206743" fill="red" stroke="none" /><path d="M 80.58989483394504 108.01547362559985 l -17.96639524148566 7.419288353835351 a40.43803481966825,40.43803481966825 0 0,0 -0.2601463232717098,-0.6456618399156864 l 18.091444179014758 -7.1089271460768595" fill="red" stroke="none" /><path d="M 80.32549172779594 107.34259656027581 l -19.82187756248329 7.397595304281186 a42.157297709962904,42.157297709962904 0 0,0 -0.24787635660763954,-0.6820492747251843 l 19.946278180096154 -7.055298232549885" fill="red" stroke="none" /><path d="M 79.97269907076064 106.31721596034903 l -25.83338706589957 8.148630994220204 a48.08807993152252,48.08807993152252 0 0,0 -0.24221101992096755,-0.7915596273375478 l 25.969824858326668 -7.702744394330608" fill="red" stroke="none" /><path d="M 79.86692584326677 105.97154293290107 l -6.300548401512578 1.8687655440771715 a27.571848660653465,27.571848660653465 0 0,0 -0.1310415957616774,-0.4561729858886983 l 6.331782634160359 -1.7600350826838773" fill="red" stroke="none" /><path d="M 79.76711848015287 105.62410040840567 l -25.357711321134452 7.048640820514379 a47.319134880588535,47.319134880588535 0 0,0 -0.21138566995195374,-0.7866447152906224 l 25.47528506742818 -6.611105172048218" fill="red" stroke="none" /><path d="M 79.58551787078972 104.9243191809786 l -17.33908350198168 4.18248089415046 a38.83639434186817,38.83639434186817 0 0,0 -0.1511649949905759,-0.6512148420639178 l 17.40850906290281 -3.883397394737968" fill="red" stroke="none" /><path d="M 79.35854240842038 103.8639653848113 l -46.64117404361183 8.730966852117712 a68.45133189215312,68.45133189215312 0 0,0 -0.2068324064370509,-1.1600259765597556 l 46.78455289238807 -7.926822124824742" fill="red" stroke="none" /><path d="M 79.29508885075956 103.50808413554451 l -29.576505716511562 5.011220272381707 a50.998033585839764,50.998033585839764 0 0,0 -0.13919608648401463,-0.8667741634090137 l 29.658383557356867 -4.501366879279479" fill="red" stroke="none" /><path d="M 79.23777060512086 103.15116336523772 l -28.904495706115295 4.38694642215284 a50.23551215449589,50.23551215449589 0 0,0 -0.12239750724056939,-0.8560478805652371 l 28.975727264372463 -3.888753069607202" fill="red" stroke="none" /><path d="M 79.1416061653843 102.43462659150553 l -29.33417216847826 3.423933605216372 a50.53331979549293,50.53331979549293 0 0,0 -0.09340891295106529,-0.8648505238987004 l 29.388763382930378 -2.9184867594328896" fill="red" stroke="none" /><path d="M 79.07016306316243 101.71520430193888 l -31.461278665165928 2.5782580472958085 a52.56674626574095,52.56674626574095 0 0,0 -0.06614258743617024,-0.902463055036105 l 31.500997811266434 -2.036321855762943" fill="red" stroke="none" /><path d="M 79.0235259727143 100.99374915477108 l -30.78799405990265 1.4585646298003798 a51.822524053229415,51.822524053229415 0 0,0 -0.03454308604821681,-0.8914035621519476 l 30.80853927880207 -0.9283838206344355" fill="red" stroke="none" /><path d="M 79.0095281055655 100.63252640178507 l -35.15810834183257 1.0594536356719828 a56.174067495559505,56.174067495559505 0 0,0 -0.020805636938505814,-0.9667561943518046 l 35.17113604145609 -0.45410762553004924" fill="red" stroke="none" /><line stroke="#e1ed5e" stroke-width="0.3" x1="15.007084014347285" x2="10.007500721073583" y1="101.09737516637583" y2="101.16192664675087" /><path d="M 14.007167355692545 101.11028546245083 a86.0,86.0 0 0,1 10.666146001902534,-42.60595125391555" fill="none" id="id82" stroke="none" /><text fill="#e1ed5e" style="font-size:6.75px; font-family:Arial;" text-anchor="middle"><textPath startOffset="22.20632615414155" xlink:href="#id82">October</textPath></text><path d="M 79.00019446554 99.90962569577889 l -22.786580854281603 -0.0980638314438065 a43.78679186598566,43.78679186598566 0 0,0 0.009731078379839319,-0.7536827445431651 l 22.781516768784048 0.4902828340474435" fill="red" stroke="none" /><path d="M 79.01574976396665 99.18683210126434 l -54.77271580927418 -2.1225163502001725 a75.8138255623559,75.8138255623559 0 0,0 0.06175719054223061,-1.3035966845232057 l 54.728065010498455 3.065024141346387" fill="red" stroke="none" /><path d="M 79.05617556472873 98.46500227214037 l -30.740342150505573 -2.2529961278317314 a51.8227939532122,51.8227939532122 0 0,0 0.0728616543516398,-0.8890967348929167 l 30.697006012334437 2.7818067799324266" fill="red" stroke="none" /><path d="M 79.08570108090925 98.10471618934814 l -32.24646820049336 -2.9222212691675495 a53.378605413936604,53.378605413936604 0 0,0 0.09080177202190311,-0.9143614525840937 l 32.19138930278923 3.4768582524560734" fill="red" stroke="none" /><path d="M 79.16333360222342 97.38593545837743 l -31.427864985459205 -3.942783644420043 a52.67422043888308,52.67422043888308 0 0,0 0.12060891739100577,-0.8986765252045065 l 31.355340069010364 4.483178511689209" fill="red" stroke="none" /><path d="M 79.26566170972629 96.67025291283419 l -34.3770684541745 -5.5206460870893865 a55.81752961831001,55.81752961831001 0 0,0 0.160510319437598,-0.947340991288947 l 34.27694627321668 6.1115728666941616" fill="red" stroke="none" /><path d="M 79.3925641242962 95.95851677861259 l -34.89973165361248 -6.844455601353694 a56.564558790642444,56.564558790642444 0 0,0 0.19560752788733987,-0.9538517745782333 l 34.77674482981015 7.44418303209533" fill="red" stroke="none" /><path d="M 79.46518482838121 95.60439243477599 l -37.03638579261234 -7.927873526885423 a58.8753884631895,58.8753884631895 0 0,0 0.2206582637851664,-0.9891677298114159 l 36.89443314182514 8.564219426246797" fill="red" stroke="none" /><path d="M 79.62865764111835 94.90015583598534 l -25.862445800290907 -6.4745091883576595 a47.660558358802476,47.660558358802476 0 0,0 0.20608350114707377,-0.7941237966705696 l 25.747165967273528 6.918729410577093" fill="red" stroke="none" /><path d="M 79.81627453868168 94.20196356495316 l -42.385859786016155 -12.175886946197934 a65.10003778599759,65.10003778599759 0 0,0 0.3186619039145524,-1.0743695246817453 l 42.1699919849899 12.903685857626218" fill="red" stroke="none" /><path d="M 80.65960295795068 91.81776055985345 l -58.02119112614798 -24.546718320439627 a84.0,84.0 0 0,0 0.574837160629277,-1.3268034216536029 l 57.59006325567602 25.54182088667983" fill="red" stroke="none" /><path d="M 80.95270993114464 91.15688171328213 l -30.719889387513852 -14.262376150446231 a54.86926301881846,54.86926301881846 0 0,0 0.40509664957188585,-0.8532368565242684 l 30.469834544100216 14.789055422611032" fill="red" stroke="none" /><path d="M 81.10775173730289 90.83032412892265 l -30.854494710432693 -14.975756814459032 a55.29683857153506,55.29683857153506 0 0,0 0.42299444913564843,-0.8527309979863054 l 30.592140248343632 15.5046474009443" fill="red" stroke="none" /><line stroke="#e1ed5e" stroke-width="0.3" x1="26.266209847984243" x2="21.928928074336255" y1="57.711370442889674" y2="55.22380399835377" /><path d="M 25.398753493254645 57.213857153982495 a86.0,86.0 0 0,1 29.58750427330803,-30.492523968695096" fill="none" id="id83" stroke="none" /><text fill="#e1ed5e" style="font-size:6.75px; font-family:Arial;" text-anchor="middle"><textPath startOffset="21.46611528233685" xlink:href="#id83">November</textPath></text><line stroke="#e1ed5e" stroke-width="0.3" x1="56.762969772571076" x2="54.21961505331055" y1="26.818313649435495" y2="22.513508569990535" /><path d="M 56.25429882871897 25.957352633546506 a86.0,86.0 0 0,1 42.265352541879196,-11.944610805530505" fill="none" id="id84" stroke="none" /><text fill="#e1ed5e" style="font-size:6.75px; font-family:Arial;" text-anchor="middle"><textPath startOffset="22.20632615414155" xlink:href="#id84">December</textPath></text></svg>