<?xml version="1.0" encoding="utf-8" ?>
<svg baseProfile="full" height="200mm" version="1.1" viewBox="0,0,200,200" width="200mm" xmlns="http://www.w3.org/2000/svg" xmlns:ev="http://www.w3.org/2001/xml-events" xmlns:xlink="http://www.w3.org/1999/xlink"><defs /><rect fill="#1a1a1a" height="200" width="200" x="0" y="0" /><rect fill="#1a1a1a" height="200" width="180" x="10" y="0" /><text alignment-baseline="middle" fill="#e1ed5e" style="dominant-baseline: central; font-size:9.0px; font-family:Arial;" text-anchor="middle" x="100.0" y="100.0">2022</text><line stroke="#e1ed5e" stroke-width="0.3" x1="100.0" x2="100.0" y1="15.0" y2="10.0" /><path d="M 100.0 14.0 a86.0,86.0 0 0,1 42.46469731375804,11.215312516191453" fill="none" id="id37" stroke="none" /><text fill="#e1ed5e" style="font-size:6.75px; font-family:Arial;" text-anchor="middle"><textPath startOffset="22.20632615414155" xlink:href="#id37">January</textPath></text><path d="M 102.52436894288641 79.15227682838746 l 3.64766469069239 -30.1245600048735 a51.34459710035624,51.34459710035624 0 0,0 0.8764896110084031,0.11379350692916114 l -4.165669030208639 30.057308174780204" fill="red" stroke="none" /><path d="M 103.59715602781102 79.31037775812273 l 2.140184698418656 -12.309616985136287 a33.49428112634341,33.49428112634341 0 0,0 0.5671776087466067,0.10364808269040332 l -2.3517574282681633 12.270953421095145" fill="red" stroke="none" /><path d="M 104.307194497241 79.44645832069477 l 2.627986864027986 -12.540515079378252 a33.81291666302474,33.81291666302474 0 0,0 0.568632263673219,0.12428098839974902 l -2.843461851854733 12.493420592882632" fill="red" stroke="none" /><path d="M 104.66035177308747 79.52364482259891 l 2.6305836619118503 -11.558090034368828 a32.8536667594839,32.8536667594839 0 0,0 0.5503400839244355,0.1302477170899379 l -2.8291474327988095 11.511096405138021" fill="red" stroke="none" /><path d="M 105.01212808612495 79.60689891045804 l 10.293144464532137 -41.8802416832789 a64.12659813175136,64.12659813175136 0 0,0 1.069665586877142,0.27268157519278446 l -11.012518940094305 41.696857111917254" fill="red" stroke="none" /><path d="M 106.0581310904928 79.89281104454417 l 5.239312822363396 -17.38949708125811 a39.16163559786579,39.16163559786579 0 0,0 0.6437699731883766,0.20002246438128407 l -5.5378681682624915 17.296734481994307" fill="red" stroke="none" /><path d="M 106.74666289553966 80.11325718540242 l 6.336652015787195 -18.678177773914335 a40.723779651048815,40.723779651048815 0 0,0 0.6618932789268961,0.23092156840237674 l -6.657227298777364 18.56633535233975" fill="red" stroke="none" /><path d="M 108.76106565485865 80.91482961587045 l 9.66226003485608 -21.048338903695736 a44.16013470569652,44.16013470569652 0 0,0 0.688102774649939,0.3230734791490235 l -10.023141020805618 20.87890044190671" fill="red" stroke="none" /><path d="M 109.08828744355905 81.06846463323043 l 12.719865457885442 -26.496365159221543 a50.39136512510973,50.39136512510973 0 0,0 0.7787355179841225,0.38212213666358624 l -13.174072242879996 26.273487862423124" fill="red" stroke="none" /><path d="M 109.41281617654863 81.2277094730956 l 8.854017007795974 -17.657858868486127 a40.753318632415024,40.753318632415024 0 0,0 0.6243787079015853,0.31983102518777806 l -9.156656203286316 17.50283531798585" fill="red" stroke="none" /><path d="M 109.73455568895987 81.39251694778311 l 11.83856758064115 -22.629275814728228 a46.53890769513159,46.53890769513159 0 0,0 0.7066267260835432,0.3774555250405775 l -12.226339353253005 22.422141563185896" fill="red" stroke="none" /><path d="M 110.05341064243156 81.56283822128135 l 12.662723985537578 -23.222436542605077 a47.45044683382926,47.45044683382926 0 0,0 0.7137358627416565,0.39719323487030933 l -13.06058393735127 23.00102791017459" fill="red" stroke="none" /><path d="M 110.36928655335952 81.73862282372117 l 9.772700106745619 -17.210727253180437 a40.79178617406104,40.79178617406104 0 0,0 0.6076097144677113,0.3519667651130437 l -10.067506553678658 17.03995633067734" fill="red" stroke="none" /><line stroke="#e1ed5e" stroke-width="0.3" x1="143.23703022742887" x2="145.7803849466894" y1="26.81831364943548" y2="22.513508569990506" /><path d="M 143.74570117128098 25.957352633546492 a86.0,86.0 0 0,1 28.547481713284135,27.462654790039103" fill="none" id="id38" stroke="none" /><text fill="#e1ed5e" style="font-size:6.75px; font-family:Arial;" text-anchor="middle"><textPath startOffset="19.985693538727396" xlink:href="#id38">February</textPath></text><path d="M 110.99172775467656 82.1063720568725 l 10.417674572643776 -16.959116618964405 a40.9032555125322,40.9032555125322 0 0,0 0.5967606711744529,0.37369147754251325 l -10.708054396190493 16.777280800098946" fill="red" stroke="none" /><path d="M 112.48926042617603 83.11751280151076 l 17.275310289676007 -23.352079695937803 a50.04747788931108,50.04747788931108 0 0,0 0.6881619873919458,0.5183093418094319 l -17.674718430826335 23.051253764622523" fill="red" stroke="none" /><path d="M 112.77801427241765 83.33499621200491 l 17.33695004878067 -22.610738419573448 a49.49237317024138,49.49237317024138 0 0,0 0.6716054819723644,0.5241987315090655 l -17.72358808591246 22.308961298841158" fill="red" stroke="none" /><path d="M 113.06298171725822 83.55741782278167 l 25.46141033561796 -32.04868083357807 a61.931666951777906,61.931666951777906 0 0,0 0.8289895762562185,0.6703185849717964 l -26.00930331043867 31.605656151342146" fill="red" stroke="none" /><path d="M 113.6212207817346 84.01681056812373 l 18.46318780605501 -21.664770944481038 a49.464918830702615,49.464918830702615 0 0,0 0.6432940991475874,0.5578583036554705 l -18.833375703849363 21.3437476474059" fill="red" stroke="none" /><path d="M 113.89432698308785 84.25364557470407 l 9.719541976192218 -11.015096520684521 a35.690195627933576,35.690195627933576 0 0,0 0.457155736879227,0.4104389343506498 l -9.907708700667435 10.846158577564573" fill="red" stroke="none" /><path d="M 114.16331599549186 84.49514656593476 l 9.852663516525984 -10.785899559645607 a35.60857993374597,35.60857993374597 0 0,0 0.4489938683674738,0.41729086752806976 l -10.036865268688304 10.614704106042897" fill="red" stroke="none" /><path d="M 114.42810811169701 84.74124197986012 l 16.666062243080223 -17.625554850783555 a45.257324965630566,45.257324965630566 0 0,0 0.5614424525154667,0.5401071944896068 l -16.96698793920811 17.336064569531647" fill="red" stroke="none" /><path d="M 114.68862486808459 84.99185889309783 l 26.11930508483904 -26.68746869417528 a58.34218905497486,58.34218905497486 0 0,0 0.7116752464644965,0.7086190867865294 l -26.57481613147086 26.23391375673863" fill="red" stroke="none" /><path d="M 114.94478906791727 85.2469230424477 l 10.37241590792954 -10.239358309441167 a35.575029000183555,35.575029000183555 0 0,0 0.42645267234021217,0.439496965094792 l -10.54713284397286 10.059297148796261" fill="red" stroke="none" /><path d="M 115.19652480421416 85.50635884689758 l 21.982140292418162 -20.965402108718372 a51.377007380843274,51.377007380843274 0 0,0 0.6048607201861512,0.6452232436004894 l -22.339768334574774 20.583909448239826" fill="red" stroke="none" /><path d="M 115.68641384162765 86.03803664274999 l 23.730466216164253 -21.12171099816947 a52.7688794628754,52.7688794628754 0 0,0 0.5980677458116254,0.6836948199261973 l -24.090525825553726 20.710100622040326" fill="red" stroke="none" /><path d="M 115.9244219780498 86.31012108654704 l 19.606911130118036 -16.855634672839834 a46.85620591441418,46.85620591441418 0 0,0 0.5205264539092854,0.6161391389333906 l -19.894148197514436 16.51563658427734" fill="red" stroke="none" /><path d="M 116.38621287248628 86.86637796730983 l 23.897236499542267 -19.15374066315144 a51.62586641560229,51.62586641560229 0 0,0 0.5498054456976461,0.6981970824188306 l -24.22339602583388 18.73955118677957" fill="red" stroke="none" /><path d="M 116.82858285166822 87.43820079747576 l 24.651940556557605 -18.401592692241625 a51.76258745319077,51.76258745319077 0 0,0 0.5268381053228541,0.7186065835878018 l -24.965041274394085 17.97452366498233" fill="red" stroke="none" /><path d="M 117.04232023915458 87.72973835380427 l 13.059493416637393 -9.402675160437 a37.0922549219149,37.0922549219149 0 0,0 0.3686040716771881,0.5213643188517567 l -13.219410108118463 9.176484341253449" fill="red" stroke="none" /><path d="M 117.2510076193507 88.02491185347247 l 25.205152928729113 -17.496596994697647 a51.68274173791326,51.68274173791326 0 0,0 0.5010162745238356,0.7351795607025962 l -25.50259366892168 17.060139410724645" fill="red" stroke="none" /><path d="M 117.65298651832404 88.62581576622439 l 24.50913406170915 -15.791741864121208 a50.15607592866142,50.15607592866142 0 0,0 0.46136998809570895,0.7297765229251132 l -24.777331646050815 15.367517693481888" fill="red" stroke="none" /><line stroke="#e1ed5e" stroke-width="0.3" x1="172.23445277983987" x2="176.4835382374775" y1="55.19839476539836" y2="52.563006222186495" /><path d="M 173.08426987136738 54.67131705675599 a86.0,86.0 0 0,1 12.851231095245387,41.99856678651699" fill="none" id="id39" stroke="none" /><text fill="#e1ed5e" style="font-size:6.75px; font-family:Arial;" text-anchor="middle"><textPath startOffset="22.20632615414155" xlink:href="#id39">March</textPath></text><path d="M 118.21658344932153 89.55222093294921 l 31.834455226033093 -18.258053484442044 a57.698624723265205,57.698624723265205 0 0,0 0.48670811798390184,0.865799433542136 l -32.144020985309425 17.707370540965115" fill="red" stroke="none" /><path d="M 118.56541770881063 90.18545643968196 l 28.209451847403233 -14.912828696423132 a52.9087077967727,52.9087077967727 0 0,0 0.41871086378625844,0.808816115843848 l -28.46197214434961 14.42503985831894" fill="red" stroke="none" /><path d="M 119.04729006885535 91.15688171328212 l 29.500173589848323 -13.696096588579794 a53.524503126026254,53.524503126026254 0 0,0 0.38078270251030544,0.8390042103215264 l -29.731558609321976 13.186270369416205" fill="red" stroke="none" /><path d="M 119.34039704204932 91.81776055985345 l 30.12993072890133 -12.746910366054061 a53.71538551826356,53.71538551826356 0 0,0 0.35293134676512317,0.8546512504550587 l -30.34488376255265 12.226384545145699" fill="red" stroke="none" /><path d="M 119.61058180528143 92.48833698450437 l 10.89206049620248 -4.1721091604651175 a32.6637676888633,32.6637676888633 0 0,0 0.19659763610100925,0.5267839225555642 l -10.962262720805116 3.98400210088022" fill="red" stroke="none" /><path d="M 119.85752413597 93.16781622104841 l 35.88144026618826 -12.345375610447249 a58.945830529045764,58.945830529045764 0 0,0 0.32185183092052394,0.9622960083780902 l -36.08862939088055 11.725906499146845" fill="red" stroke="none" /><path d="M 119.97218684219823 93.5106431181261 l 14.72893821352713 -4.7857221301724815 a36.486922134663246,36.486922134663246 0 0,0 0.18894060458671832,0.5989933492160646 l -14.809134301882054 4.5314786145299975" fill="red" stroke="none" /><path d="M 120.08093135843002 93.85539295169968 l 29.30868871744625 -8.96822821885987 a51.65009546023822,51.65009546023822 0 0,0 0.25282501080619646,0.8524002503930967 l -29.458719625364147 8.462398581720244" fill="red" stroke="none" /><path d="M 120.28053869075195 94.5502522615342 l 32.25830982226409 -8.6683915886701 a54.40268799548483,54.40268799548483 0 0,0 0.23523636314787966,0.9064616661605137 l -32.40274251728228 8.111833496960736" fill="red" stroke="none" /><path d="M 120.45610955862082 95.25157060432595 l 33.08584922968955 -7.680141652198398 a54.96554128889427,54.96554128889427 0 0,0 0.2060046009955827,0.9234782328202246 l -33.21314821768717 7.109485249828209" fill="red" stroke="none" /><path d="M 120.87857604477298 97.74499172005257 l 33.39244667882034 -3.606579471079137 a54.58664780354046,54.58664780354046 0 0,0 0.09285675994830114,0.9350549005596435 l -33.44958056445087 3.0312490398150587" fill="red" stroke="none" /><line stroke="#e1ed5e" stroke-width="0.3" x1="184.98032266829074" x2="189.97916517819016" y1="98.17113171792111" y2="98.06355123074" /><path d="M 185.9800911702706 98.14961562048488 a86.0,86.0 0 0,1 -9.607161424134198,41.387399972396054" fill="none" id="id40" stroke="none" /><text fill="#e1ed5e" style="font-size:6.75px; font-family:Arial;" text-anchor="middle"><textPath startOffset="21.466115282336823" xlink:href="#id40">April</textPath></text><path d="M 120.92983693683757 101.71520430193887 l 33.01730340848735 2.7057745846545163 a54.12798726863847,54.12798726863847 0 0,0 -0.08409273511184077,0.9279563246245655 l -32.96583607709843 -3.273712297827652" fill="red" stroke="none" /><path d="M 120.32669344350535 105.2749913415812 l 19.114196536021968 4.960335605445608 a40.74734003698538,40.74734003698538 0 0,0 -0.18202792156311032,0.6773936121852661 l -19.025980538117082 -5.288620150806422" fill="red" stroke="none" /><path d="M 119.67450827220406 107.3425965602758 l 20.41841609219017 7.620225608210333 a42.79402565002242,42.79402565002242 0 0,0 -0.2635005864652428,0.6879168828469295 l -20.28422122613142 -7.970566057890407" fill="red" stroke="none" /><line stroke="#e1ed5e" stroke-width="0.3" x1="174.80103733775053" x2="179.2010983576182" y1="140.37084112569926" y2="142.7455964860345" /><path d="M 175.68104954172406 140.8457921977663 a86.0,86.0 0 0,1 -30.038265399797805,32.042727171017184" fill="none" id="id41" stroke="none" /><text fill="#e1ed5e" style="font-size:6.75px; font-family:Arial;" text-anchor="middle"><textPath startOffset="22.206326154141568" xlink:href="#id41">May</textPath></text><line stroke="#e1ed5e" stroke-width="0.3" x1="143.8653032363475" x2="146.44561519142675" y1="172.8068346515853" y2="177.08958963109032" /><path d="M 144.38136562736335 173.6633856474863 a86.0,86.0 0 0,1 -40.68145358897372,12.25698825130547" fill="none" id="id42" stroke="none" /><text fill="#e1ed5e" style="font-size:6.75px; font-family:Arial;" text-anchor="middle"><textPath startOffset="21.466115282336833" xlink:href="#id42">June</textPath></text><path d="M 104.48393922423573 120.51570834832081 l 4.226556587712458 19.338085985311803 a40.79457880745252,40.79457880745252 0 0,0 -0.6873081099747067,0.14403209701678066 l -3.893057016308373 -19.407974063055125" fill="red" stroke="none" /><line stroke="#e1ed5e" stroke-width="0.3" x1="102.19456741930631" x2="102.32365962044197" y1="184.97166512339345" y2="189.96999836594603" /><path d="M 102.22038585953345 185.97133177190398 a86.0,86.0 0 0,1 -42.740103519485714,-10.115201625700543" fill="none" id="id43" stroke="none" /><text fill="#e1ed5e" style="font-size:6.75px; font-family:Arial;" text-anchor="middle"><textPath startOffset="22.20632615414155" xlink:href="#id43">July</textPath></text><line stroke="#e1ed5e" stroke-width="0.3" x1="58.666819895761336" x2="56.23545636021788" y1="174.27360380694188" y2="178.64263932499728" /><path d="M 58.180547188652646 175.14741091055294 a86.0,86.0 0 0,1 -31.652253787137756,-30.449443065178592" fill="none" id="id44" stroke="none" /><text fill="#e1ed5e" style="font-size:6.75px; font-family:Arial;" text-anchor="middle"><textPath startOffset="22.20632615414155" xlink:href="#id44">August</textPath></text><path d="M 87.65650970185807 116.9893568818739 l -11.66536334864596 16.05599520880337 a40.84630152449189,40.84630152449189 0 0,0 -0.5652642440872597,-0.41816897421625987 l 11.940012563151782 -15.852816285847343" fill="red" stroke="none" /><path d="M 85.70375840098266 115.38237550388516 l -13.461511546972028 14.484228182016935 a40.7738503877721,40.7738503877721 0 0,0 -0.5099918757513249,-0.4822291506107661 l 13.70883925711417 -14.250364394660238" fill="red" stroke="none" /><path d="M 83.95833913139862 113.55231037782056 l -15.082634926308447 12.742106413480746 a40.7445474035939,40.7445474035939 0 0,0 -0.4480037608579646,-0.5396493902049702 l 15.299734687059948 -12.480595766162015" fill="red" stroke="none" /><line stroke="#e1ed5e" stroke-width="0.3" x1="26.63291911575756" x2="22.317208475507996" y1="142.92168965132927" y2="145.44649492493687" /><path d="M 25.769776987707644 143.4266507060508 a86.0,86.0 0 0,1 -11.730757126820373,-40.83630448921669" fill="none" id="id45" stroke="none" /><text fill="#e1ed5e" style="font-size:6.75px; font-family:Arial;" text-anchor="middle"><textPath startOffset="21.46611528233685" xlink:href="#id45">September</textPath></text><path d="M 79.18660465613746 102.79330883721812 l -19.530349163669143 2.6211147201852185 a40.70545053611319,40.70545053611319 0 0,0 -0.08722303997867478,-0.695253448144566 l 19.572573712894666 -2.2845435177532436" fill="red" stroke="none" /><path d="M 79.0235259727143 100.99374915477108 l -19.670920277174208 0.9318992493010797 a40.692982018013204,40.692982018013204 0 0,0 -0.02712452172269624,-0.6999633805598406 l 19.684046931748107 -0.5931586217272423" fill="red" stroke="none" /><line stroke="#e1ed5e" stroke-width="0.3" x1="15.007084014347285" x2="10.007500721073583" y1="101.09737516637583" y2="101.16192664675087" /><path d="M 14.007167355692545 101.11028546245083 a86.0,86.0 0 0,1 10.666146001902534,-42.60595125391555" fill="none" id="id46" stroke="none" /><text fill="#e1ed5e" style="font-size:6.75px; font-family:Arial;" text-anchor="middle"><textPath startOffset="22.20632615414155" xlink:href="#id46">October</textPath></text><path d="M 79.00175016825051 100.2711162175752 l -19.749941862455753 0.2549988488556368 a40.7515879863696,40.7515879863696 0 0,0 -0.003018921708926268,-0.7014910859629324 l 19.751405081454184 0.08500171531097095" fill="red" stroke="none" /><path d="M 79.00486145842228 99.54816195383935 l -13.00035614017579 -0.27978169832682614 a34.003366393750696,34.003366393750696 0 0,0 0.01763043061103848,-0.5850681602908494 l 12.993614015109106 0.50352000604267" fill="red" stroke="none" /><path d="M 79.03285615573316 98.82574320788736 l -13.183540988770327 -0.7383391207282635 a34.204200000749196,34.204200000749196 0 0,0 0.03798198710401531,-0.5875645292736857 l 13.168878410661899 0.9651627142549609" fill="red" stroke="none" /><path d="M 79.08570108090925 98.10471618934814 l -16.94192260218116 -1.5353013626443208 a38.011345970628966,38.011345970628966 0 0,0 0.0646606921313382,-0.6511243455473713 l 16.912984784367595 1.8267012388961223" fill="red" stroke="none" /><path d="M 79.12142395522702 97.74499172005258 l -10.94310945536799 -1.1819198003401996 a32.006751517436946,32.006751517436946 0 0,0 0.06387579321893463,-0.5472487880102842 l 10.921143309145467 1.3701123266753454" fill="red" stroke="none" /><path d="M 79.21141760316559 97.0276538004421 l -20.275601970458368 -2.899000389262603 a41.48180261894446,41.48180261894446 0 0,0 0.10714968198056454,-0.7059825274088948 l 20.2226963950385 3.2475820290635897" fill="red" stroke="none" /><path d="M 79.32604984820605 96.31383870115002 l -20.267186606564497 -3.6136354376962703 a41.58682136760995,41.58682136760995 0 0,0 0.13171987229316545,-0.7036528247885585 l 20.201981010361468 3.9619663399474017" fill="red" stroke="none" /><path d="M 79.46518482838121 95.60439243477599 l -23.90675440240696 -5.11739256637723 a45.44832535646189,45.44832535646189 0 0,0 0.17033515747196057,-0.7635791115788518 l 23.81512485793296 5.528149847506041" fill="red" stroke="none" /><path d="M 79.54389044137918 95.25157060432595 l -23.346849177582794 -5.419450096975182 a44.96759908448075,44.96759908448075 0 0,0 0.18151321206598967,-0.7524894483383774 l 23.25010316525599 5.820524776972956" fill="red" stroke="none" /><path d="M 79.71946130924805 94.55025226153421 l -23.65877563313041 -6.3575411367310855 a45.498081430267824,45.498081430267824 0 0,0 0.20975315220471047,-0.7545936894422283 l 23.545835710359338 6.763846129592256" fill="red" stroke="none" /><path d="M 79.81627453868168 94.20196356495316 l -25.373923144444902 -7.288987911251582 a47.4001007670533,47.4001007670533 0 0,0 0.2320214683411398,-0.782261047195881 l 25.244695778992057 7.724678345194002" fill="red" stroke="none" /><path d="M 80.02781315780177 93.51064311812611 l -25.821990109682428 -8.39007318256712 a48.15084715498522,48.15084715498522 0 0,0 0.26290983057011236,-0.7860669296097674 l 25.673742985340542 8.83331321509921" fill="red" stroke="none" /><path d="M 80.14247586403 93.16781622104843 l -25.395650814145228 -8.737632766313933 a47.85675532585718,47.85675532585718 0 0,0 0.2747135436652772,-0.7766521812653833 l 25.24148418967014 9.173482574005927" fill="red" stroke="none" /><path d="M 80.2630227832202 92.82701384747504 l -12.385870791818153 -4.501382288729736 a34.17847630725585,34.17847630725585 0 0,0 0.20571440844014166,-0.5512123398503995 l 12.306551794876382 4.713917765609477" fill="red" stroke="none" /><path d="M 80.38941819471856 92.48833698450439 l -25.54190757494018 -9.783605829798175 a48.35156276338972,48.35156276338972 0 0,0 0.30439945098192217,-0.7746634003136869 l 25.369714574076564 10.221818235007625" fill="red" stroke="none" /><path d="M 80.52162464483688 92.15188598940014 l -27.713374240188635 -11.166111992896237 a50.87830598970852,50.87830598970852 0 0,0 0.3342906111689401,-0.8095112306390108 l 27.517061942133495 11.64149779398856" fill="red" stroke="none" /><path d="M 80.803312248108 91.48605970444005 l -26.92147429105581 -11.93996733941305 a50.450443087842146,50.450443087842146 0 0,0 0.3589133002617099,-0.7908178813658717 l 26.711958673830747 12.401607229620993" fill="red" stroke="none" /><path d="M 80.95270993114464 91.15688171328213 l -26.92972163010189 -12.50270841376896 a50.690530893780036,50.690530893780036 0 0,0 0.37424530785200716,-0.7882560627891325 l 26.710518128408133 12.964406892198625" fill="red" stroke="none" /><path d="M 81.10775173730289 90.83032412892265 l -12.720539563945977 -6.174131478936419 a35.13973218689479,35.13973218689479 0 0,0 0.26880219634872965,-0.5418888253066807 l 12.612377354643835 6.39217989274206" fill="red" stroke="none" /><path d="M 81.26839172434947 90.50648371742162 l -26.52185198675245 -13.44175203619156 a50.73363971345696,50.73363971345696 0 0,0 0.40149773056333155,-0.7755658212874296 l 26.286544823029004 13.896290579739325" fill="red" stroke="none" /><path d="M 81.43458229118936 90.18545643968196 l -25.118001258876006 -13.27854408502587 a49.4118587962645,49.4118587962645 0 0,0 0.4039817122799583,-0.7485167586658271 l 24.885711447377577 13.70894182702417" fill="red" stroke="none" /><path d="M 81.6062741919709 89.86733742301443 l -13.273787349616741 -7.312211225504704 a36.154598761077196,36.154598761077196 0 0,0 0.304976709650618,-0.5425195362527063 l 13.145952998673694 7.539614271692195" fill="red" stroke="none" /><line stroke="#e1ed5e" stroke-width="0.3" x1="26.266209847984243" x2="21.928928074336255" y1="57.711370442889674" y2="55.22380399835377" /><path d="M 25.398753493254645 57.213857153982495 a86.0,86.0 0 0,1 29.58750427330803,-30.492523968695096" fill="none" id="id47" stroke="none" /><text fill="#e1ed5e" style="font-size:6.75px; font-family:Arial;" text-anchor="middle"><textPath startOffset="21.46611528233685" xlink:href="#id47">November</textPath></text><path d="M 81.96595687620814 89.24020034530311 l -25.36897166498302 -15.136098471494925 a50.54126267236224,50.54126267236224 0 0,0 0.45218594241920956,-0.7432747950491332 l 25.104669924277598 15.570541039751133" fill="red" stroke="none" /><path d="M 82.15384107792192 88.93136811851018 l -26.766664601086745 -16.601351498568565 a52.49697136942051,52.49697136942051 0 0,0 0.4829031499637065,-0.7638368138002817 l 26.47693385487708 17.059635960083064" fill="red" stroke="none" /><path d="M 82.34701348167596 88.62581576622439 l -13.837089379850621 -8.915522804159645 a37.46060719953749,37.46060719953749 0 0,0 0.35391954809159787,-0.5390437527680184 l 13.681573196401104 9.15238462090533" fill="red" stroke="none" /><path d="M 82.7489923806493 88.02491185347247 l -51.75302285805211 -35.92526443958256 a84.0,84.0 0 0,0 0.834749520784487,-1.1806939986728553 l 51.12696071746375 36.810784938587204" fill="red" stroke="none" /><path d="M 82.95767976084542 87.72973835380427 l -9.445621037056284 -6.800731350488973 a32.639145315580684,32.639145315580684 0 0,0 0.33220026902571886,-0.45312079361691326 l 9.327158155516932 6.962314587777387" fill="red" stroke="none" /><path d="M 83.39014120810768 87.1503855733568 l -25.87546988162459 -20.017618165988953 a53.71459886097019,53.71459886097019 0 0,0 0.5720500403708435,-0.7264454586798331 l 25.527065760659777 20.460056018621835" fill="red" stroke="none" /><path d="M 83.6137871275137 86.86637796730984 l -24.977323712506404 -20.01943533755852 a53.01006858902401,53.01006858902401 0 0,0 0.5768038384631354,-0.707093303902237 l 24.629021381966876 20.44641281106884" fill="red" stroke="none" /><path d="M 83.84228863543731 86.58626213691792 l -12.78987130703387 -10.617839194192747 a37.62285526629598,37.62285526629598 0 0,0 0.41795299161604316,-0.4947245129136533 l 12.605207701930704 10.836422656735516" fill="red" stroke="none" /><path d="M 84.31358615837235 86.03803664274999 l -24.891468110445796 -22.15508077084754 a54.32315694312468,54.32315694312468 0 0,0 0.6277075949553264,-0.6931304042680344 l 24.506416874874425 22.58026396238513" fill="red" stroke="none" /><path d="M 84.5562425177563 85.77008943001954 l -21.76014797957533 -20.049846036167626 a50.58885543861139,50.58885543861139 0 0,0 0.59558181945416,-0.6353251592522384 l 21.411798838150712 20.421440612297914" fill="red" stroke="none" /><path d="M 85.05521093208273 85.24692304244772 l -14.288621805096772 -14.105327024018672 a41.07797209739067,41.07797209739067 0 0,0 0.5010812310989293,-0.4989294290494997 l 14.043704773830529 14.349192303718281" fill="red" stroke="none" /><path d="M 86.10567301691215 84.25364557470407 l -8.12887794718215 -9.212406861599263 a33.28605294078719,33.28605294078719 0 0,0 0.43288702270003726,-0.375395360345914 l 7.96909712583534 9.350967215364857" fill="red" stroke="none" /><path d="M 86.37877921826538 84.01681056812374 l -12.818658358708635 -15.041459799585816 a40.76267985420618,40.76267985420618 0 0,0 0.5379556902353311,-0.4505224197946579 l 12.557845131514194 15.259883376774285" fill="red" stroke="none" /><path d="M 87.22198572758235 83.33499621200491 l -12.015656059973669 -15.670741125007439 a40.747104039797364,40.747104039797364 0 0,0 0.5602801435570731,-0.42199138830166244 l 11.744129762658206 15.875249102814957" fill="red" stroke="none" /><path d="M 87.80319425747018 82.90503203632743 l -3.7415013691282173 -5.244065322632363 a27.441975908308226,27.441975908308226 0 0,0 0.3868911683212127,-0.27104198799475476 l 3.6506790612233444 5.30769215339106" fill="red" stroke="none" /><path d="M 88.39885842347998 82.49532879139004 l -13.63390572044126 -20.571857980643685 a45.67964193357866,45.67964193357866 0 0,0 0.6591637026781494,-0.42873840805312247 l 13.277774991978823 20.80349531285634" fill="red" stroke="none" /><path d="M 88.70189139769569 82.29822771554957 l -10.834873974817427 -16.975980545435576 a41.13897737049186,41.13897737049186 0 0,0 0.6001997503481162,-0.3758450286055611 l 10.541055072097068 17.159969915364066" fill="red" stroke="none" /><line stroke="#e1ed5e" stroke-width="0.3" x1="56.762969772571076" x2="54.21961505331055" y1="26.818313649435495" y2="22.513508569990535" /><path d="M 56.25429882871897 25.957352633546506 a86.0,86.0 0 0,1 42.265352541879196,-11.944610805530505" fill="none" id="id48" stroke="none" /><text fill="#e1ed5e" style="font-size:6.75px; font-family:Arial;" text-anchor="middle"><textPath startOffset="22.20632615414155" xlink:href="#id48">December</textPath></text><path d="M 89.63071344664047 81.73862282372117 l -11.485511040084525 -20.227162986188706 a44.26059084206044,44.26059084206044 0 0,0 0.6657549738307295,-0.3704919221391871 l 11.135631977181749 20.421870305888078" fill="red" stroke="none" /><path d="M 89.94658935756843 81.56283822128135 l -17.049316916184843 -31.267101820513744 a56.613352321325785,56.613352321325785 0 0,0 0.8595927533472852,-0.4591646792558736 l 16.508579116309253 31.55594522627137" fill="red" stroke="none" /><path d="M 90.58718382345135 81.22770947309562 l -10.101349698571276 -20.14545569559474 a43.53611880772722,43.53611880772722 0 0,0 0.6727962607597752,-0.33013820323274057 l 9.753082170801076 20.31634905896231" fill="red" stroke="none" /><path d="M 90.91171255644093 81.06846463323043 l -8.431793926476878 -17.564013673174305 a40.48306251927623,40.48306251927623 0 0,0 0.6308066728393975,-0.2961721910921268 l 8.128209042337872 17.70655084690644" fill="red" stroke="none" /><path d="M 91.56875222667455 80.76684994638697 l -9.079122203275565 -20.711064884505827 a43.61368321685394,43.61368321685394 0 0,0 0.6901683483594668,-0.2954940683512138 l 8.72127009712579 20.864278480819827" fill="red" stroke="none" /><path d="M 92.23578459929587 80.48803036053334 l -13.473639000477975 -33.860116127975786 a57.442371109948475,57.442371109948475 0 0,0 0.9218593383994697,-0.3576671013548745 l 12.888796497078829 34.08702593322121" fill="red" stroke="none" /><path d="M 92.91201910852362 80.23233633223022 l -7.75280795125794 -21.6217992694611 a43.969724307835236,43.969724307835236 0 0,0 0.714650389649532,-0.24932748842048416 l 7.379475557545122 21.752047611053793" fill="red" stroke="none" /><path d="M 94.28887869178378 79.79150937346287 l -4.566814004863751 -16.15942177198339 a37.792340580153514,37.792340580153514 0 0,0 0.6275366157845476,-0.17152946242691336 l 4.287979499855481 16.235637775236597" fill="red" stroke="none" /><path d="M 94.63758080256005 79.69619591428918 l -9.371134836871375 -35.482061133797956 a57.698703388994545,57.698703388994545 0 0,0 0.9624449015031186,-0.24534863512279392 l 8.758981046683258 35.63811276508961" fill="red" stroke="none" /><path d="M 95.692805502759 79.44645832069477 l -4.250790292383189 -20.284385926952783 a41.72499772119117,41.72499772119117 0 0,0 0.7042257503474922,-0.14126106050781395 l 3.9009981325685605 20.35455094353781" fill="red" stroke="none" /><path d="M 96.75951476605007 79.25152402106235 l -4.171625479327381 -26.710466119126302 a48.034264544107124,48.034264544107124 0 0,0 0.8180258572985255,-0.12055574717836406 l 3.7112306416002063 26.778316350465637" fill="red" stroke="none" /><path d="M 97.11714578562143 79.19881850522333 l -5.282672131525641 -38.117023482212666 a59.48134748151043,59.48134748151043 0 0,0 1.0153898571727484,-0.13182674534505476 l 4.625767545845035 38.20230855072185" fill="red" stroke="none" /><path d="M 97.83486435360386 79.11191278185805 l -2.419837290238462 -23.345314394664552 a44.47039234220341,44.47039234220341 0 0,0 0.762084609161799,-0.0723691163567184 l 2.0176275539864266 23.38350905553645" fill="red" stroke="none" /><path d="M 98.19473922651362 79.07773832637324 l -2.2309534800756583 -25.855872557230487 a46.95194210701786,46.95194210701786 0 0,0 0.8058066935171883,-0.06254610810411079 l 1.785556597196136 25.890443927523062" fill="red" stroke="none" /><path d="M 99.27714615592234 79.0124445844662 l -0.9385956468540038 -27.251467654934125 a48.26762643018666,48.26762643018666 0 0,0 0.8306016463920545,-0.021451990012755596 l 0.46936736526707035 27.26358643708924" fill="red" stroke="none" /><path d="M 99.63851952072746 79.00311137660856 l -0.2816882596311811 -16.362092431369 a37.364517011151804,37.364517011151804 0 0,0 0.6431687389037127,-0.0055359563913617935 l 4.0081506754598934e-15 16.364517011151804" fill="red" stroke="none" /></svg>