<?xml version="1.0" encoding="utf-8" ?>
<svg baseProfile="full" height="200mm" version="1.1" viewBox="0,0,200,200" width="200mm" xmlns="http://www.w3.org/2000/svg" xmlns:ev="http://www.w3.org/2001/xml-events" xmlns:xlink="http://www.w3.org/1999/xlink"><defs /><rect fill="#1a1a1a" height="200" width="200" x="0" y="0" /><rect fill="#1a1a1a" height="200" width="180" x="10" y="0" /><text alignment-baseline="middle" fill="#e1ed5e" style="dominant-baseline: central; font-size:9.0px; font-family:Arial;" text-anchor="middle" x="100.0" y="100.0">2023</text><line stroke="#e1ed5e" stroke-width="0.3" x1="100.0" x2="100.0" y1="15.0" y2="10.0" /><path d="M 100.0 14.0 a86.0,86.0 0 0,1 42.46469731375804,11.215312516191453" fill="none" id="id49" stroke="none" /><text fill="#e1ed5e" style="font-size:6.75px; font-family:Arial;" text-anchor="middle"><textPath startOffset="22.20632615414155" xlink:href="#id49">January</textPath></text><path d="M 100.36148047927253 79.00311137660856 l 0.4621782499811878 -26.84600080905799 a47.84997892317046,47.84997892317046 0 0,0 0.823414661396227,0.02126637139398381 l -0.9242195465722826 26.83406764552165" fill="red" stroke="none" /><path d="M 100.72285384407766 79.0124445844662 l 0.5630219989456503 -16.346949663266834 a37.35664259757107,37.35664259757107 0 0,0 0.6424616164413336,0.027665748657873353 l -0.8443244477763155 16.334836188084765" fill="red" stroke="none" /><path d="M 101.44485096284872 79.0497635885617 l 1.9179712929664803 -27.810447617916 a48.87650642726763,48.87650642726763 0 0,0 0.8388367821943734,0.06510987868793526 l -2.396398264523195 27.773312477039603" fill="red" stroke="none" /><path d="M 102.16513564639614 79.11191278185805 l 1.7675918792279448 -17.05279454469689 a38.14415885469907,38.14415885469907 0 0,0 0.6525072346296309,0.07331679061123177 l -2.060865817367301 17.01984180061506" fill="red" stroke="none" /><path d="M 102.88285421437855 79.19881850522331 l 3.4333834584204554 -24.7735151169145 a46.010301342057964,46.010301342057964 0 0,0 0.7835576657021418,0.11547603172106798 l -3.8593101045512532 24.710744601032463" fill="red" stroke="none" /><path d="M 103.2404852339499 79.25152402106235 l 3.3709096454166976 -21.583569359408724 a42.845216824970414,42.845216824970414 0 0,0 0.7276970237197248,0.1200762440624561 l -3.7419358752752974 21.522346852406645" fill="red" stroke="none" /><path d="M 103.95276090670814 79.375362276772 l 4.584487092736087 -23.920846129102447 a45.35619841920449,45.35619841920449 0 0,0 0.7655123932685781,0.15355458452298174 l -4.99556589547179 23.838387588502258" fill="red" stroke="none" /><path d="M 104.66035177308747 79.52364482259891 l 9.16029969587969 -40.247938189439985 a62.277204593084,62.277204593084 0 0,0 1.0432212103826517,0.2468967553720816 l -9.851744593224865 40.08429552192703" fill="red" stroke="none" /><path d="M 105.36241919743992 79.69619591428918 l 6.834108120516453 -25.876080789390013 a47.76334416364943,47.76334416364943 0 0,0 0.7931037584570908,0.21678521685436603 l -7.278509768197255 25.754609031709354" fill="red" stroke="none" /><path d="M 105.71112130821622 79.79150937346287 l 11.151520871895961 -39.45904715544013 a62.00454633539529,62.00454633539529 0 0,0 1.0245801963811045,0.2991030551625344 l -11.829091286000493 39.261245771358894" fill="red" stroke="none" /><path d="M 106.40334571778207 80.00007090966166 l 8.084659504383136 -25.251270809597678 a47.513928354762,47.513928354762 0 0,0 0.7767784660444222,0.2560916474423327 l -8.518120792669977 25.108365437896108" fill="red" stroke="none" /><path d="M 107.08798089147638 80.2323363322302 l 16.714887527689978 -46.616135109691655 a70.5222325590068,70.5222325590068 0 0,0 1.1391613195234176,0.41956272775832 l -17.514831172985975 46.32150911412701" fill="red" stroke="none" /><path d="M 108.09893153111575 80.62456947434976 l 15.648948598524708 -37.437668809186256 a61.576700680385365,61.576700680385365 0 0,0 0.9744256084655335,0.4171981923475795 l -16.291057964780556 37.162751088875886" fill="red" stroke="none" /><path d="M 108.76106565485865 80.91482961587045 l 12.670516954778503 -27.60154808369046 a51.370832331656736,51.370832331656736 0 0,0 0.8004597925044362,0.3758266055748372 l -13.143754958582537 27.379356495475623" fill="red" stroke="none" /><path d="M 109.41281617654863 81.2277094730956 l 21.3426699050664 -42.56439226720683 a68.61551267972743,68.61551267972743 0 0,0 1.051253409210622,0.5384928271016179 l -22.07218380186578 42.19070691479271" fill="red" stroke="none" /><path d="M 110.36928655335952 81.73862282372117 l 15.41611797361433 -27.149364950182974 a52.220901821930426,52.220901821930426 0 0,0 0.7778508915955775,0.45058144321315147 l -15.881165597675237 26.879979349579774" fill="red" stroke="none" /><line stroke="#e1ed5e" stroke-width="0.3" x1="143.23703022742887" x2="145.7803849466894" y1="26.81831364943548" y2="22.513508569990506" /><path d="M 143.74570117128098 25.957352633546492 a86.0,86.0 0 0,1 28.547481713284135,27.462654790039103" fill="none" id="id50" stroke="none" /><text fill="#e1ed5e" style="font-size:6.75px; font-family:Arial;" text-anchor="middle"><textPath startOffset="19.985693538727396" xlink:href="#id50">February</textPath></text><path d="M 110.68208982089419 81.91981866633111 l 16.35738374389966 -27.686011744222238 a53.15710262518072,53.15710262518072 0 0,0 0.7837835915579978,0.4722208440992306 l -16.831529401675297 27.400344290664393" fill="red" stroke="none" /><path d="M 110.99172775467656 82.1063720568725 l 13.353657026046578 -21.738654362372273 a46.512531224007745,46.512531224007745 0 0,0 0.6785975591296698,0.4249377292723395 l -13.725873737548513 21.50557229177699" fill="red" stroke="none" /><path d="M 111.60114157652 82.49532879139004 l 10.981911449650944 -16.570330419661474 a40.87909025344804,40.87909025344804 0 0,0 0.5831992160411582,0.39377871401619413 l -11.265515360098643 16.37883979334661" fill="red" stroke="none" /><path d="M 112.19680574252982 82.90503203632743 l 14.724067772737705 -20.637162891936537 a46.35134442203205,46.35134442203205 0 0,0 0.6455079890248554,0.4689890061937724 l -15.077121078116349 20.38065465092609" fill="red" stroke="none" /><path d="M 112.48926042617603 83.11751280151076 l 11.606573986781697 -15.689306657380333 a40.51581161776154,40.51581161776154 0 0,0 0.5570998303918779,0.4195960423604473 l -11.874919970931959 15.487194025514038" fill="red" stroke="none" /><path d="M 113.89432698308785 84.25364557470407 l 13.951018354656952 -15.810602404393443 a42.085683804937105,42.085683804937105 0 0,0 0.5390755487160699,0.4839873502625827 l -14.221104890969011 15.568116045361563" fill="red" stroke="none" /><path d="M 114.16331599549186 84.49514656593476 l 4.2883284090292095 -4.694515287260385 a27.358320086784595,27.358320086784595 0 0,0 0.3449651176951259,0.32060748124093963 l -4.368501410519182 4.620003219944805" fill="red" stroke="none" /><path d="M 114.42810811169701 84.74124197986012 l 17.07126933045538 -18.05409037646974 a45.84710075390454,45.84710075390454 0 0,0 0.5687589513419936,0.5471456605638713 l -17.37951152540979 17.757561629143567" fill="red" stroke="none" /><path d="M 114.94478906791727 85.2469230424477 l 19.822049332704808 -19.56777161141604 a48.85338984010245,48.85338984010245 0 0,0 0.5856259077141543,0.6035389758700406 l -20.155939504122074 19.223668439995883" fill="red" stroke="none" /><path d="M 115.4437574822437 85.77008943001954 l 32.250709137530784 -29.715871113176895 a64.85363423809426,64.85363423809426 0 0,0 0.7493879417635798,0.8274928823589286 l -32.7574407199104 29.15632544354842" fill="red" stroke="none" /><path d="M 115.9244219780498 86.31012108654704 l 21.08130182548282 -18.12313625741776 a48.800527952937074,48.800527952937074 0 0,0 0.5421259632212132,0.6417061451227709 l -21.390138402191152 17.757571162665883" fill="red" stroke="none" /><path d="M 116.38621287248628 86.86637796730983 l 18.627032930687587 -14.929649212167504 a44.871756981824646,44.871756981824646 0 0,0 0.47787549264592316,0.6068533466442406 l -18.881262503927477 14.606803471570226" fill="red" stroke="none" /><path d="M 116.60985879189232 87.15038557335679 l 21.873096438227307 -16.92132721111371 a48.65436063953693,48.65436063953693 0 0,0 0.5067561564228388,0.6668317005634924 l -22.161128534874262 16.542310734669183" fill="red" stroke="none" /><path d="M 117.2510076193507 88.02491185347247 l 28.33781880308089 -19.671191708626203 a55.49619917836991,55.49619917836991 0 0,0 0.5379842095757645,0.7894254437877098 l -28.672227478325386 19.18048824156809" fill="red" stroke="none" /><path d="M 117.65298651832404 88.62581576622439 l 17.746562162622975 -11.43447695630987 a42.11131762482444,42.11131762482444 0 0,0 0.387368783373209,0.612724388481872 l -17.94075854224214 11.127304920113792" fill="red" stroke="none" /><line stroke="#e1ed5e" stroke-width="0.3" x1="172.23445277983987" x2="176.4835382374775" y1="55.19839476539836" y2="52.563006222186495" /><path d="M 173.08426987136738 54.67131705675599 a86.0,86.0 0 0,1 12.851231095245387,41.99856678651699" fill="none" id="id51" stroke="none" /><text fill="#e1ed5e" style="font-size:6.75px; font-family:Arial;" text-anchor="middle"><textPath startOffset="22.20632615414155" xlink:href="#id51">March</textPath></text><path d="M 118.03404312379186 89.2402003453031 l 19.919173236848646 -11.884540357616006 a44.195166779986536,44.195166779986536 0 0,0 0.38416191099318664,0.6566572338004287 l -20.12079482231216 11.539903711461681" fill="red" stroke="none" /><path d="M 118.3937258080291 89.86733742301442 l 39.05127839759138 -21.512413054999143 a65.58459666673104,65.58459666673104 0 0,0 0.5362068601762566,0.9935098761979898 l -39.4157933569861 20.837022195468695" fill="red" stroke="none" /><path d="M 118.73160827565052 90.50648371742162 l 24.31001753379771 -12.32075451774628 a48.25395282119857,48.25395282119857 0 0,0 0.3691197312449616,0.7441228541985335 l -24.51849727799608 11.900472075048796" fill="red" stroke="none" /><path d="M 118.89224826269711 90.83032412892265 l 24.490227767713524 -11.88675098464597 a48.22252936605025,48.22252936605025 0 0,0 0.3560241928776849,0.7498777476895464 l -24.691210154432962 11.463430821315882" fill="red" stroke="none" /><path d="M 119.7369772167798 92.82701384747503 l 20.25475366152676 -7.361161029938111 a42.55091036587112,42.55091036587112 0 0,0 0.2442562453973192,0.6905452976379642 l -20.37846298773389 7.011418105873532" fill="red" stroke="none" /><path d="M 119.85752413597 93.16781622104841 l 14.941691021953593 -5.140841241400372 a36.80134105906241,36.80134105906241 0 0,0 0.2009400646981033,0.6007852173131433 l -15.027968380423466 4.8828829211649145" fill="red" stroke="none" /><path d="M 120.08093135843002 93.85539295169968 l 21.143303131620105 -6.469684454768253 a43.110994646551895,43.110994646551895 0 0,0 0.21102647711021463,0.7114763739344074 l -21.25153550584202 6.104778694087316" fill="red" stroke="none" /><path d="M 120.53481517161879 95.60439243477599 l 21.24820441096368 -4.548313061290414 a42.72954998138713,42.72954998138713 0 0,0 0.14776428594684116,0.7205511356948294 l -21.323347992825518 4.181886269432172" fill="red" stroke="none" /><path d="M 120.67395015179393 96.31383870115 l 28.295100314033714 -5.045010893364223 a49.74134368284466,49.74134368284466 0 0,0 0.14303748335665728,0.8442153236586694 l -28.377749658910595 4.557209781389716" fill="red" stroke="none" /><path d="M 120.78858239683441 97.02765380044208 l 45.83961266069589 -6.554136106075895 a67.30579649438717,67.30579649438717 0 0,0 0.15411104676424753,1.1483063026984446 l -45.94563970651798 5.764111461312786" fill="red" stroke="none" /><path d="M 120.87857604477298 97.74499172005257 l 27.66022124767613 -2.987465610917609 a48.82108535350139,48.82108535350139 0 0,0 0.08304902362572936,0.8362923342486557 l -27.70754739698409 2.5108977459645185" fill="red" stroke="none" /><path d="M 120.96714384426684 98.82574320788733 l 27.208924233589826 -1.5238252918319228 a48.25156145011251,48.25156145011251 0 0,0 0.03930524350053065,0.8296715679873072 l -27.23112308532385 1.0552426172216158" fill="red" stroke="none" /><line stroke="#e1ed5e" stroke-width="0.3" x1="184.98032266829074" x2="189.97916517819016" y1="98.17113171792111" y2="98.06355123074" /><path d="M 185.9800911702706 98.14961562048488 a86.0,86.0 0 0,1 -9.607161424134198,41.387399972396054" fill="none" id="id52" stroke="none" /><text fill="#e1ed5e" style="font-size:6.75px; font-family:Arial;" text-anchor="middle"><textPath startOffset="21.466115282336823" xlink:href="#id52">April</textPath></text><path d="M 120.99980553446 99.90962569577887 l 41.40389947709198 -0.17818491705285308 a62.40428289167442,62.40428289167442 0 0,0 -0.004622976763866602,1.0742169897541074 l -41.40083220303862 -0.5345415509049392" fill="red" stroke="none" /><path d="M 120.99824983174949 100.27111621757518 l 28.124333290838937 0.3631237329173558 a49.126677405971705,49.126677405971705 0 0,0 -0.018195438921786117,0.8454705490910399 l -28.113915789232145 -0.8471840977985104" fill="red" stroke="none" /><path d="M 120.95626037817324 101.35467743843564 l 27.69803610762272 1.7904866577747223 a48.75584707211872,48.75584707211872 0 0,0 -0.061347488803840604,0.8370377439216232 l -27.663112060154543 -2.266997538193116" fill="red" stroke="none" /><path d="M 120.8583938346157 102.4346265915055 l 20.924456224080505 2.442337504021816 a42.06651088236998,42.06651088236998 0 0,0 -0.09013950004560421,0.7185005044086764 l -20.879315214788054 -2.8021557627178875" fill="red" stroke="none" /><path d="M 120.5718875245553 104.21870165774334 l 24.738558880465305 5.073165952060891 a46.25338211526129,46.25338211526129 0 0,0 -0.16665745809509036,0.7785681610956281 l -24.64756738364577 -5.4982479325726885" fill="red" stroke="none" /><path d="M 120.41448212921028 104.9243191809786 l 37.28786867144374 8.99446607337007 a59.35734049701362,59.35734049701362 0 0,0 -0.24813823377016117,0.991188897129153 l -37.12751912337852 -9.634982809896618" fill="red" stroke="none" /><path d="M 119.79798401119884 107.00284435728193 l 24.83298919410697 8.783801328156777 a47.340700789598635,47.340700789598635 0 0,0 -0.2783537149774351,0.7659098754542726 l -24.678111218124304 -9.20995900061718" fill="red" stroke="none" /><path d="M 119.41010516605496 108.01547362559984 l 23.638154064177343 9.761461817869602 a46.57437124121549,46.57437124121549 0 0,0 -0.3123787852814451,0.7383711732038981 l -23.466624297703586 -10.166907516739665" fill="red" stroke="none" /><path d="M 119.12269723197855 108.67885076344098 l 23.169213691637715 10.515365353362977 a46.44376881681405,46.44376881681405 0 0,0 -0.33666288112103865,0.7251418949987875 l -22.984776193676844 -10.912627315640595" fill="red" stroke="none" /><line stroke="#e1ed5e" stroke-width="0.3" x1="174.80103733775053" x2="179.2010983576182" y1="140.37084112569926" y2="142.7455964860345" /><path d="M 175.68104954172406 140.8457921977663 a86.0,86.0 0 0,1 -30.038265399797805,32.042727171017184" fill="none" id="id53" stroke="none" /><text fill="#e1ed5e" style="font-size:6.75px; font-family:Arial;" text-anchor="middle"><textPath startOffset="22.206326154141568" xlink:href="#id53">May</textPath></text><path d="M 118.48025628344425 109.97397251340804 l 24.201638648221774 13.06185774452959 a48.501480705544374,48.501480705544374 0 0,0 -0.40284773388473244,0.7312856520350179 l -23.973214504885533 -13.476513914962412" fill="red" stroke="none" /><path d="M 117.35343817320211 111.8261652097733 l 26.94026431319009 18.35947513010655 a53.60135224676339,53.60135224676339 0 0,0 -0.526158767953838,0.7579709480127533 l -26.620244638074116 -18.82048734030632" fill="red" stroke="none" /><path d="M 116.0416608686014 113.55231037782055 l 19.49998096514407 16.47396716374205 a46.527257035432385,46.527257035432385 0 0,0 -0.5221188871202536,0.6073422222195205 l -19.213519568453034 -16.807186485123097" fill="red" stroke="none" /><path d="M 115.56566222782051 114.09645910891815 l 15.597391674634887 14.125193694252276 a42.04280694090296,42.04280694090296 0 0,0 -0.4904065037198368,0.532239403327085 l -15.351938762919328 -14.391584352380697" fill="red" stroke="none" /><path d="M 115.07121518719521 114.62390073753431 l 20.58047991406967 19.969650201125187 a49.676524940249024,49.676524940249024 0 0,0 -0.6007532963447019,0.6085599174707456 l -20.233685992669432 -20.320950612576596" fill="red" stroke="none" /><path d="M 114.29624159901734 115.38237550388516 l 18.159194993913538 19.53881055450613 a47.67435998692105,47.67435998692105 0 0,0 -0.60591943616134,0.5534930387222157 l -17.820176008285333 -19.848496359814927" fill="red" stroke="none" /><line stroke="#e1ed5e" stroke-width="0.3" x1="143.8653032363475" x2="146.44561519142675" y1="172.8068346515853" y2="177.08958963109032" /><path d="M 144.38136562736335 173.6633856474863 a86.0,86.0 0 0,1 -40.68145358897372,12.25698825130547" fill="none" id="id54" stroke="none" /><text fill="#e1ed5e" style="font-size:6.75px; font-family:Arial;" text-anchor="middle"><textPath startOffset="21.466115282336833" xlink:href="#id54">June</textPath></text><line stroke="#e1ed5e" stroke-width="0.3" x1="102.19456741930631" x2="102.32365962044197" y1="184.97166512339345" y2="189.96999836594603" /><path d="M 102.22038585953345 185.97133177190398 a86.0,86.0 0 0,1 -42.740103519485714,-10.115201625700543" fill="none" id="id55" stroke="none" /><text fill="#e1ed5e" style="font-size:6.75px; font-family:Arial;" text-anchor="middle"><textPath startOffset="22.20632615414155" xlink:href="#id55">July</textPath></text><path d="M 99.09653310690486 120.98055641714683 l -0.8057746006223756 18.711919160585673 a39.7292602998437,39.7292602998437 0 0,0 -0.6829874762547555,-0.0353026511614221 l 1.12775014529062 -18.69527670266205" fill="red" stroke="none" /><path d="M 93.76903079525671 120.05430185196036 l -6.269699871202013 20.17895605110157 a42.13053250127027,42.13053250127027 0 0,0 -0.6906972885780832,-0.22113946030122542 l 6.616118504871037 -20.068043744140635" fill="red" stroke="none" /><path d="M 92.40401165467489 119.57807347666478 l -4.57645893267614 11.795469552295298 a33.65215706200317,33.65215706200317 0 0,0 -0.5382404906121909,-0.21417699923235214 l 4.778820499330189 -11.71494570865688" fill="red" stroke="none" /><path d="M 90.42595943632237 118.69057910512821 l -9.601570770239855 18.744323968658865 a42.06038561607939,42.06038561607939 0 0,0 -0.6415392455273311,-0.33562301224265234 l 9.922800918293682 -18.576271537471495" fill="red" stroke="none" /><line stroke="#e1ed5e" stroke-width="0.3" x1="58.666819895761336" x2="56.23545636021788" y1="174.27360380694188" y2="178.64263932499728" /><path d="M 58.180547188652646 175.14741091055294 a86.0,86.0 0 0,1 -31.652253787137756,-30.449443065178592" fill="none" id="id56" stroke="none" /><text fill="#e1ed5e" style="font-size:6.75px; font-family:Arial;" text-anchor="middle"><textPath startOffset="22.20632615414155" xlink:href="#id56">August</textPath></text><path d="M 89.7882731507175 118.34994917583269 l -10.223035818122987 18.37027081256632 a42.02325643342752,42.02325643342752 0 0,0 -0.6290505941825834,-0.35719134458891094 l 10.537735179226777 -18.191576302182774" fill="red" stroke="none" /><path d="M 89.1626897886671 117.98757091392108 l -10.848034583655624 18.005371032576026 a42.02078115458406,42.02078115458406 0 0,0 -0.6163464109859212,-0.3786103060632402 l 11.156360194573853 -17.815972259684408" fill="red" stroke="none" /><path d="M 88.24862548938628 117.40417183066458 l -11.778732971405216 17.44469061016631 a42.04889025331485,42.04889025331485 0 0,0 -0.5963796414855943,-0.41019535549369396 l 12.0772694975137 -17.239354465307517" fill="red" stroke="none" /><path d="M 87.65650970185807 116.9893568818739 l -12.36386757169194 17.017403792776623 a42.03466788843465,42.03466788843465 0 0,0 -0.5817098215163458,-0.4303350192400689 l 12.65496236362685 -16.802058824796788" fill="red" stroke="none" /><path d="M 85.70375840098266 115.38237550388516 l -14.31333064823605 15.40076286606465 a42.02510240409043,42.02510240409043 0 0,0 -0.5256423075052803,-0.49702761068482754 l 14.576308790132147 -15.152100618633892" fill="red" stroke="none" /><path d="M 85.18274418774928 114.88116024355367 l -14.85568903558635 14.919759223174491 a42.05447011918231,42.05447011918231 0 0,0 -0.508577473575633,-0.5151862956555114 l 15.110307134217516 -14.661832433538315" fill="red" stroke="none" /><path d="M 84.67929136418377 114.36230785411682 l -15.338624383347446 14.379102865861801 a42.024557003667304,42.024557003667304 0 0,0 -0.49019362811602624,-0.5320083689025875 l 15.583864419459202 -14.11294324215787" fill="red" stroke="none" /><path d="M 84.19399662182784 113.82643327865904 l -8.377297889611055 7.328111196415102 a32.13015425042736,32.13015425042736 0 0,0 -0.36055769132188037,-0.41941005178641116 l 8.502198090503715 -7.18282404546716" fill="red" stroke="none" /><path d="M 83.95833913139862 113.55231037782056 l -4.5047116070762465 3.805668899356979 a26.897079144327336,26.897079144327336 0 0,0 -0.29574491264787234,-0.35624379907213705 l 4.569552519617655 -3.727563843171081" fill="red" stroke="none" /><path d="M 83.50135304334701 112.99209946851258 l -21.80940964719951 17.174136778028007 a48.75970682895937,48.75970682895937 0 0,0 -0.5135864164291145,-0.6638796753802759 l 22.101802880846694 -16.796179108534478" fill="red" stroke="none" /><path d="M 83.06392112726016 112.41649034213515 l -35.492570459796326 26.020967524008647 a65.00924117420249,65.00924117420249 0 0,0 -0.6538697818247265,-0.9081679378872952 l 35.935220033996664 -25.406165980670213" fill="red" stroke="none" /><line stroke="#e1ed5e" stroke-width="0.3" x1="26.63291911575756" x2="22.317208475507996" y1="142.92168965132927" y2="145.44649492493687" /><path d="M 25.769776987707644 143.4266507060508 a86.0,86.0 0 0,1 -11.730757126820373,-40.83630448921669" fill="none" id="id57" stroke="none" /><text fill="#e1ed5e" style="font-size:6.75px; font-family:Arial;" text-anchor="middle"><textPath startOffset="21.46611528233685" xlink:href="#id57">September</textPath></text><path d="M 81.51974371655577 109.97397251340807 l -24.09128499161249 13.002298811964328 a48.37608056210206,48.37608056210206 0 0,0 -0.3891913082322851,-0.7362032846015111 l 24.31152880806966 -12.585680512276692" fill="red" stroke="none" /><path d="M 81.18737489456691 109.33194174019688 l -19.594909613636105 9.719991436286387 a42.8732420159438,42.8732420159438 0 0,0 -0.3222572205040824,-0.6639453236741953 l 19.759320090754905 -9.381257156646907" fill="red" stroke="none" /><path d="M 80.73074385275274 108.34839909993369 l -19.723408558072542 8.545160487544809 a42.49494389168174,42.49494389168174 0 0,0 -0.2850176738776837,-0.6736975881870529 l 19.867577213142532 -8.204388373691598" fill="red" stroke="none" /><path d="M 80.58989483394504 108.01547362559985 l -25.607163286738878 10.574571348033626 a48.70466334010145,48.70466334010145 0 0,0 -0.31332727098674995,-0.7776525908066361 l 25.785393171983014 -10.132219389384185" fill="red" stroke="none" /><path d="M 80.20201598880116 107.00284435728193 l -25.47658725696365 9.011451631353516 a48.023374303848634,48.023374303848634 0 0,0 -0.26895186415133104,-0.781700010800738 l 25.62792995205821 -8.571578917463482" fill="red" stroke="none" /><path d="M 79.97269907076064 106.31721596034903 l -20.590183624009267 6.494766173219365 a42.59022115021553,42.59022115021553 0 0,0 -0.21451929289218882,-0.7010614611748955 l 20.698929689407585 -6.1393777394924225" fill="red" stroke="none" /><path d="M 79.76711848015287 105.62410040840567 l -26.43122246741561 7.347042927515572 a48.43334760653122,48.43334760653122 0 0,0 -0.21636311943696127,-0.8051676564809933 l 26.553773663194345 -6.89098433785904" fill="red" stroke="none" /><path d="M 79.50377843672027 104.57218783832718 l -26.97526489015934 6.0174982830691475 a48.63829230399381,48.63829230399381 0 0,0 -0.17525062580872985,-0.8187125798409032 l 27.074849554692513 -5.552271883812081" fill="red" stroke="none" /><path d="M 79.29508885075956 103.50808413554451 l -26.516574620252996 4.492768603728312 a47.894491988474,47.894491988474 0 0,0 -0.1307251550731688,-0.8140256654275403 l 26.589981529687456 -4.035663708607558" fill="red" stroke="none" /><path d="M 79.18660465613746 102.79330883721812 l -21.313754330492205 2.860460647676876 a42.50484500705558,42.50484500705558 0 0,0 -0.09107875595305448,-0.7259872981331582 l 21.359834595692107 -2.493155595256309" fill="red" stroke="none" /><path d="M 79.10278846688536 102.07522291339032 l -26.739096904927724 2.6553584191143775 a47.87062023149218,47.87062023149218 0 0,0 -0.07437134816758274,-0.8206816297647967 l 26.78084284937238 -2.194695400801015" fill="red" stroke="none" /><path d="M 79.04373962182676 101.35467743843564 l -14.593446210692825 0.9433654656839578 a35.6239054532717,35.6239054532717 0 0,0 -0.03428995832610394,-0.6122702406037143 l 14.60752251990646 -0.692023508744806" fill="red" stroke="none" /><path d="M 79.0095281055655 100.63252640178507 l -26.774726564688784 0.8068290002204419 a47.786880289601626,47.786880289601626 0 0,0 -0.017699207589122582,-0.8224126289657135 l 26.784647834962914 -0.3458265554645994" fill="red" stroke="none" /><line stroke="#e1ed5e" stroke-width="0.3" x1="15.007084014347285" x2="10.007500721073583" y1="101.09737516637583" y2="101.16192664675087" /><path d="M 14.007167355692545 101.11028546245083 a86.0,86.0 0 0,1 10.666146001902534,-42.60595125391555" fill="none" id="id58" stroke="none" /><text fill="#e1ed5e" style="font-size:6.75px; font-family:Arial;" text-anchor="middle"><textPath startOffset="22.20632615414155" xlink:href="#id58">October</textPath></text><path d="M 79.00019446554 99.90962569577889 l -15.489564209279745 -0.0666605500610423 a36.4897076480589,36.4897076480589 0 0,0 0.00810939075572054,-0.6280812508927041 l 15.486121811406308 0.33327805901421836" fill="red" stroke="none" /><path d="M 79.00486145842228 99.54816195383935 l -26.809201213044403 -0.5769629512680218 a47.81540892711945,47.81540892711945 0 0,0 0.02479184676794063,-0.8227206980214132 l 26.79529767182082 1.0383537967144294" fill="red" stroke="none" /><path d="M 79.03285615573316 98.82574320788736 l -22.00682388786423 -1.2324836713617235 a43.04130925402674,43.04130925402674 0 0,0 0.047795137819056456,-0.7393696274320529 l 21.98234815904076 1.611112363046788" fill="red" stroke="none" /><path d="M 79.08570108090925 98.10471618934814 l -26.77704745273316 -2.4265745043883102 a47.88677247479271,47.88677247479271 0 0,0 0.08145967402860625,-0.8202878007034524 l 26.731310653022327 2.887137835796193" fill="red" stroke="none" /><path d="M 79.32604984820605 96.31383870115002 l -33.588510690268535 -5.988824935893213 a55.11823668513747,55.11823668513747 0 0,0 0.174578552975087,-0.9326056107540952 l 33.48044641338359 6.566108624109881" fill="red" stroke="none" /><path d="M 79.46518482838121 95.60439243477599 l -26.73010732697314 -5.721749185650473 a48.33563702303268,48.33563702303268 0 0,0 0.18115647340689497,-0.8120889490683405 l 26.627656466564208 6.1810163042687725" fill="red" stroke="none" /><path d="M 79.71946130924805 94.55025226153421 l -26.299445715320672 -7.067136972812748 a48.23243048142409,48.23243048142409 0 0,0 0.22235892182572214,-0.7999433497767457 l 26.17390002292859 7.518791626008437" fill="red" stroke="none" /><path d="M 80.14247586403 93.16781622104843 l -46.33782426874402 -15.943001209670019 a70.00380847987779,70.00380847987779 0 0,0 0.40184492589663795,-1.1360697185294897 l 46.05652626203758 16.73826855462612" fill="red" stroke="none" /><path d="M 80.52162464483688 92.15188598940014 l -26.080454866682896 -10.50818559093924 a49.11782513756543,49.11782513756543 0 0,0 0.32272355506189965,-0.7815006867851522 l 25.895709624734796 10.955560848177702" fill="red" stroke="none" /><path d="M 81.10775173730289 90.83032412892265 l -17.67138788093537 -8.577110400365244 a40.642931870230655,40.642931870230655 0 0,0 0.3108990499604371,-0.6267535134030555 l 17.52112881802152 8.88002350226726" fill="red" stroke="none" /><path d="M 81.43458229118936 90.18545643968196 l -24.29840372279737 -12.84526669553004 a48.48478306182071,48.48478306182071 0 0,0 0.3964021220411447,-0.7344729290935612 l 24.073693501537754 13.261620607956074" fill="red" stroke="none" /><line stroke="#e1ed5e" stroke-width="0.3" x1="26.266209847984243" x2="21.928928074336255" y1="57.711370442889674" y2="55.22380399835377" /><path d="M 25.398753493254645 57.213857153982495 a86.0,86.0 0 0,1 29.58750427330803,-30.492523968695096" fill="none" id="id59" stroke="none" /><text fill="#e1ed5e" style="font-size:6.75px; font-family:Arial;" text-anchor="middle"><textPath startOffset="21.46611528233685" xlink:href="#id59">November</textPath></text><path d="M 82.34701348167596 88.62581576622439 l -17.63360131261438 -11.361693944898848 a41.976939351339766,41.976939351339766 0 0,0 0.3965888573658252,-0.6040320381657098 l 17.435415819890636 11.663544047042224" fill="red" stroke="none" /><path d="M 82.7489923806493 88.02491185347247 l -17.342073332708885 -12.038303001488652 a42.110856132158716,42.110856132158716 0 0,0 0.41847639257314245,-0.5919051799311406 l 17.132284320331863 12.335034681751578" fill="red" stroke="none" /><path d="M 83.84228863543731 86.58626213691792 l -16.204560312140522 -13.452630716642304 a42.06088906262382,42.06088906262382 0 0,0 0.46725519074312566,-0.5530827659660082 l 15.970594507910272 13.729572432237427" fill="red" stroke="none" /><path d="M 84.31358615837235 86.03803664274999 l -15.715506301016593 -13.987857602809363 a42.03894718406232,42.03894718406232 0 0,0 0.48576275600090146,-0.5363913678138974 l 15.472399904399646 14.256301757892816" fill="red" stroke="none" /><path d="M 84.80347519578584 85.50635884689758 l -15.25209312790361 -14.546639279543204 a42.07678958265214,42.07678958265214 0 0,0 0.5043919812665664,-0.5198202740020731 l 14.999436882933924 14.8070237490954" fill="red" stroke="none" /><path d="M 85.57189188830299 84.74124197986013 l -14.450082010558503 -15.281996992490969 a42.03198284019768,42.03198284019768 0 0,0 0.5299875087882969,-0.4925656292934172 l 14.184886617975351 15.528467207859034" fill="red" stroke="none" /><path d="M 86.37877921826538 84.01681056812374 l -13.640659596088208 -16.005999006518874 a42.02996905401994,42.02996905401994 0 0,0 0.5546804354839742,-0.464528912962472 l 13.363121623645123 16.238429076875157" fill="red" stroke="none" /><path d="M 86.93701828274178 83.55741782278169 l -13.084755542724963 -16.469989236517506 a42.03500351946427,42.03500351946427 0 0,0 0.5704098831812515,-0.44521396151460885 l 12.799313104384286 16.69278158725534" fill="red" stroke="none" /><path d="M 87.51073957382395 83.11751280151077 l -25.00690687720513 -33.803345500217944 a63.04772952933742,63.04772952933742 0 0,0 0.8780287521007004,-0.6379252292126372 l 24.421332808750645 34.22878996424725" fill="red" stroke="none" /><path d="M 88.09926311788651 82.69761687909137 l -11.933221917218084 -17.349612845306677 a42.057322982934096,42.057322982934096 0 0,0 0.6000084062626195,-0.4051283542883393 l 11.632808816548925 17.55245311189368" fill="red" stroke="none" /><path d="M 88.70189139769569 82.29822771554957 l -11.33872208137648 -17.76540510862669 a42.075489012412355,42.075489012412355 0 0,0 0.6138630470464431,-0.3844009837445802 l 11.031239881957793 17.9579504336942" fill="red" stroke="none" /><line stroke="#e1ed5e" stroke-width="0.3" x1="56.762969772571076" x2="54.21961505331055" y1="26.818313649435495" y2="22.513508569990535" /><path d="M 56.25429882871897 25.957352633546506 a86.0,86.0 0 0,1 42.265352541879196,-11.944610805530505" fill="none" id="id60" stroke="none" /><text fill="#e1ed5e" style="font-size:6.75px; font-family:Arial;" text-anchor="middle"><textPath startOffset="22.20632615414155" xlink:href="#id60">December</textPath></text><path d="M 89.3179101791058 81.91981866633112 l -13.887238192065272 -23.50511828174963 a48.30102507310297,48.30102507310297 0 0,0 0.7194627841971956,-0.41675928271644525 l 13.480578675402755 23.740681721856124" fill="red" stroke="none" /><path d="M 89.94658935756843 81.56283822128135 l -10.08551275419701 -18.496034518439416 a42.06705628279312,42.06705628279312 0 0,0 0.638728060654341,-0.3411864094479955 l 9.765639647014364 18.666899654389162" fill="red" stroke="none" /><path d="M 90.58718382345135 81.22770947309562 l -12.172807536089902 -24.276632551785184 a48.157542807939805,48.157542807939805 0 0,0 0.7442145881596133,-0.36518286632145047 l 11.753121680919863 24.482570578241464" fill="red" stroke="none" /><path d="M 91.90106846888425 80.62456947434976 l -8.121071268121696 -19.42839639337818 a42.0574068906915,42.0574068906915 0 0,0 0.6703472614094877,-0.2734514793462734 l 7.785440137123828 19.56530875890803" fill="red" stroke="none" /><path d="M 92.91201910852362 80.23233633223022 l -11.348848403602467 -31.650793320944032 a54.6239360862625,54.6239360862625 0 0,0 0.8878158283399195,-0.3097415097870419 l 10.802350571199263 31.841455683903284" fill="red" stroke="none" /><path d="M 95.692805502759 79.44645832069477 l -4.615236624949408 -22.02349078768473 a43.50187893442475,43.50187893442475 0 0,0 0.7342155783644813,-0.14727673787836792 l 4.23545463711779 22.099671481640307" fill="red" stroke="none" /><path d="M 96.75951476605007 79.25152402106235 l -6.482534982506524 -41.50696937545072 a63.010138854019814,63.010138854019814 0 0,0 1.0730657238902628,-0.15814199387571842 l 5.767100278187613 41.61240585348741" fill="red" stroke="none" /><path d="M 97.47563105711357 79.15227682838746 l -4.044671634466986 -33.40327680431104 a54.647262442821194,54.647262442821194 0 0,0 0.934815058643059,-0.10503736399745002 l 3.4690898723142083 33.46795012177909" fill="red" stroke="none" /><path d="M 99.27714615592234 79.0124445844662 l -2.1685615322329856 -62.9626662466014 a84.0,84.0 0 0,0 1.445493459220484,-0.03733283143056143 l 1.0844414378176228 62.990665870174325" fill="red" stroke="none" /></svg>