<?xml version="1.0" encoding="utf-8" ?>
<svg baseProfile="full" height="200mm" version="1.1" viewBox="0,0,200,200" width="200mm" xmlns="http://www.w3.org/2000/svg" xmlns:ev="http://www.w3.org/2001/xml-events" xmlns:xlink="http://www.w3.org/1999/xlink"><defs /><rect fill="#1a1a1a" height="200" width="200" x="0" y="0" /><rect fill="#1a1a1a" height="200" width="180" x="10" y="0" /><text alignment-baseline="middle" fill="#e1ed5e" style="dominant-baseline: central; font-size:9.0px; font-family:Arial;" text-anchor="middle" x="100.0" y="100.0">2019</text><line stroke="#e1ed5e" stroke-width="0.3" x1="100.0" x2="100.0" y1="15.0" y2="10.0" /><path d="M 100.0 14.0 a86.0,86.0 0 0,1 42.46469731375804,11.215312516191453" fill="none" id="id1" stroke="none" /><text fill="#e1ed5e" style="font-size:6.75px; font-family:Arial;" text-anchor="middle"><textPath startOffset="22.20632615414155" xlink:href="#id1">January</textPath></text><line stroke="#e1ed5e" stroke-width="0.3" x1="143.23703022742887" x2="145.7803849466894" y1="26.81831364943548" y2="22.513508569990506" /><path d="M 143.74570117128098 25.957352633546492 a86.0,86.0 0 0,1 28.547481713284135,27.462654790039103" fill="none" id="id2" stroke="none" /><text fill="#e1ed5e" style="font-size:6.75px; font-family:Arial;" text-anchor="middle"><textPath startOffset="19.985693538727396" xlink:href="#id2">February</textPath></text><line stroke="#e1ed5e" stroke-width="0.3" x1="172.23445277983987" x2="176.4835382374775" y1="55.19839476539836" y2="52.563006222186495" /><path d="M 173.08426987136738 54.67131705675599 a86.0,86.0 0 0,1 12.851231095245387,41.99856678651699" fill="none" id="id3" stroke="none" /><text fill="#e1ed5e" style="font-size:6.75px; font-family:Arial;" text-anchor="middle"><textPath startOffset="22.20632615414155" xlink:href="#id3">March</textPath></text><line stroke="#e1ed5e" stroke-width="0.3" x1="184.98032266829074" x2="189.97916517819016" y1="98.17113171792111" y2="98.06355123074" /><path d="M 185.9800911702706 98.14961562048488 a86.0,86.0 0 0,1 -9.607161424134198,41.387399972396054" fill="none" id="id4" stroke="none" /><text fill="#e1ed5e" style="font-size:6.75px; font-family:Arial;" text-anchor="middle"><textPath startOffset="21.466115282336823" xlink:href="#id4">April</textPath></text><line stroke="#e1ed5e" stroke-width="0.3" x1="174.80103733775053" x2="179.2010983576182" y1="140.37084112569926" y2="142.7455964860345" /><path d="M 175.68104954172406 140.8457921977663 a86.0,86.0 0 0,1 -30.038265399797805,32.042727171017184" fill="none" id="id5" stroke="none" /><text fill="#e1ed5e" style="font-size:6.75px; font-family:Arial;" text-anchor="middle"><textPath startOffset="22.206326154141568" xlink:href="#id5">May</textPath></text><line stroke="#e1ed5e" stroke-width="0.3" x1="143.8653032363475" x2="146.44561519142675" y1="172.8068346515853" y2="177.08958963109032" /><path d="M 144.38136562736335 173.6633856474863 a86.0,86.0 0 0,1 -40.68145358897372,12.25698825130547" fill="none" id="id6" stroke="none" /><text fill="#e1ed5e" style="font-size:6.75px; font-family:Arial;" text-anchor="middle"><textPath startOffset="21.466115282336833" xlink:href="#id6">June</textPath></text><line stroke="#e1ed5e" stroke-width="0.3" x1="102.19456741930631" x2="102.32365962044197" y1="184.97166512339345" y2="189.96999836594603" /><path d="M 102.22038585953345 185.97133177190398 a86.0,86.0 0 0,1 -42.740103519485714,-10.115201625700543" fill="none" id="id7" stroke="none" /><text fill="#e1ed5e" style="font-size:6.75px; font-family:Arial;" text-anchor="middle"><textPath startOffset="22.20632615414155" xlink:href="#id7">July</textPath></text><line stroke="#e1ed5e" stroke-width="0.3" x1="58.666819895761336" x2="56.23545636021788" y1="174.27360380694188" y2="178.64263932499728" /><path d="M 58.180547188652646 175.14741091055294 a86.0,86.0 0 0,1 -31.652253787137756,-30.449443065178592" fill="none" id="id8" stroke="none" /><text fill="#e1ed5e" style="font-size:6.75px; font-family:Arial;" text-anchor="middle"><textPath startOffset="22.20632615414155" xlink:href="#id8">August</textPath></text><line stroke="#e1ed5e" stroke-width="0.3" x1="26.63291911575756" x2="22.317208475507996" y1="142.92168965132927" y2="145.44649492493687" /><path d="M 25.769776987707644 143.4266507060508 a86.0,86.0 0 0,1 -11.730757126820373,-40.83630448921669" fill="none" id="id9" stroke="none" /><text fill="#e1ed5e" style="font-size:6.75px; font-family:Arial;" text-anchor="middle"><textPath startOffset="21.46611528233685" xlink:href="#id9">September</textPath></text><path d="M 79.1416061653843 102.43462659150553 l -13.101124972174985 1.5291852042298952 a34.19006758608092,34.19006758608092 0 0,0 -0.06319903501024514,-0.5851445735926368 l 13.125506308686282 -1.3034443087524763" fill="red" stroke="none" /><path d="M 79.10278846688536 102.07522291339032 l -19.15814707803329 1.9025230103755715 a40.252381496027034,40.252381496027034 0 0,0 -0.06253572367224115,-0.6900764997053829 l 19.18805739798261 -1.5724651221216224" fill="red" stroke="none" /><path d="M 79.07016306316243 101.71520430193888 l -13.008747174574287 1.0660694196519833 a34.05235637957804,34.05235637957804 0 0,0 -0.04284668767318697,-0.5846090114487521 l 13.02517042091181 -0.8419872717064706" fill="red" stroke="none" /><path d="M 79.0235259727143 100.99374915477108 l -28.866072866610327 1.3675146488127978 a49.898447346789666,49.898447346789666 0 0,0 -0.03326056366151003,-0.8583073581111662 l 28.88533556312304 -0.8704300436876348" fill="red" stroke="none" /><line stroke="#e1ed5e" stroke-width="0.3" x1="15.007084014347285" x2="10.007500721073583" y1="101.09737516637583" y2="101.16192664675087" /><path d="M 14.007167355692545 101.11028546245083 a86.0,86.0 0 0,1 10.666146001902534,-42.60595125391555" fill="none" id="id10" stroke="none" /><text fill="#e1ed5e" style="font-size:6.75px; font-family:Arial;" text-anchor="middle"><textPath startOffset="22.20632615414155" xlink:href="#id10">October</textPath></text><path d="M 79.00175016825051 100.2711162175752 l -36.9018494012105 0.47645350976150647 a57.90492510731574,57.90492510731574 0 0,0 -0.004289659473360768,-0.9967657900771745 l 36.904583357973365 0.1588217585193434" fill="red" stroke="none" /><path d="M 79.01574976396665 99.18683210126434 l -6.501782785024328 -0.25195282108555755 a27.50666270892319,27.50666270892319 0 0,0 0.022406654689897578,-0.4729690665742485 l 6.496482522100932 0.3638329942828151" fill="red" stroke="none" /><path d="M 79.05617556472873 98.46500227214037 l -49.90293216073201 -3.6574450725080716 a71.03678189789022,71.03678189789022 0 0,0 0.09987607873033404,-1.2187411373407746 l 49.83258159818217 4.515900127056624" fill="red" stroke="none" /><path d="M 79.12142395522702 97.74499172005258 l -27.825150408559857 -3.005278924555468 a48.98697369622796,48.98697369622796 0 0,0 0.09776317976339949,-0.8375752212450448 l 27.769296875792868 3.4837978841253743" fill="red" stroke="none" /><path d="M 79.16333360222342 97.38593545837743 l -23.418745945543797 -2.9379994005204977 a44.60231984656133,44.60231984656133 0 0,0 0.10212657092975479,-0.7609615763042067 l 23.364703375556207 3.3406793188893635" fill="red" stroke="none" /><path d="M 79.21141760316559 97.0276538004421 l -32.40125274622876 -4.632722839044253 a53.730769933327245,53.730769933327245 0 0,0 0.13878940999293998,-0.9144488031441643 l 32.31670744279651 5.189770754580509" fill="red" stroke="none" /><path d="M 79.26566170972629 96.67025291283419 l -28.832641721137406 -4.630261329887144 a50.20206411544434,50.20206411544434 0 0,0 0.14436234284638547,-0.8520347193630645 l 28.748667516770798 5.125881837566037" fill="red" stroke="none" /><path d="M 79.3925641242962 95.95851677861259 l -29.792557199542763 -5.842848220924748 a51.36009452918075,51.36009452918075 0 0,0 0.17760982031340672,-0.8660885606919884 l 29.687568083314364 6.354812437780139" fill="red" stroke="none" /><path d="M 79.54389044137918 95.25157060432595 l -31.96923361888461 -7.4209442532589485 a53.819236916613384,53.819236916613384 0 0,0 0.2172431431200523,-0.900613079681892 l 31.83675767550374 7.970142564600238" fill="red" stroke="none" /><path d="M 79.62865764111835 94.90015583598534 l -35.64101143727618 -8.922514823807166 a57.74088957895698,57.74088957895698 0 0,0 0.24967069404003991,-0.9620830312221622 l 35.48214441136582 9.534694280578194" fill="red" stroke="none" /><path d="M 79.71946130924805 94.55025226153421 l -31.755509759307092 -8.533280113191877 a53.882050872225776,53.882050872225776 0 0,0 0.24840454064037215,-0.8936432984477021 l 31.60391844810036 9.078634715058522" fill="red" stroke="none" /><path d="M 79.81627453868168 94.20196356495316 l -25.176704272635995 -7.232334237150716 a47.19490592748197,47.19490592748197 0 0,0 0.23101704836728063,-0.7788746423679437 l 25.048481327157006 7.664638266265199" fill="red" stroke="none" /><path d="M 80.02781315780177 93.51064311812611 l -57.475307722175565 -18.674859525982086 a81.43311489633757,81.43311489633757 0 0,0 0.4446353014575362,-1.3294029571086396 l 57.14533512694626 19.66143558601305" fill="red" stroke="none" /><path d="M 80.2630227832202 92.82701384747504 l -31.080286165831726 -11.295471430877884 a54.06919810028313,54.06919810028313 0 0,0 0.3254332639653477,-0.8719993521877611 l 30.881248313364754 11.828793920094986" fill="red" stroke="none" /><path d="M 80.38941819471856 92.48833698450439 l -36.27487474353001 -13.894775673066777 a59.844965293634125,59.844965293634125 0 0,0 0.3767566866154651,-0.9588046726200812 l 36.03032450703285 14.517129350582621" fill="red" stroke="none" /><path d="M 80.52162464483688 92.15188598940014 l -18.16568869746005 -7.3192139169318144 a40.58476801534387,40.58476801534387 0 0,0 0.2666579918510506,-0.6457334783894992 l 18.037009018722802 7.630821965774625" fill="red" stroke="none" /><path d="M 80.65960295795068 91.81776055985345 l -19.917614892393253 -8.426439941841116 a42.626749018175175,42.626749018175175 0 0,0 0.29170761157696,-0.6733013863248116 l 19.769616570973614 8.768040472752526" fill="red" stroke="none" /><path d="M 80.95270993114464 91.15688171328213 l -32.93503301624151 -15.290804712204643 a57.31150105032424,57.31150105032424 0 0,0 0.42312755411822023,-0.8912145399528089 l 32.66694726828155 15.855461667797984" fill="red" stroke="none" /><path d="M 81.26839172434947 90.50648371742162 l -31.35606899061026 -15.891820239854525 a56.153278838250074,56.153278838250074 0 0,0 0.44438786857366447,-0.8584159162666539 l 31.077871688876485 16.429208878381516" fill="red" stroke="none" /><path d="M 81.43458229118936 90.18545643968196 l -31.988677618394032 -16.91070326813627 a57.18352360946206,57.18352360946206 0 0,0 0.467521326756854,-0.8662460142964953 l 31.692848192418705 17.45883026576524" fill="red" stroke="none" /><path d="M 81.6062741919709 89.86733742301443 l -24.425612953601654 -13.455484597191173 a48.88656726641703,48.88656726641703 0 0,0 0.41237532546139827,-0.7335696899204946 l 24.190379986847827 13.873937797046453" fill="red" stroke="none" /><line stroke="#e1ed5e" stroke-width="0.3" x1="26.266209847984243" x2="21.928928074336255" y1="57.711370442889674" y2="55.22380399835377" /><path d="M 25.398753493254645 57.213857153982495 a86.0,86.0 0 0,1 29.58750427330803,-30.492523968695096" fill="none" id="id11" stroke="none" /><text fill="#e1ed5e" style="font-size:6.75px; font-family:Arial;" text-anchor="middle"><textPath startOffset="21.46611528233685" xlink:href="#id11">November</textPath></text><path d="M 81.96595687620814 89.24020034530311 l -21.351086561176675 -12.738874595751117 a45.862578774317285,45.862578774317285 0 0,0 0.41032638102609975,-0.6744686823494461 l 21.12864438186436 13.104511051307638" fill="red" stroke="none" /><path d="M 82.15384107792192 88.93136811851018 l -17.625506463947083 -10.931777735818372 a41.740353000274,41.740353000274 0 0,0 0.3839563963145225,-0.6073268116415582 l 17.434722471386596 11.233552195174145" fill="red" stroke="none" /><path d="M 82.54541684631803 88.32363383020206 l -30.508854575703452 -20.40911285652119 a57.70588638231803,57.70588638231803 0 0,0 0.5594050787780643,-0.8208579261456589 l 30.153025031256647 20.931248805937265" fill="red" stroke="none" /><path d="M 82.95767976084542 87.72973835380427 l -17.438220700642297 -12.555305125025756 a42.48783907206138,42.48783907206138 0 0,0 0.4324399868192176,-0.5898476560355861 l 17.219518101309447 12.853615224732842" fill="red" stroke="none" /><path d="M 83.39014120810768 87.1503855733568 l -15.376445175055352 -11.89542874671059 a40.44058361494201,40.44058361494201 0 0,0 0.4306843573276236,-0.546925397124823 l 15.169406737133757 12.15834653778846" fill="red" stroke="none" /><path d="M 83.6137871275137 86.86637796730984 l -22.01737406206166 -17.647022611857363 a49.21670015526533,49.21670015526533 0 0,0 0.5355281047858178,-0.6564941349115322 l 21.710347465199447 18.023400916376975" fill="red" stroke="none" /><path d="M 84.07557802195018 86.31012108654704 l -22.20478042667219 -19.08896635368989 a50.28209197186958,50.28209197186958 0 0,0 0.5698831907443883,-0.6514750012913616 l 21.87290537234996 19.468356911184195" fill="red" stroke="none" /><path d="M 84.5562425177563 85.77008943001954 l -27.850635253718593 -25.66163379820075 a58.870533838706734,58.870533838706734 0 0,0 0.6930818922843982,-0.7393314389515527 l 27.404786039463737 26.13723465403035" fill="red" stroke="none" /><path d="M 89.00827224532344 82.1063720568725 l -25.15139512903082 -40.94440080159263 a69.05243629555211,69.05243629555211 0 0,0 1.0181549379615316,-0.6134269579084738 l 24.44287812485164 41.37127436895972" fill="red" stroke="none" /><line stroke="#e1ed5e" stroke-width="0.3" x1="56.762969772571076" x2="54.21961505331055" y1="26.818313649435495" y2="22.513508569990535" /><path d="M 56.25429882871897 25.957352633546506 a86.0,86.0 0 0,1 42.265352541879196,-11.944610805530505" fill="none" id="id12" stroke="none" /><text fill="#e1ed5e" style="font-size:6.75px; font-family:Arial;" text-anchor="middle"><textPath startOffset="22.20632615414155" xlink:href="#id12">December</textPath></text><path d="M 89.3179101791058 81.91981866633112 l -12.232036760907823 -20.703574527592195 a45.0470522422139,45.0470522422139 0 0,0 0.6709935778176159,-0.3886827899105958 l 11.873846450624887 20.911061474892836" fill="red" stroke="none" /><path d="M 91.56875222667455 80.76684994638697 l -9.654756660515373 -22.024187709237683 a45.0474358388894,45.0474358388894 0 0,0 0.7128568856743771,-0.30520811596301367 l 9.274216017050687 22.187115353163485" fill="red" stroke="none" /><path d="M 93.59665428221793 80.00007090966166 l -19.21003715334623 -59.99978727101503 a84.0,84.0 0 0,0 1.380858509157085,-0.42903946046989905 l 18.17439327147842 60.321566866367455" fill="red" stroke="none" /><path d="M 93.94186890950719 79.89281104454417 l -4.175581655017837 -13.858929112335995 a35.47430130605535,35.47430130605535 0 0,0 0.5861871225060962,-0.17112409536880913 l 3.9364043147883185 13.928751536623503" fill="red" stroke="none" /><path d="M 96.40284397218896 79.31037775812273 l -9.222907318954125 -53.0470368607069 a74.84282811215635,74.84282811215635 0 0,0 1.2711548055987492,-0.2097514345984544 l 8.30842330721649 53.19793455824499" fill="red" stroke="none" /><path d="M 98.55514903715128 79.0497635885617 l -1.6524501420869584 -23.960409775815364 a45.017323499863004,45.017323499863004 0 0,0 0.7735218465911647,-0.04666095018291046 l 1.2397662466561707 23.98530399537858" fill="red" stroke="none" /></svg>