<?xml version="1.0" encoding="utf-8" ?>
<svg baseProfile="full" height="200mm" version="1.1" viewBox="0,0,200,200" width="200mm" xmlns="http://www.w3.org/2000/svg" xmlns:ev="http://www.w3.org/2001/xml-events" xmlns:xlink="http://www.w3.org/1999/xlink"><defs /><rect fill="#1a1a1a" height="200" width="200" x="0" y="0" /><rect fill="#1a1a1a" height="200" width="180" x="10" y="0" /><text alignment-baseline="middle" fill="#e1ed5e" style="dominant-baseline: central; font-size:9.0px; font-family:Arial;" text-anchor="middle" x="100.0" y="100.0">2021</text><line stroke="#e1ed5e" stroke-width="0.3" x1="100.0" x2="100.0" y1="15.0" y2="10.0" /><path d="M 100.0 14.0 a86.0,86.0 0 0,1 42.46469731375804,11.215312516191453" fill="none" id="id25" stroke="none" /><text fill="#e1ed5e" style="font-size:6.75px; font-family:Arial;" text-anchor="middle"><textPath startOffset="22.20632615414155" xlink:href="#id25">January</textPath></text><line stroke="#e1ed5e" stroke-width="0.3" x1="143.23703022742887" x2="145.7803849466894" y1="26.81831364943548" y2="22.513508569990506" /><path d="M 143.74570117128098 25.957352633546492 a86.0,86.0 0 0,1 28.547481713284135,27.462654790039103" fill="none" id="id26" stroke="none" /><text fill="#e1ed5e" style="font-size:6.75px; font-family:Arial;" text-anchor="middle"><textPath startOffset="19.985693538727396" xlink:href="#id26">February</textPath></text><line stroke="#e1ed5e" stroke-width="0.3" x1="172.23445277983987" x2="176.4835382374775" y1="55.19839476539836" y2="52.563006222186495" /><path d="M 173.08426987136738 54.67131705675599 a86.0,86.0 0 0,1 12.851231095245387,41.99856678651699" fill="none" id="id27" stroke="none" /><text fill="#e1ed5e" style="font-size:6.75px; font-family:Arial;" text-anchor="middle"><textPath startOffset="22.20632615414155" xlink:href="#id27">March</textPath></text><path d="M 117.84615892207809 88.93136811851018 l 12.35132789807576 -7.660600936498698 a35.5341015392789,35.5341015392789 0 0,0 0.3179188714916037,0.5225750335933894 l -12.481362567853587 7.446858129698227" fill="red" stroke="none" /><path d="M 118.03404312379186 89.2402003453031 l 13.613853097092274 -8.122545279928786 a36.852846368198435,36.852846368198435 0 0,0 0.3203395510831409,0.5475641323922329 l -13.751652322645741 7.887001735182658" fill="red" stroke="none" /><path d="M 118.3937258080291 89.86733742301442 l 5.383348182118465 -2.9655574532933624 a27.146134448472633,27.146134448472633 0 0,0 0.22194149630139892,0.4112238855749039 l -5.4335977776383295 2.8724525843859996" fill="red" stroke="none" /><path d="M 118.73160827565052 90.50648371742162 l 11.309180854478145 -5.731696446170931 a33.67871901062341,33.67871901062341 0 0,0 0.2576261421720168,0.5193585820585013 l -11.40616700960357 5.536178275613479" fill="red" stroke="none" /><path d="M 119.196687751892 91.48605970444005 l 12.707759971961986 -5.6360300844570155 a34.901510659561566,34.901510659561566 0 0,0 0.23884149153827164,0.5512790924283987 l -12.802892173342938 5.416451847442014" fill="red" stroke="none" /><path d="M 119.47837535516314 92.15188598940014 l 13.362362056962164 -5.383885409424297 a35.40621191858408,35.40621191858408 0 0,0 0.22290140904248712,0.5672597729942073 l -13.453057015886351 5.153076631534306" fill="red" stroke="none" /><path d="M 119.7369772167798 92.82701384747503 l 11.903506605272844 -4.326077246191523 a33.66524432617825,33.66524432617825 0 0,0 0.1932495946336108,0.5463426272994997 l -11.976209280716265 4.120536992465409" fill="red" stroke="none" /><path d="M 120.08093135843002 93.85539295169968 l 16.120005221478127 -4.932594805218062 a37.85778929317087,37.85778929317087 0 0,0 0.1853122613202715,0.6247808215121372 l -16.2025233799101 4.654384596959395" fill="red" stroke="none" /><path d="M 120.28053869075195 94.5502522615342 l 13.519762245892263 -3.633004766177381 a34.999381944090295,34.999381944090295 0 0,0 0.15133677441884263,0.5831623259913438 l -13.580295352181409 3.399746014637187" fill="red" stroke="none" /><path d="M 120.53481517161879 95.60439243477599 l 19.664092005421473 -4.20922374318492 a41.10955193230004,41.10955193230004 0 0,0 0.14216212409250611,0.6932330049258048 l -19.733633425428977 3.870115082095704" fill="red" stroke="none" /><path d="M 120.78858239683441 97.02765380044208 l 21.716174922367067 -3.104973141856063 a42.93702603979153,42.93702603979153 0 0,0 0.0983135238357642,0.7325499464928186 l -21.76640444526067 2.73070485329858" fill="red" stroke="none" /><path d="M 120.87857604477298 97.74499172005257 l 34.80610235856953 -3.7592625494649936 a56.00852490909935,56.00852490909935 0 0,0 0.09527549981197718,0.9594112809025332 l -34.86565498406374 3.1595757378580256" fill="red" stroke="none" /><path d="M 120.96714384426684 98.82574320788733 l 15.130993535887677 -0.8474054483957427 a36.154704265575276,36.154704265575276 0 0,0 0.029451263589000326,0.6216696263632994 l -15.143338407710173 0.5868247154094436" fill="red" stroke="none" /><line stroke="#e1ed5e" stroke-width="0.3" x1="184.98032266829074" x2="189.97916517819016" y1="98.17113171792111" y2="98.06355123074" /><path d="M 185.9800911702706 98.14961562048488 a86.0,86.0 0 0,1 -9.607161424134198,41.387399972396054" fill="none" id="id28" stroke="none" /><text fill="#e1ed5e" style="font-size:6.75px; font-family:Arial;" text-anchor="middle"><textPath startOffset="21.466115282336823" xlink:href="#id28">April</textPath></text><path d="M 120.99980553446 99.90962569577887 l 13.27877095742963 -0.05714622853150679 a34.278893923490465,34.278893923490465 0 0,0 -0.002539417532838705,0.5900712024287195 l -13.277787242607287 -0.17143445210089742" fill="red" stroke="none" /><path d="M 120.9904718944345 100.63252640178507 l 19.67235735941673 0.5928063684209585 a40.681287139489584,40.681287139489584 0 0,0 -0.02711672632479196,0.6997622159781016 l -19.659238500240736 -0.9313458314130661" fill="red" stroke="none" /><path d="M 120.92983693683757 101.71520430193887 l 14.200029884760532 1.1636952748128715 a35.24763262513159,35.24763262513159 0 0,0 -0.05476039260344042,0.6042763692690465 l -14.177894895880016 -1.4079530326304885" fill="red" stroke="none" /><path d="M 120.8583938346157 102.4346265915055 l 24.50820830385712 2.8606390367269623 a45.6745928023888,45.6745928023888 0 0,0 -0.09787084485106046,0.7801269294461716 l -24.45533594975921 -3.2820837204605287" fill="red" stroke="none" /><path d="M 120.76222939487914 103.15116336523771 l 43.18893344681388 6.5549504474146785 a64.68353634541714,64.68353634541714 0 0,0 -0.17654984881081653,1.0993760770749457 l -43.069701843641774 -7.2974057541828286" fill="red" stroke="none" /><path d="M 120.64145759157962 103.86396538481128 l 15.258703683094874 2.856343966359356 a36.52374758048618,36.52374758048618 0 0,0 -0.12099807462639757,0.6169665757244206 l -15.207275675492811 -3.1185742691517215" fill="red" stroke="none" /><path d="M 120.49622156327973 104.57218783832717 l 12.21763555553342 2.7254450059323396 a33.51793389694146,33.51793389694146 0 0,0 -0.13046366418633976,0.5620340507634306 l -12.168911325416527 -2.9353477140443354" fill="red" stroke="none" /><path d="M 120.32669344350535 105.2749913415812 l 17.61278435129497 4.570703307571309 a39.196194693700775,39.196194693700775 0 0,0 -0.1750985916332521,0.6516069977422574 l -17.53149768331994 -4.873201238489115" fill="red" stroke="none" /><path d="M 120.02730092923936 106.31721596034902 l 15.188847633833529 4.791021567548137 a36.92654953543051,36.92654953543051 0 0,0 -0.19642770125428538,0.6045423023954973 l -15.104127681562996 -5.051762769921429" fill="red" stroke="none" /><path d="M 119.79798401119884 107.00284435728193 l 27.916034940370533 9.874320923245413 a50.61093076023161,50.61093076023161 0 0,0 -0.2975820036587095,0.8188178676837549 l -27.741928675706596 -10.353386587935299" fill="red" stroke="none" /><path d="M 119.54520255179757 107.68017299344265 l 47.12116900052793 18.515987676168532 a71.62851338524902,71.62851338524902 0 0,0 -0.46080118585602453,1.143670753264452 l -46.79546520041451 -19.3243577972758" fill="red" stroke="none" /><path d="M 118.97047184881838 109.00673069616215 l 14.642485554791426 6.951905317139773 a37.208990430028386,37.208990430028386 0 0,0 -0.27968180781115437,0.5762273631060765 l -14.520650490365556 -7.2029216362111255" fill="red" stroke="none" /><line stroke="#e1ed5e" stroke-width="0.3" x1="174.80103733775053" x2="179.2010983576182" y1="140.37084112569926" y2="142.7455964860345" /><path d="M 175.68104954172406 140.8457921977663 a86.0,86.0 0 0,1 -30.038265399797805,32.042727171017184" fill="none" id="id29" stroke="none" /><text fill="#e1ed5e" style="font-size:6.75px; font-family:Arial;" text-anchor="middle"><textPath startOffset="22.206326154141568" xlink:href="#id29">May</textPath></text><path d="M 118.48025628344425 109.97397251340804 l 16.86718982830677 9.103384993458176 a40.1669953577303,40.1669953577303 0 0,0 -0.3336224548495174,0.6056216627445674 l -16.70799096400574 -9.392377174600549" fill="red" stroke="none" /><path d="M 117.94076556474637 110.91462005526583 l 16.49564165545532 10.035450303798465 a40.308455568097656,40.308455568097656 0 0,0 -0.3657231479093045,0.5896621632152128 l -16.32045386787805 -10.317908798378951" fill="red" stroke="none" /><path d="M 117.35343817320211 111.8261652097733 l 28.975130147501847 19.746212403499186 a56.06381427267683,56.06381427267683 0 0,0 -0.5503306578666706,0.7927923582569271 l -28.63093858247304 -20.242046023943132" fill="red" stroke="none" /><path d="M 116.93607887273984 112.41649034213515 l 46.5348125178551 34.11645957382954 a78.70114028270731,78.70114028270731 0 0,0 -0.8103921373516426,1.0856527003729017 l -45.940659113808366 -34.91242515371175" fill="red" stroke="none" /><path d="M 116.0416608686014 113.55231037782055 l 13.231433369822698 11.178174955828194 a38.32115539919789,38.32115539919789 0 0,0 -0.4300317767487227,0.5002241086433333 l -13.037059083503197 -11.404276163633055" fill="red" stroke="none" /><path d="M 115.32070863581623 114.36230785411682 l 14.137426663581355 13.253047155578745 a40.37808276316661,40.37808276316661 0 0,0 -0.4797174817756204,0.50298186175652 l -13.90720263042677 -13.494436133917771" fill="red" stroke="none" /><path d="M 114.55890576462653 115.13401014063108 l 13.975983045259193 14.528060868842806 a41.159182887462826,41.159182887462826 0 0,0 -0.5148115442995986,0.4867864480517028 l -13.723835666568787 -14.766481953640431" fill="red" stroke="none" /><path d="M 113.48314897796784 116.09983520530334 l 12.518267264422613 14.947698074276092 a40.497197055557294,40.497197055557294 0 0,0 -0.5382846384960962,0.44297161125067686 l -12.259112497381825 -15.160964804383946" fill="red" stroke="none" /><path d="M 111.45004920935366 117.60387380957326 l 7.8794262660656385 12.114220921106968 a35.451287375446896,35.451287375446896 0 0,0 -0.5144120192458372,0.328322089245004 l -7.669732444772871 -12.248057439175781" fill="red" stroke="none" /><path d="M 111.1453310114006 117.79835938074945 l 2.9233528557757853 4.6684019227975435 a26.508172876022705,26.508172876022705 0 0,0 -0.38881279131453267,0.23884057292622177 l -2.8425608645289437 -4.7180309625521435" fill="red" stroke="none" /><line stroke="#e1ed5e" stroke-width="0.3" x1="143.8653032363475" x2="146.44561519142675" y1="172.8068346515853" y2="177.08958963109032" /><path d="M 144.38136562736335 173.6633856474863 a86.0,86.0 0 0,1 -40.68145358897372,12.25698825130547" fill="none" id="id30" stroke="none" /><text fill="#e1ed5e" style="font-size:6.75px; font-family:Arial;" text-anchor="middle"><textPath startOffset="21.466115282336833" xlink:href="#id30">June</textPath></text><path d="M 110.8373102113329 117.98757091392108 l 13.774196639298664 22.8621617357214 a47.690952255180974,47.690952255180974 0 0,0 -0.7068074572887503,0.4175943042549192 l -13.378621310981531 -23.09587461227007" fill="red" stroke="none" /><path d="M 110.21172684928248 118.3499491758327 l 7.216539222946526 12.967750696913365 a35.84051874071869,35.84051874071869 0 0,0 -0.5416649075761094,0.2953588958981194 l -6.992251503501768 -13.090050244571255" fill="red" stroke="none" /><path d="M 109.57404056367764 118.69057910512821 l 22.67056801793772 44.257807566118196 a70.72633291140107,70.72633291140107 0 0,0 -1.088330385916544,0.5457114488667525 l -21.905383724338414 -44.64148685589425" fill="red" stroke="none" /><path d="M 108.92500713936063 119.00905698771935 l 13.24054122520402 28.20056037693895 a52.15418972641892,52.15418972641892 0 0,0 -0.8159200228546033,0.3745488641425599 l -12.753153206581995 -28.42429631141558" fill="red" stroke="none" /><path d="M 108.59647513512805 119.15986991738527 l 11.133311340256911 24.81398406626059 a48.19714004522769,48.19714004522769 0 0,0 -0.759860790933321,0.3331006404949454 l -10.704529874665837 -25.00194926004999" fill="red" stroke="none" /><path d="M 107.93186726928326 119.44442032107085 l 11.956348215909832 29.310155140334818 a52.655006823733046,52.655006823733046 0 0,0 -0.8421765253792212,0.33511941999104267 l -11.450050614488745 -29.511621404731926" fill="red" stroke="none" /><path d="M 106.57524785965236 119.94407469862006 l 6.11687126039857 18.553724504870793 a40.53603867264121,40.53603867264121 0 0,0 -0.6645568033123114,0.21277010240844224 l -5.796593111995318 -18.65626745393894" fill="red" stroke="none" /><path d="M 106.2309692047433 120.05430185196036 l 8.94898317759052 28.802198183694763 a51.160419760434834,51.160419760434834 0 0,0 -0.8432334093918219,0.25405930910062335 l -8.451874793758453 -28.951972861901112" fill="red" stroke="none" /><path d="M 105.53697534728816 120.25689768951611 l 5.002178505238639 18.300355672514137 a39.97168436219599,39.97168436219599 0 0,0 -0.6652612238814148,0.1757015356922545 l -4.686426838545727 -18.383748557509975" fill="red" stroke="none" /><path d="M 104.48393922423573 120.51570834832081 l 3.39603369902924 15.538131412168807 a36.904922906659095,36.904922906659095 0 0,0 -0.6217750876031678,0.13029901501318303 l -3.1280671499966943 -15.59428640790853" fill="red" stroke="none" /><path d="M 103.7750983002368 120.6578951692458 l 7.129676469857508 39.014642107654744 a60.66074363086535,60.66074363086535 0 0,0 -1.028780296923952,0.17886664159980967 l -6.457047201461506 -39.131587327775556" fill="red" stroke="none" /><path d="M 103.06178313531738 120.77559828337769 l 5.146184506845711 34.919214484237486 a56.2963844490435,56.2963844490435 0 0,0 -0.959910747178896,0.13303488283234643 l -4.5443451684799845 -35.002623932562436" fill="red" stroke="none" /><line stroke="#e1ed5e" stroke-width="0.3" x1="102.19456741930631" x2="102.32365962044197" y1="184.97166512339345" y2="189.96999836594603" /><path d="M 102.22038585953345 185.97133177190398 a86.0,86.0 0 0,1 -42.740103519485714,-10.115201625700543" fill="none" id="id31" stroke="none" /><text fill="#e1ed5e" style="font-size:6.75px; font-family:Arial;" text-anchor="middle"><textPath startOffset="22.20632615414155" xlink:href="#id31">July</textPath></text><path d="M 99.09653310690486 120.98055641714683 l -1.522075622008534 35.346058281463975 a56.37881499196604,56.37881499196604 0 0,0 -0.9692107095622956,-0.050097122965150245 l 2.1302743999843186 -35.314621351736626" fill="red" stroke="none" /><path d="M 98.73552117531835 120.96189622390904 l -1.64546818473606 27.277746890593587 a48.32733139137934,48.32733139137934 0 0,0 -0.8299350177099426,-0.05723717794350972 l 2.1147659632249325 -27.245381368133792" fill="red" stroke="none" /><path d="M 97.65516085044442 120.86867818915974 l -2.1138350209672403 18.812779889785524 a39.93116440363313,39.93116440363313 0 0,0 -0.6823904700043073,-0.08262798269243136 l 2.437352914022937 -18.773606378367745" fill="red" stroke="none" /><path d="M 96.58105272829116 120.7198165907248 l -4.634334015619673 28.08541436668695 a49.465198961483395,49.465198961483395 0 0,0 -0.8389086422129522,-0.14585502063982383 l 5.117091629304674 -28.00148076752612" fill="red" stroke="none" /><path d="M 96.22490169976321 120.6578951692458 l -6.313293076097428 34.54727166457239 a56.119391351936414,56.119391351936414 0 0,0 -0.9487714943077415,-0.18183431497926203 l 6.907032184976864 -34.43348015124466" fill="red" stroke="none" /><path d="M 95.51606077576429 120.51570834832081 l -4.65464875707665 21.296768664462743 a42.79949794374626,42.79949794374626 0 0,0 -0.7183790781558174,-0.16350073934678117 l 5.02054798462533 -21.213491191538274" fill="red" stroke="none" /><path d="M 94.46302465271185 120.25689768951611 l -8.330124069210354 30.475568415455363 a52.59353157299035,52.59353157299035 0 0,0 -0.8712214473118696,-0.24621588340615505 l 8.853476684626838 -30.327663738710687" fill="red" stroke="none" /><path d="M 93.76903079525671 120.05430185196036 l -10.712292679392622 34.47738928890044 a57.103235126887945,57.103235126887945 0 0,0 -0.9361630943067022,-0.2997298597408718 l 11.304177118790264 -34.287886582499866" fill="red" stroke="none" /><path d="M 92.7421414339146 119.70592522655815 l -10.763260891411683 29.223497866326507 a52.14258519390743,52.14258519390743 0 0,0 -0.8395695628859074,-0.31745336957166775 l 11.264700675057874 -29.033896246648208" fill="red" stroke="none" /><path d="M 92.06813273071674 119.44442032107085 l -13.204687391141942 32.37037170755753 a55.96004481666498,55.96004481666498 0 0,0 -0.8887748606742321,-0.3715079638436058 l 13.759933711313636 -32.13827870069395" fill="red" stroke="none" /><path d="M 91.40352486487194 119.15986991738527 l -22.38909230489583 49.900929088622995 a75.69345644722891,75.69345644722891 0 0,0 -1.1841772835190314,-0.543597710635559 l 23.24473758418228 -49.50814430765336" fill="red" stroke="none" /><path d="M 90.7491055286396 118.85261126421891 l -10.06099386878293 20.503531515473192 a43.83896675057105,43.83896675057105 0 0,0 -0.6745900379367822,-0.3382534492809688 l 10.412437814402473 -20.32731022528292" fill="red" stroke="none" /><line stroke="#e1ed5e" stroke-width="0.3" x1="58.666819895761336" x2="56.23545636021788" y1="174.27360380694188" y2="178.64263932499728" /><path d="M 58.180547188652646 175.14741091055294 a86.0,86.0 0 0,1 -31.652253787137756,-30.449443065178592" fill="none" id="id32" stroke="none" /><text fill="#e1ed5e" style="font-size:6.75px; font-family:Arial;" text-anchor="middle"><textPath startOffset="22.20632615414155" xlink:href="#id32">August</textPath></text><path d="M 89.4739219176387 118.17145234162733 l -18.359884017524777 31.695162700846637 a57.62879577286294,57.62879577286294 0 0,0 -0.8540920380218431,-0.5046126306526653 l 18.902743926575003 -31.374431497900222" fill="red" stroke="none" /><path d="M 89.1626897886671 117.98757091392108 l -17.919266915091203 29.74207419324573 a55.7230629998394,55.7230629998394 0 0,0 -0.8173267832110903,-0.5020688658675471 l 18.428572898234602 -29.429216860549804" fill="red" stroke="none" /><path d="M 88.54995079064634 117.60387380957326 l -16.770194512970804 25.783329186669967 a51.757429800798754,51.757429800798754 0 0,0 -0.7426582441509982,-0.4921933883069848 l 17.211527455861763 -25.49083777727166" fill="red" stroke="none" /><path d="M 87.95078237400918 117.19931262002967 l -36.14765287797246 51.59793786008904 a84.0,84.0 0 0,0 -1.1770906886044523,-0.8398229526231229 l 37.030470894425804 -50.968070645621694" fill="red" stroke="none" /><path d="M 87.36589467227662 116.77436683061367 l -17.052273012269186 22.640390861386035 a49.3437349910222,49.3437349910222 0 0,0 -0.6740619046549985,-0.5168419250152969 l 17.43946364541767 -22.343509594543374" fill="red" stroke="none" /><path d="M 87.07902340077011 116.55440617244103 l -21.802235750487764 27.933110420028235 a56.434392071225616,56.434392071225616 0 0,0 -0.7606348489910164,-0.6042943266931615 l 22.27982809219614 -27.553682179329943" fill="red" stroke="none" /><path d="M 86.24171649860922 115.8653595955263 l -15.100918267426406 17.413618385691308 a44.0493348668021,44.0493348668021 0 0,0 -0.5685670983345326,-0.5016943581172428 l 15.398427718667527 -17.151100885801778" fill="red" stroke="none" /><path d="M 85.70375840098266 115.38237550388516 l -11.451394017023544 12.321395213753789 a37.8211534963164,37.8211534963164 0 0,0 -0.4730600821660373,-0.44730783460954915 l 11.661789933580398 -12.122452742398309" fill="red" stroke="none" /><path d="M 85.44109423537348 115.13401014063109 l -20.466834118936102 21.275312864183462 a50.52169094616596,50.52169094616596 0 0,0 -0.6215372029522562,-0.6083049693293241 l 20.83002127426415 -20.91985779193157" fill="red" stroke="none" /><path d="M 84.9287848128048 114.62390073753433 l -23.09903593521815 22.41345534873449 a53.18584225721325,53.18584225721325 0 0,0 -0.6318818667889002,-0.6625256110977488 l 23.481424353386007 -22.01252262105424" fill="red" stroke="none" /><path d="M 83.72743513129214 113.27417163493432 l -19.77979489428861 16.1351572077914 a46.5261353161866,46.5261353161866 0 0,0 -0.5008917055381685,-0.624939418279419 l 20.05460451188164 -15.792289955933724" fill="red" stroke="none" /><line stroke="#e1ed5e" stroke-width="0.3" x1="26.63291911575756" x2="22.317208475507996" y1="142.92168965132927" y2="145.44649492493687" /><path d="M 25.769776987707644 143.4266507060508 a86.0,86.0 0 0,1 -11.730757126820373,-40.83630448921669" fill="none" id="id33" stroke="none" /><text fill="#e1ed5e" style="font-size:6.75px; font-family:Arial;" text-anchor="middle"><textPath startOffset="21.46611528233685" xlink:href="#id33">September</textPath></text><path d="M 81.35079622478065 109.6543875284942 l -7.979259904333665 4.130732241200289 a29.98507303639756,29.98507303639756 0 0,0 -0.23334288200781123,-0.4604076434463703 l 8.049181456127743 -3.992770386051234" fill="red" stroke="none" /><path d="M 81.02952815118164 109.00673069616217 l -13.114736744669019 6.226566368598462 a35.51779765062639,35.51779765062639 0 0,0 -0.2574623979224812,-0.5545511001948388 l 13.219973759431326 -5.999895201124796" fill="red" stroke="none" /><path d="M 80.73074385275274 108.34839909993369 l -13.890308305264252 6.017971657408033 a36.13792085078593,36.13792085078593 0 0,0 -0.24238050921825158,-0.5729159257469865 l 13.99183979567481 -5.777981205994887" fill="red" stroke="none" /><path d="M 80.45479744820244 107.68017299344265 l -13.597752538018778 5.343157306108523 a35.60986666889938,35.60986666889938 0 0,0 -0.2192647363429106,-0.5724310369349462 l 13.687711553955198 -5.108302702340419" fill="red" stroke="none" /><path d="M 79.35854240842038 103.8639653848113 l -14.162604903088098 2.651160406744479 a35.40860954926826,35.40860954926826 0 0,0 -0.10699058322493557,-0.6000600095806404 l 14.206141928652222 -2.4069816464306246" fill="red" stroke="none" /><line stroke="#e1ed5e" stroke-width="0.3" x1="15.007084014347285" x2="10.007500721073583" y1="101.09737516637583" y2="101.16192664675087" /><path d="M 14.007167355692545 101.11028546245083 a86.0,86.0 0 0,1 10.666146001902534,-42.60595125391555" fill="none" id="id34" stroke="none" /><text fill="#e1ed5e" style="font-size:6.75px; font-family:Arial;" text-anchor="middle"><textPath startOffset="22.20632615414155" xlink:href="#id34">October</textPath></text><path d="M 79.3925641242962 95.95851677861259 l -14.959592688541196 -2.9338411248344687 a36.24456746361881,36.24456746361881 0 0,0 0.12533838135545128,-0.6111944605093 l 14.906875011270749 3.1909112415071714" fill="red" stroke="none" /><path d="M 79.54389044137918 95.25157060432595 l -10.007479244382113 -2.3230130091181307 a31.273559766082585,31.273559766082585 0 0,0 0.12623676605937473,-0.5233328933516153 l 9.966009678061923 2.494931134129143" fill="red" stroke="none" /><path d="M 80.02781315780177 93.51064311812611 l -13.782026135800974 -4.478051745518425 a35.49127985525922,35.49127985525922 0 0,0 0.19378696170035242,-0.5793983498140006 l 13.702901880328849 4.714623198254748" fill="red" stroke="none" /><path d="M 80.14247586403 93.16781622104843 l -13.70349134996632 -4.71482601129769 a35.49190323923711,35.49190323923711 0 0,0 0.20373521865173214,-0.5759868984080504 l 13.620303050504779 4.950010536132352" fill="red" stroke="none" /><path d="M 80.2630227832202 92.82701384747504 l -13.562795575007552 -4.929110662718221 a35.43071570417652,35.43071570417652 0 0,0 0.2132514233862494,-0.571407792737893 l 13.475939563119674 5.161841592485455" fill="red" stroke="none" /><path d="M 80.65960295795068 91.81776055985345 l -13.331788026299478 -5.640209017389561 a35.47579116103934,35.47579116103934 0 0,0 0.24277146502486974,-0.5603500130754242 l 13.232725851431928 5.868858175051585" fill="red" stroke="none" /><path d="M 80.803312248108 91.48605970444005 l -13.236495646491583 -5.870530120257927 a35.47991508581615,35.47991508581615 0 0,0 0.25241033848371236,-0.5561527225906125 l 13.133482991044518 6.097504851690609" fill="red" stroke="none" /><path d="M 81.10775173730289 90.83032412892265 l -13.032790710966694 -6.3256879146098575 a35.486820262186626,35.486820262186626 0 0,0 0.2714572546305823,-0.5472412607890432 l 12.921973443382699 6.5490887638978625" fill="red" stroke="none" /><path d="M 81.26839172434947 90.50648371742162 l -8.612823987879878 -4.365134246065139 a30.655834196607238,30.655834196607238 0 0,0 0.24260526009922465,-0.46863614280834937 l 8.53640929462054 4.512743111133824" fill="red" stroke="none" /><path d="M 81.6062741919709 89.86733742301443 l -12.703670157955932 -6.9981473325920485 a35.50369958220334,35.50369958220334 0 0,0 0.2994861469922116,-0.5327524379368462 l 12.58132636967129 7.21578328046368" fill="red" stroke="none" /><line stroke="#e1ed5e" stroke-width="0.3" x1="26.266209847984243" x2="21.928928074336255" y1="57.711370442889674" y2="55.22380399835377" /><path d="M 25.398753493254645 57.213857153982495 a86.0,86.0 0 0,1 29.58750427330803,-30.492523968695096" fill="none" id="id35" stroke="none" /><text fill="#e1ed5e" style="font-size:6.75px; font-family:Arial;" text-anchor="middle"><textPath startOffset="21.46611528233685" xlink:href="#id35">November</textPath></text><path d="M 81.96595687620814 89.24020034530311 l -12.425563699917205 -7.413566391631882 a35.46912574773728,35.46912574773728 0 0,0 0.3173375417428289,-0.5216194803367616 l 12.29611035988816 7.626353645175718" fill="red" stroke="none" /><path d="M 82.34701348167596 88.62581576622439 l -8.136825323005008 -5.242724804997824 a30.679570740380743,30.679570740380743 0 0,0 0.28985381241267816,-0.4414672420315416 l 8.045374875234408 5.382010111007032" fill="red" stroke="none" /><path d="M 82.54541684631803 88.32363383020206 l -8.020942654412151 -5.365666005040694 a30.650175788192545,30.650175788192545 0 0,0 0.29712504349658736,-0.4359943380265771 l 7.927393145246823 5.502938366337687" fill="red" stroke="none" /><path d="M 82.95767976084542 87.72973835380427 l -19.544023892278037 -14.071457607444216 a45.08266573907537,45.08266573907537 0 0,0 0.45885005695195696,-0.6258709620164091 l 19.298911222812446 14.405791013132125" fill="red" stroke="none" /><line stroke="#e1ed5e" stroke-width="0.3" x1="56.762969772571076" x2="54.21961505331055" y1="26.818313649435495" y2="22.513508569990535" /><path d="M 56.25429882871897 25.957352633546506 a86.0,86.0 0 0,1 42.265352541879196,-11.944610805530505" fill="none" id="id36" stroke="none" /><text fill="#e1ed5e" style="font-size:6.75px; font-family:Arial;" text-anchor="middle"><textPath startOffset="22.20632615414155" xlink:href="#id36">December</textPath></text><path d="M 94.63758080256005 79.69619591428918 l -3.6992817794211423 -14.006643222347163 a35.486916167413995,35.486916167413995 0 0,0 0.5919405381631291,-0.15089882328365706 l 3.4576323525730137 14.068245041799685" fill="red" stroke="none" /><path d="M 94.98787191387505 79.60689891045804 l -5.759138307959861 -23.432499665761974 a45.12985111094028,45.12985111094028 0 0,0 0.7559815538922076,-0.17891640902188732 l 5.35493306710512 23.528161986924733" fill="red" stroke="none" /><path d="M 95.33964822691252 79.52364482259891 l -3.2164481949583963 -14.132224101625217 a35.49362953332973,35.49362953332973 0 0,0 0.5968968340902315,-0.13045852874090016 l 2.972708636714644 14.185496128461985" fill="red" stroke="none" /><path d="M 95.692805502759 79.44645832069477 l -2.966079646639754 -14.15386318876464 a35.46130947170682,35.46130947170682 0 0,0 0.5985085352882901,-0.12005518170286161 l 2.722004701884327 14.202822326544714" fill="red" stroke="none" /><path d="M 96.75951476605007 79.25152402106235 l -3.5438849278582727 -22.69111135808463 a43.96618503467431,43.96618503467431 0 0,0 0.7487462657434885,-0.11034573627270461 l 3.1527696816861357 22.748751578518302" fill="red" stroke="none" /><path d="M 97.11714578562143 79.19881850522333 l -0.8815194981454101 -6.360587705285609 a27.421382451017926,27.421382451017926 0 0,0 0.4681029396496679,-0.06077319621085188 l 0.7719018299878844 6.374819224660598" fill="red" stroke="none" /><path d="M 97.47563105711357 79.15227682838746 l -2.6635688591873086 -21.9973179361695 a43.15799168364671,43.15799168364671 0 0,0 0.7382756010674565,-0.08295386592543996 l 2.2845265546101343 22.03990775556554" fill="red" stroke="none" /><path d="M 97.83486435360386 79.11191278185805 l -2.7123453490424496 -26.167277930518317 a47.307475203551235,47.307475203551235 0 0,0 0.8107034107885618,-0.0769860574020458 l 2.2615168111636517 26.210089532435543" fill="red" stroke="none" /><path d="M 98.55514903715128 79.0497635885617 l -1.2098471437280927 -17.54269771384086 a38.584367295708546,38.584367295708546 0 0,0 0.6629859067525204,-0.03999312043128586 l 0.9076991881359492 17.56092410365245" fill="red" stroke="none" /><path d="M 99.63851952072746 79.00311137660856 l -0.2121359832622579 -12.322091700594946 a33.323917621976605,33.323917621976605 0 0,0 0.5736164625347906,-0.004937297990217176 l 3.018489253741862e-15 12.323917621976605" fill="red" stroke="none" /></svg>