<?xml version="1.0" encoding="utf-8" ?>
<svg baseProfile="full" height="200mm" version="1.1" viewBox="0,0,200,200" width="200mm" xmlns="http://www.w3.org/2000/svg" xmlns:ev="http://www.w3.org/2001/xml-events" xmlns:xlink="http://www.w3.org/1999/xlink"><defs /><rect fill="#1a1a1a" height="200" width="200" x="0" y="0" /><rect fill="#1a1a1a" height="200" width="180" x="10" y="0" /><text alignment-baseline="middle" fill="#e1ed5e" style="dominant-baseline: central; font-size:9.0px; font-family:Arial;" text-anchor="middle" x="100.0" y="100.0">2020</text><line stroke="#e1ed5e" stroke-width="0.3" x1="100.0" x2="100.0" y1="15.0" y2="10.0" /><path d="M 100.0 14.0 a86.0,86.0 0 0,1 42.35913384403234,11.155469271406648" fill="none" id="id13" stroke="none" /><text fill="#e1ed5e" style="font-size:6.75px; font-family:Arial;" text-anchor="middle"><textPath startOffset="22.145653131862478" xlink:href="#id13">January</textPath></text><path d="M 100.0 79.0 l 0.0 -20.307436751832554 a41.307436751832554,41.307436751832554 0 0,0 0.7090970806036759,0.00608674560483833 l -0.3486041557548212 20.304444404422153" fill="red" stroke="none" /><path d="M 101.08105385017728 79.02784411241856 l 1.0455282446023206 -20.28296863016911 a41.30989772900605,41.30989772900605 0 0,0 0.7078857147911045,0.0425846467665352 l -1.3935583115258874 20.26203200557788" fill="red" stroke="none" /><path d="M 103.58742460773223 79.30868818359171 l 3.6029307709891385 -20.780747245471616 a42.09076969246776,42.09076969246776 0 0,0 0.7108635260962054,0.12954301456469094 l -3.9591290306363973 20.71583605697556" fill="red" stroke="none" /><path d="M 103.94208987418118 79.37332000966035 l 3.816196637453832 -19.967953378363987 a41.32935116761555,41.32935116761555 0 0,0 0.695717661356064,0.1391630169806982 l -4.1584107843408535 19.89950096472043" fill="red" stroke="none" /><path d="M 106.04205211174951 79.88797359093562 l 5.841272772037314 -19.443697287103724 a41.302163229317934,41.302163229317934 0 0,0 0.6772755614609787,0.20982170020335647 l -6.174188966369923 19.34055899909372" fill="red" stroke="none" /><path d="M 107.40779381753099 80.34994680014964 l 7.175547837129632 -19.033993144353417 a41.341616990353266,41.341616990353266 0 0,0 0.6619142069297946,0.25604263477712974 l -7.501234306552953 18.90801062143825" fill="red" stroke="none" /><path d="M 109.3889696526874 81.21577127319529 l 10.691983810017216 -21.391129896044546 a44.914408962446075,44.914408962446075 0 0,0 0.6867044795554808,0.3506362002241636 l -11.057615511286278 21.20443574414755" fill="red" stroke="none" /><path d="M 109.71004243097381 81.37971332152246 l 2.581890609525361 -4.9511156788024335 a26.58387908039192,26.58387908039192 0 0,0 0.4028232211027819,0.21448067612907026 l -2.666502646414702 4.90606453495079" fill="red" stroke="none" /><line stroke="#e1ed5e" stroke-width="0.3" x1="143.13028292997686" x2="145.6673583964461" y1="26.7553504044142" y2="22.446841604673864" /><path d="M 143.63769802327073 25.89364864446614 a86.0,86.0 0 0,1 29.32050498858742,28.57503671076993" fill="none" id="id14" stroke="none" /><text fill="#e1ed5e" style="font-size:6.75px; font-family:Arial;" text-anchor="middle"><textPath startOffset="20.669276256404974" xlink:href="#id14">February</textPath></text><line stroke="#e1ed5e" stroke-width="0.3" x1="172.87174338648825" x2="177.1583165268699" y1="56.24261187166439" y2="53.66864786411523" /><path d="M 173.72905801456457 55.72781907015455 a86.0,86.0 0 0,1 12.242430191666344,42.057860355516425" fill="none" id="id15" stroke="none" /><text fill="#e1ed5e" style="font-size:6.75px; font-family:Arial;" text-anchor="middle"><textPath startOffset="22.145653131862474" xlink:href="#id15">March</textPath></text><path d="M 120.16314734710363 94.1308016681162 l 11.331413911731474 -3.2984094439091938 a32.80171369330111,32.80171369330111 0 0,0 0.1527333822604197,0.5419968920941673 l -11.386365786066476 3.1034046279120133" fill="red" stroke="none" /><path d="M 120.35273937422433 94.82641323984039 l 3.894871422793491 -0.9900610848978848 a25.018736661181293,25.018736661181293 0 0,0 0.10223427030159585,0.417150710360788 l -3.911293219611378 0.9230545499290018" fill="red" stroke="none" /><path d="M 120.51834098615036 95.52812308129327 l 11.078174396277632 -2.4144365481381214 a32.33822965896027,32.33822965896027 0 0,0 0.11355690871138506,0.5434109162476899 l -11.117989015813384 2.2239091806050273" fill="red" stroke="none" /><path d="M 120.65975698304385 96.23510406497455 l 22.562309421960688 -4.111604366752389 a43.933885342893674,43.933885342893674 0 0,0 0.1288417308151123,0.7431248649839852 l -22.629565970268033 3.723686468847811" fill="red" stroke="none" /><path d="M 120.82617615685814 97.30363454192243 l 14.457496482815328 -1.8718123688636947 a35.578164702555966,35.578164702555966 0 0,0 0.073219716816883,0.6063642909764295 l -14.487498285891874 1.6233544009638523" fill="red" stroke="none" /><path d="M 120.9064616781168 98.02013634271609 l 14.758154325925853 -1.3976125586603794 a35.82418429364561,35.82418429364561 0 0,0 0.05272360744405139,0.6127282377720423 l -14.779971556067645 1.144063273512675" fill="red" stroke="none" /><path d="M 120.96210409425399 98.7389718711861 l 14.543590989290143 -0.8749063189933602 a35.56988331905153,35.56988331905153 0 0,0 0.03143430941032218,0.6098172048170031 l -14.556466888157038 0.6251173207996266" fill="red" stroke="none" /><line stroke="#e1ed5e" stroke-width="0.3" x1="184.99686870605535" x2="189.99668451229388" y1="99.2704041080226" y2="99.22748670261217" /><path d="M 185.99683186730306 99.26182062694052 a86.0,86.0 0 0,1 -10.086455211305974,41.156179273409016" fill="none" id="id16" stroke="none" /><text fill="#e1ed5e" style="font-size:6.75px; font-family:Arial;" text-anchor="middle"><textPath startOffset="21.40746469413373" xlink:href="#id16">April</textPath></text><path d="M 120.99922638620191 99.81974689727618 l 12.767079235475851 -0.10959002025082291 a33.767549576072035,33.767549576072035 0 0,0 0.0,0.579686245949298 l -12.767079235475851 -0.10959002025082136" fill="red" stroke="none" /><path d="M 120.99303781780057 100.54070618675476 l 11.052801726072143 0.28468096547672356 a32.05646730416041,32.05646730416041 0 0,0 -0.018890896031636364,0.5499878261854478 l -11.04628614304366 -0.4743750562262821" fill="red" stroke="none" /><path d="M 120.96210409425399 101.26102812881392 l 29.45203608959013 1.7717613552923934 a50.50528034306109,50.50528034306109 0 0,0 -0.05949050361596112,0.8649788662052522 l -29.417281624809103 -2.277083645651989" fill="red" stroke="none" /><path d="M 120.86939407059847 102.33845913500097 l 14.982339161708172 1.6788023532383614 a36.07610241732567,36.07610241732567 0 0,0 -0.07424447058854859,0.6148507222437887 l -14.95131260485996 -1.9357467524055587" fill="red" stroke="none" /><path d="M 120.77682067341334 103.0534771498775 l 23.040729334763874 3.3861937611196207 a44.28822699274666,44.28822699274666 0 0,0 -0.11700213092377561,0.7512376121961377 l -22.97920571170183 -3.781219555247209" fill="red" stroke="none" /><path d="M 120.65975698304385 103.76489593502545 l 39.200407197923 7.143620025730748 a60.84599392103295,60.84599392103295 0 0,0 -0.19607971468635713,1.025971922639824 l -39.07200119095448 -7.815494513403886" fill="red" stroke="none" /><path d="M 120.43855184770803 104.8234425847677 l 18.675571602650724 4.407384047280512 a40.18859058987806,40.18859058987806 0 0,0 -0.1642229697305406,0.6700857577264544 l -18.597161106403885 -4.727325629615066" fill="red" stroke="none" /><path d="M 120.26092885502905 105.52220625578681 l 25.11280105355208 6.84460559881157 a47.028857112031815,47.028857112031815 0 0,0 -0.2189786935439808,0.7770781317034612 l -24.99160386793352 -7.2746916544180396" fill="red" stroke="none" /><path d="M 120.05942366710727 106.21446072829308 l 42.131812104933786 13.052543088128077 a65.10735168101668,65.10735168101668 0 0,0 -0.3399077622161185,1.064756223886023 l -41.90153962694041 -13.773868345705484" fill="red" stroke="none" /><path d="M 119.71291397450082 107.23885506374661 l 23.62918312520515 8.676963341865266 a46.17196829810004,46.17196829810004 0 0,0 -0.27960274454336703,0.74167949870566 l -23.476749696847342 -9.081311120765085" fill="red" stroke="none" /><path d="M 119.4528033332814 107.91128576633889 l 23.980706875437438 9.752744718588106 a46.88803452932649,46.88803452932649 0 0,0 -0.3096265995094503,0.7429911232168901 l -23.8097544313915 -10.162968351246274" fill="red" stroke="none" /><path d="M 119.16976305983485 108.57439118712176 l 17.83622590136813 7.97791697804748 a40.53914311614646,40.53914311614646 0 0,0 -0.2895952975660086,0.6328179888118267 l -17.696646138947067 -8.282923949073995" fill="red" stroke="none" /><path d="M 118.70294669586154 109.54985784667822 l 15.294115035375693 7.809284111946933 a38.17250340097249,38.17250340097249 0 0,0 -0.30300230018897245,0.5810468629631903 l -15.157804666211772 -8.070677218014627" fill="red" stroke="none" /><line stroke="#e1ed5e" stroke-width="0.3" x1="174.33088141563837" x2="178.70328620479359" y1="141.23008692659167" y2="143.65538615756765" /><path d="M 175.20536237346943 141.71514677278685 a86.0,86.0 0 0,1 -30.301960400862466,31.631185727798858" fill="none" id="id17" stroke="none" /><text fill="#e1ed5e" style="font-size:6.75px; font-family:Arial;" text-anchor="middle"><textPath startOffset="22.145653131862474" xlink:href="#id17">May</textPath></text><path d="M 118.36410011445183 110.18625677009912 l 23.96704003691921 13.294113096409262 a48.40716058170581,48.40716058170581 0 0,0 -0.40930936254110856,0.7232104243445148 l -23.735297309356724 -13.7035802908529" fill="red" stroke="none" /><path d="M 118.00360718960297 110.81064883170644 l 44.83395775605542 26.921503448274528 a73.29580399981646,73.29580399981646 0 0,0 -0.656981827798245,1.073130441607276 l -44.365207963801765 -27.68717100600636" fill="red" stroke="none" /><path d="M 117.423217284605 111.72311816256416 l 12.820661097173033 8.626312954103545 a36.45259286174009,36.45259286174009 0 0,0 -0.3537815497578677,0.5161778539864363 l -12.670689810599846 -8.845125543160025" fill="red" stroke="none" /><path d="M 117.01052211995028 112.31430620078461 l 25.09687333450501 18.16820087849862 a51.98284322539922,51.98284322539922 0 0,0 -0.5294773896287323,0.7183377681083779 l -24.78129392529245 -18.596344955875875" fill="red" stroke="none" /><path d="M 116.57777611688842 112.89097897827486 l 45.018022152710515 35.0062863150204 a78.02685683176935,78.02685683176935 0 0,0 -0.8312965326091242,1.0503160126364557 l -44.41045918945983 -35.773922271571536" fill="red" stroke="none" /><path d="M 115.89218393027572 113.72728997021213 l 12.746470119910693 11.010097303198208 a37.843240280411266,37.843240280411266 0 0,0 -0.4288701186045084,0.4879754683701184 l -12.5555889373476 -11.227285049379619" fill="red" stroke="none" /><path d="M 115.41159269507618 114.26474011684316 l 17.062851833750585 15.79312092373264 a44.25002325186294,44.25002325186294 0 0,0 -0.5207683382729894,0.5530379285764763 l -16.789227661741336 -16.083700312253615" fill="red" stroke="none" /><path d="M 114.91283532996324 114.78537596483092 l 44.738505989889745 44.356127894492765 a84.0,84.0 0 0,0 -1.0240323194801406,1.015279959085353 l -43.97048175027964 -45.117587863806776" fill="red" stroke="none" /><path d="M 114.13192950727249 115.5334660781643 l 14.98166402186551 16.46747316127942 a43.262702647736134,43.262702647736134 0 0,0 -0.5536286302660737,0.4950581350274678 l -14.696770364776059 -16.722226826190273" fill="red" stroke="none" /><path d="M 113.03279911837588 116.46651593811092 l 14.596485471828974 18.442182564095926 a44.519597910184565,44.519597910184565 0 0,0 -0.6033254682893664,0.4691495333232847 l -14.277750058904378 -18.690033149040005" fill="red" stroke="none" /><path d="M 112.16784306229584 117.11559508785304 l 9.50293081124392 13.367062270644134 a37.40073314673972,37.40073314673972 0 0,0 -0.5264685862798374,0.3675159608342358 l -9.272067133790323 -13.528223047283491" fill="red" stroke="none" /><path d="M 111.5731344415666 117.5232005979908 l 17.837660875863378 27.008492064520993 a53.36727960644207,53.36727960644207 0 0,0 -0.7687794689669621,0.4983135636543482 l -17.371395774639407 -27.310719469879235" fill="red" stroke="none" /><line stroke="#e1ed5e" stroke-width="0.3" x1="143.1302829299769" x2="145.66735839644613" y1="173.24464959558577" y2="177.55315839532614" /><path d="M 143.63769802327073 174.10635135553383 a86.0,86.0 0 0,1 -40.68552437913181,11.842963189579606" fill="none" id="id18" stroke="none" /><text fill="#e1ed5e" style="font-size:6.75px; font-family:Arial;" text-anchor="middle"><textPath startOffset="21.407464694133747" xlink:href="#id18">June</textPath></text><path d="M 110.02825361518725 118.45085714620011 l 7.683023389948421 14.135897680545986 a37.08889218204162,37.08889218204162 0 0,0 -0.5620047763053473,0.2992358883376856 l -7.43922979785652 -14.265704036606241" fill="red" stroke="none" /><path d="M 106.38641147887787 120.00534299687104 l 13.255985267033934 41.52418504594666 a64.58874957061559,64.58874957061559 0 0,0 -1.0591305202738253,0.3281213425474003 l -12.541214113888483 -41.7456229763007" fill="red" stroke="none" /><path d="M 105.3480935250658 120.30758222061773 l 3.9794993692175535 15.11080729207844 a36.626033157776604,36.626033157776604 0 0,0 -0.6093781959751539,0.15490155446198298 l -3.7195158800170023 -15.176894078375694" fill="red" stroke="none" /><path d="M 104.64783097203109 120.47920084513623 l 3.1037999746836142 13.675915377984927 a35.02370263905544,35.02370263905544 0 0,0 -0.5874602085062325,0.1280342182075482 l -2.8685773495582456 -13.727181054326193" fill="red" stroke="none" /><path d="M 103.94208987418118 120.62667999033965 l 2.7778029203495507 14.534638667055365 a35.797699491683275,35.797699491683275 0 0,0 -0.6045809823084302,0.11017479462875172 l -2.5278872044900633 -14.58018163561548" fill="red" stroke="none" /><line stroke="#e1ed5e" stroke-width="0.3" x1="101.45913802915013" x2="101.54496967792366" y1="184.9874750549273" y2="189.98673829345242" /><path d="M 101.47630435890484 185.9873277026323 a86.0,86.0 0 0,1 -42.54439059252881,-10.42667462771756" fill="none" id="id19" stroke="none" /><text fill="#e1ed5e" style="font-size:6.75px; font-family:Arial;" text-anchor="middle"><textPath startOffset="22.145653131862474" xlink:href="#id19">July</textPath></text><path d="M 99.27912038922189 120.98762331915562 l -0.17641318755329044 5.136077471942368 a26.13910628519557,26.13910628519557 0 0,0 -0.44831584404019764,-0.019252611327440775 l 0.2645547921943268 -5.132292292189098" fill="red" stroke="none" /><path d="M 98.55909050195518 120.95050786540614 l -0.8183270311107986 11.89829543425492 a32.92640320342466,32.92640320342466 0 0,0 -0.5635604858020387,-0.04362314580669014 l 1.0224565116880735 -11.882494521453175" fill="red" stroke="none" /><path d="M 98.19965949673042 120.92268563240118 l -1.3973660514147122 16.239511666844866 a37.29952057758868,37.29952057758868 0 0,0 -0.6374673438488659,-0.060368820234786465 l 1.6759329586485934 -16.213131091104895" fill="red" stroke="none" /><path d="M 93.61358852112213 120.00534299687104 l -3.6064205096552886 11.297060880781396 a32.85874586271852,32.85874586271852 0 0,0 -0.5358749203520178,-0.17615273014809463 l 3.7998181676550495 -11.233487229231281" fill="red" stroke="none" /><path d="M 93.27111125876986 119.89276391827306 l -4.873679007422613 14.40816598943758 a36.2101280154566,36.2101280154566 0 0,0 -0.5871114087035153,-0.20422782471631784 l 5.12029618817115 -14.32237973215267" fill="red" stroke="none" /><line stroke="#e1ed5e" stroke-width="0.3" x1="58.13341422392154" x2="55.67067388415222" y1="173.97424548756322" y2="178.32567169271397" /><path d="M 57.64086615596768 174.84453072859336 a86.0,86.0 0 0,1 -31.369924170532247,-30.572349798747897" fill="none" id="id20" stroke="none" /><text fill="#e1ed5e" style="font-size:6.75px; font-family:Arial;" text-anchor="middle"><textPath startOffset="22.145653131862474" xlink:href="#id20">August</textPath></text><line stroke="#e1ed5e" stroke-width="0.3" x1="26.387840678322732" x2="22.057713659400548" y1="142.50000000000003" y2="145.00000000000006" /><path d="M 25.521815274538298 143.00000000000003 a86.0,86.0 0 0,1 -11.493303480769221,-40.785679425670985" fill="none" id="id21" stroke="none" /><text fill="#e1ed5e" style="font-size:6.75px; font-family:Arial;" text-anchor="middle"><textPath startOffset="21.40746469413373" xlink:href="#id21">September</textPath></text><path d="M 79.2786578344484 103.40968896794605 l -11.61612611141882 1.9114291311795635 a32.77233821973817,32.77233821973817 0 0,0 -0.08657906778909998,-0.5558997228385886 l 11.64722667134619 -1.7117412264095249" fill="red" stroke="none" /><path d="M 79.03789590574601 101.26102812881392 l -14.050412107591663 0.8452379021415832 a35.07581285412587,35.07581285412587 0 0,0 -0.030997682623394925,-0.6013467617963977 l 14.062851379671631 -0.6039193469684547" fill="red" stroke="none" /><path d="M 79.01933749520258 100.90099992219065 l -15.704684936476843 0.6744267442726742 a36.719159659071885,36.719159659071885 0 0,0 -0.02163862352351056,-0.6299849140777851 l 15.713948246997202 -0.40473556563076923" fill="red" stroke="none" /><line stroke="#e1ed5e" stroke-width="0.3" x1="15.003131293944662" x2="10.003315487706104" y1="100.72959589197737" y2="100.7725132973878" /><path d="M 14.003168132696942 100.73817937305945 a86.0,86.0 0 0,1 10.791469493833604,-42.45332614584628" fill="none" id="id22" stroke="none" /><text fill="#e1ed5e" style="font-size:6.75px; font-family:Arial;" text-anchor="middle"><textPath startOffset="22.145653131862435" xlink:href="#id22">October</textPath></text><path d="M 79.00077361379809 100.18025310272382 l -23.049053708554435 0.19784840495575923 a44.0499028382154,44.0499028382154 0 0,0 0.0,-0.756203015359145 l 23.049053708554435 0.19784840495575073" fill="red" stroke="none" /><path d="M 79.2786578344484 96.59031103205396 l -11.678298849036803 -1.9216596314950969 a32.83534704800549,32.83534704800549 0 0,0 0.09629384955510681,-0.5553973351391334 l 11.643590181989463 2.121849999554823" fill="red" stroke="none" /><path d="M 80.83023694016515 91.42560881287825 l -10.749396847313506 -4.808068482995282 a32.77569764889563,32.77569764889563 0 0,0 0.2341363725022983,-0.5116302288051752 l 10.665276009956159 4.991887694015128" fill="red" stroke="none" /><path d="M 80.9802524753101 91.09779779509293 l -12.047414096506792 -5.638798106764031 a34.301737875238565,34.301737875238565 0 0,0 0.25419342387664084,-0.5311664911651458 l 11.948841414670246 5.844777099994264" fill="red" stroke="none" /><path d="M 81.29705330413844 90.45014215332179 l -10.686352747193926 -5.45652785599516 a32.998826245958824,32.998826245958824 0 0,0 0.2619351461190148,-0.5022951801268101 l 10.59110953209997 5.639169279226457" fill="red" stroke="none" /><line stroke="#e1ed5e" stroke-width="0.3" x1="26.387840678322718" x2="22.05771365940052" y1="57.49999999999999" y2="54.99999999999999" /><path d="M 25.521815274538284 56.99999999999999 a86.0,86.0 0 0,1 29.574782752854787,-30.34633250058573" fill="none" id="id23" stroke="none" /><text fill="#e1ed5e" style="font-size:6.75px; font-family:Arial;" text-anchor="middle"><textPath startOffset="21.40746469413373" xlink:href="#id23">November</textPath></text><path d="M 81.81346652052679 89.5 l -16.9985259377287 -9.814103525974504 a40.628207051949005,40.628207051949005 0 0,0 0.3539031990520079,-0.6010050026197516 l 16.827549028546915 10.10445969688783" fill="red" stroke="none" /><path d="M 82.18462484594161 88.88188828441811 l -10.833387470415799 -6.760835015412508 a33.76993242698605,33.76993242698605 0 0,0 0.31113735617195115,-0.489159602443545 l 10.715732422617958 6.945808292534725" fill="red" stroke="none" /><path d="M 82.37810715431573 88.57770195909679 l -9.879826295427549 -6.403984040021218 a32.77378355553847,32.77378355553847 0 0,0 0.31006427793272334,-0.4694768360222078 l 9.768437578574098 6.572640754382487" fill="red" stroke="none" /><path d="M 82.78059297857968 87.97951657250589 l -9.640492965076364 -6.72981280803801 a32.757103599140365,32.757103599140365 0 0,0 0.32583163608332977,-0.4583230011649036 l 9.523546230463063 6.894313035912434" fill="red" stroke="none" /><path d="M 83.2033758604659 87.39550010848427 l -21.931289527647362 -16.457648523633562 a48.419621720092216,48.419621720092216 0 0,0 0.5045970700330782,-0.6605337624568506 l 21.645540480259978 16.831703199331297" fill="red" stroke="none" /><path d="M 83.64595745247003 86.82634096563983 l -9.154608850100649 -7.374304868882507 a32.755306695172415,32.755306695172415 0 0,0 0.3564918824759932,-0.4348621318514357 l 9.026670148386026 7.530369282432436" fill="red" stroke="none" /><path d="M 84.10781606972428 86.27271002978789 l -8.922706454921112 -7.707221321069903 a32.79050257506631,32.79050257506631 0 0,0 0.3716084200049078,-0.4228221667488049 l 8.78908697095761 7.8592557656300075" fill="red" stroke="none" /><path d="M 84.83555147118756 85.47280134310135 l -25.42853295359139 -24.359959352853867 a56.2138879967063,56.2138879967063 0 0,0 0.6735312466000848,-0.6911023938759886 l 25.006614905840504 24.792884438797586" fill="red" stroke="none" /><line stroke="#e1ed5e" stroke-width="0.3" x1="56.869717070023135" x2="54.33264160355391" y1="26.7553504044142" y2="22.446841604673864" /><path d="M 56.362301976729285 25.89364864446614 a86.0,86.0 0 0,1 42.16139366436587,-11.88097634709845" fill="none" id="id24" stroke="none" /><text fill="#e1ed5e" style="font-size:6.75px; font-family:Arial;" text-anchor="middle"><textPath startOffset="22.145653131862474" xlink:href="#id24">December</textPath></text></svg>