<?xml version="1.0" encoding="utf-8" ?>
<svg baseProfile="full" height="200mm" version="1.1" viewBox="0,0,200,200" width="200mm" xmlns="http://www.w3.org/2000/svg" xmlns:ev="http://www.w3.org/2001/xml-events" xmlns:xlink="http://www.w3.org/1999/xlink"><defs /><rect fill="#1a1a1a" height="200" width="200" x="0" y="0" /><rect fill="#1a1a1a" height="200" width="180" x="10" y="0" /><text alignment-baseline="middle" fill="#e1ed5e" style="dominant-baseline: central; font-size:9.0px; font-family:Arial;" text-anchor="middle" x="100.0" y="100.0">2025</text><line stroke="#e1ed5e" stroke-width="0.3" x1="100.0" x2="100.0" y1="15.0" y2="10.0" /><path d="M 100.0 14.0 a86.0,86.0 0 0,1 42.46469731375804,11.215312516191453" fill="none" id="id73" stroke="none" /><text fill="#e1ed5e" style="font-size:6.75px; font-family:Arial;" text-anchor="middle"><textPath startOffset="22.20632615414155" xlink:href="#id73">January</textPath></text><path d="M 100.36148047927253 79.00311137660856 l 0.4778826767470187 -27.758205253292328 a48.762318540364035,48.762318540364035 0 0,0 0.8391144346014778,0.02167185021703275 l -0.9556237465433642 27.745866610932936" fill="red" stroke="none" /><path d="M 101.08401301168833 79.027996857942 l 0.972604824031336 -18.816629695059916 a39.84174920820091,39.84174920820091 0 0,0 0.6845911978539634,0.04129641059201868 l -1.2963580707249114 18.797100015087594" fill="red" stroke="none" /><path d="M 101.80526077348638 79.07773832637324 l 2.4022841286708085 -27.84152732537643 a48.94497473329589,48.94497473329589 0 0,0 0.8387650743674319,0.07965085048708322 l -2.8811743301284847 27.796050930374165" fill="red" stroke="none" /><path d="M 102.16513564639614 79.11191278185805 l 2.5900775405952525 -24.987702576398206 a46.12158000032708,46.12158000032708 0 0,0 0.7889717725170201,0.08865017148298136 l -3.019816016621998 24.93941645144462" fill="red" stroke="none" /><path d="M 102.88285421437855 79.19881850522331 l 3.8721836347801157 -27.93966970873276 a49.20671816313514,49.20671816313514 0 0,0 0.8379927993543715,0.12349835540637409 l -4.352545414563143 27.86887686916542" fill="red" stroke="none" /><path d="M 103.59715602781102 79.31037775812273 l 7.4395017063163715 -42.78949224928452 a64.43140376029612,64.43140376029612 0 0,0 1.0910534062547714,0.1993830361551933 l -8.174950233674044 42.655093731778585" fill="red" stroke="none" /><path d="M 104.307194497241 79.44645832069477 l 5.757813271473569 -27.47576296651899 a49.072583854385286,49.072583854385286 0 0,0 0.8252542872743941,0.1803686231960506 l -6.22991028290149 27.372580845227066" fill="red" stroke="none" /><path d="M 104.66035177308747 79.52364482259891 l 10.629317400946263 -46.70241410787602 a68.89674176719744,68.89674176719744 0 0,0 1.154106752340944,0.27313978058543525 l -11.431647840249731 46.51252841514972" fill="red" stroke="none" /><path d="M 105.36241919743992 79.69619591428918 l 7.194009029671781 -27.23877872118311 a49.17276756267614,49.17276756267614 0 0,0 0.8165070400865245,0.2231822177877755 l -7.661813958982016 27.110909962569043" fill="red" stroke="none" /><path d="M 106.0581310904928 79.89281104454417 l 14.138919654420986 -46.92766215699792 a70.01137137966562,70.01137137966562 0 0,0 1.1509023560401312,0.3575909643272711 l -14.944607383171837 46.67733105778812" fill="red" stroke="none" /><path d="M 106.74666289553966 80.11325718540242 l 8.728312971593398 -25.727936604947228 a48.16818303233157,48.16818303233157 0 0,0 0.7828889381194685,0.2731345780826188 l -9.169883913776141 25.5738811736924" fill="red" stroke="none" /><path d="M 107.08798089147638 80.2323363322302 l 15.303684552449146 -42.68043237450747 a66.34117409767612,66.34117409767612 0 0,0 1.0716237515681089,0.3946880715073976 l -16.036090629789832 42.41068103519375" fill="red" stroke="none" /><line stroke="#e1ed5e" stroke-width="0.3" x1="143.23703022742887" x2="145.7803849466894" y1="26.81831364943548" y2="22.513508569990506" /><path d="M 143.74570117128098 25.957352633546492 a86.0,86.0 0 0,1 28.547481713284135,27.462654790039103" fill="none" id="id74" stroke="none" /><text fill="#e1ed5e" style="font-size:6.75px; font-family:Arial;" text-anchor="middle"><textPath startOffset="19.985693538727396" xlink:href="#id74">February</textPath></text><line stroke="#e1ed5e" stroke-width="0.3" x1="172.23445277983987" x2="176.4835382374775" y1="55.19839476539836" y2="52.563006222186495" /><path d="M 173.08426987136738 54.67131705675599 a86.0,86.0 0 0,1 12.851231095245387,41.99856678651699" fill="none" id="id75" stroke="none" /><text fill="#e1ed5e" style="font-size:6.75px; font-family:Arial;" text-anchor="middle"><textPath startOffset="22.20632615414155" xlink:href="#id75">March</textPath></text><path d="M 119.85752413597 93.16781622104841 l 20.76019721142499 -7.142757660246715 a42.954607153175644,42.954607153175644 0 0,0 0.23453769053112397,0.701237842167342 l -20.880072195727887 6.784346715157059" fill="red" stroke="none" /><path d="M 119.97218684219823 93.5106431181261 l 23.437010941431577 -7.615146475697251 a45.64313165397425,45.64313165397425 0 0,0 0.23635429861978596,0.7493077162611744 l -23.56462072381957 7.210588593009657" fill="red" stroke="none" /><path d="M 120.18372546131832 94.20196356495316 l 18.9037786751694 -5.4303551506756795 a40.66828933238118,40.66828933238118 0 0,0 0.1874870678956832,0.6744907373217135 l -18.994452513631447 5.104153109935014" fill="red" stroke="none" /><path d="M 120.37134235888165 94.90015583598534 l 24.320327410680452 -6.088449039206721 a46.070850345884004,46.070850345884004 0 0,0 0.18596652254397358,0.7709512953120474 l -24.421526733485244 5.668912512235268" fill="red" stroke="none" /><path d="M 120.45610955862082 95.25157060432595 l 24.706886133192572 -5.7351523296364775 a46.36379692874626,46.36379692874626 0 0,0 0.1737662408661915,0.7789599856673343 l -24.801946761060805 5.30901417441918" fill="red" stroke="none" /><line stroke="#e1ed5e" stroke-width="0.3" x1="184.98032266829074" x2="189.97916517819016" y1="98.17113171792111" y2="98.06355123074" /><path d="M 185.9800911702706 98.14961562048488 a86.0,86.0 0 0,1 -9.607161424134198,41.387399972396054" fill="none" id="id76" stroke="none" /><text fill="#e1ed5e" style="font-size:6.75px; font-family:Arial;" text-anchor="middle"><textPath startOffset="21.466115282336823" xlink:href="#id76">April</textPath></text><line stroke="#e1ed5e" stroke-width="0.3" x1="174.80103733775053" x2="179.2010983576182" y1="140.37084112569926" y2="142.7455964860345" /><path d="M 175.68104954172406 140.8457921977663 a86.0,86.0 0 0,1 -30.038265399797805,32.042727171017184" fill="none" id="id77" stroke="none" /><text fill="#e1ed5e" style="font-size:6.75px; font-family:Arial;" text-anchor="middle"><textPath startOffset="22.206326154141568" xlink:href="#id77">May</textPath></text><path d="M 116.71984013943494 112.70617746262583 l 20.624644371294856 15.673618246333062 a46.90440627333831,46.90440627333831 0 0,0 -0.49404451952840467,0.6386191393618964 l -20.351793034548383 -16.02631537980821" fill="red" stroke="none" /><line stroke="#e1ed5e" stroke-width="0.3" x1="143.8653032363475" x2="146.44561519142675" y1="172.8068346515853" y2="177.08958963109032" /><path d="M 144.38136562736335 173.6633856474863 a86.0,86.0 0 0,1 -40.68145358897372,12.25698825130547" fill="none" id="id78" stroke="none" /><text fill="#e1ed5e" style="font-size:6.75px; font-family:Arial;" text-anchor="middle"><textPath startOffset="21.466115282336833" xlink:href="#id78">June</textPath></text><path d="M 108.59647513512805 119.15986991738527 l 10.18993810849519 22.711388744343367 a45.89260969347427,45.89260969347427 0 0,0 -0.7235282978814519,0.317173543254554 l -9.797489135955983 -22.883426840892376" fill="red" stroke="none" /><path d="M 107.59598834532513 119.57807347666477 l 8.97682922578359 23.13708423184006 a45.8174964430368,45.8174964430368 0 0,0 -0.7377266646476632,0.27894509980835575 l -8.577232340375652 -23.288177581755047" fill="red" stroke="none" /><path d="M 107.2578585660854 119.70592522655815 l 8.930770771783026 24.248075302355847 a46.84042999732887,46.84042999732887 0 0,0 -0.7589943857039627,0.27214838298665284 l -8.512056825449328 -24.39821122638246" fill="red" stroke="none" /><path d="M 106.57524785965236 119.94407469862006 l 9.400820301130155 28.514615162196552 a51.02430182672547,51.02430182672547 0 0,0 -0.8365037143132819,0.2678220734064706 l -8.908595241725932 -28.67221008226273" fill="red" stroke="none" /><path d="M 105.88484417918355 120.15858648285463 l 7.590205709366477 26.00031769000025 a48.08556336300649,48.08556336300649 0 0,0 -0.7965461313390969,0.22511189320067948 l -7.141528409922775 -26.12711837653945" fill="red" stroke="none" /><path d="M 105.18746579009965 120.34920634021253 l 6.087278922104854 23.878961297970992 a45.64264103836069,45.64264103836069 0 0,0 -0.7629856767695825,0.18752331600067515 l -5.67533996059206 -23.980205872285698" fill="red" stroke="none" /><path d="M 104.13013068566511 120.58985236759428 l 4.914845255754086 24.50187316754395 a45.98994783120642,45.98994783120642 0 0,0 -0.7775200421064803,0.14901356658300366 l -4.492357599075901 -24.58284393247542" fill="red" stroke="none" /><path d="M 103.7750983002368 120.6578951692458 l 4.603661321794727 25.19191433356353 a46.60910473553093,46.60910473553093 0 0,0 -0.7904705043012518,0.1374334294803513 l -4.169341846021425 -25.26742634156489" fill="red" stroke="none" /><path d="M 101.62511606390274 120.93702456842531 l 1.951272971750913 25.139035332124042 a46.21464978222118,46.21464978222118 0 0,0 -0.7936535099537549,0.05473499274685439 l -1.5182567010182277 -25.168898669387183" fill="red" stroke="none" /><path d="M 100.90346689309514 120.98055641714683 l 1.1009609012961432 25.566816536667563 a46.59051040377665,46.59051040377665 0 0,0 -0.8015334863797562,0.027606433923112735 l -0.6607070632417347 -25.581979769016773" fill="red" stroke="none" /><line stroke="#e1ed5e" stroke-width="0.3" x1="102.19456741930631" x2="102.32365962044197" y1="184.97166512339345" y2="189.96999836594603" /><path d="M 102.22038585953345 185.97133177190398 a86.0,86.0 0 0,1 -42.740103519485714,-10.115201625700543" fill="none" id="id79" stroke="none" /><text fill="#e1ed5e" style="font-size:6.75px; font-family:Arial;" text-anchor="middle"><textPath startOffset="22.20632615414155" xlink:href="#id79">July</textPath></text><path d="M 100.54218724476979 120.99299961872073 l 0.1358781569669112 5.261079313309872 a26.262833686758285,26.262833686758285 0 0,0 -0.4520212739066286,0.007781956158547833 l -0.04529719316761462 -5.262638746747579" fill="red" stroke="none" /><path d="M 99.81925306533755 120.99922214144158 l -0.226974535358843 26.36995585763076 a47.3709326602814,47.3709326602814 0 0,0 -0.8153221233716977,-0.014036509751714225 l 0.6808563486232087 -26.362141870599885" fill="red" stroke="none" /><path d="M 99.09653310690486 120.98055641714683 l -0.872994873261845 20.272926800452638 a41.291714592543734,41.291714592543734 0 0,0 -0.7098476973130067,-0.0366910177817559 l 1.2218306389883407 -20.25489597590868" fill="red" stroke="none" /><path d="M 98.01472825383883 120.90594882070398 l -2.16231035365752 22.77025786291143 a43.87269615084794,43.87269615084794 0 0,0 -0.7511995921367702,-0.07786490919479133 l 2.5539425423998834 -22.729663585260877" fill="red" stroke="none" /><path d="M 97.2962882734958 120.8252237178851 l -3.342131240471603 25.742622667596724 a46.958668360199084,46.958668360199084 0 0,0 -0.8006931683679461,-0.11096877720302599 l 3.78475300002638 -25.681279324901094" fill="red" stroke="none" /><path d="M 96.58105272829116 120.7198165907248 l -6.177056561951953 37.43476247593819 a58.94097349040301,58.94097349040301 0 0,0 -0.9996137300497938,-0.17379566008959269 l 6.820519263473797 -37.3228882373276" fill="red" stroke="none" /><path d="M 95.86986931433489 120.58985236759428 l -4.974177442831625 24.797660653594505 a46.2916273719902,46.2916273719902 0 0,0 -0.7799225251685358,-0.1634403481937436 l 5.400291429429547 -24.70836432467422" fill="red" stroke="none" /><path d="M 95.51606077576429 120.51570834832081 l -4.442176221853612 20.3246269054702 a41.80440790872369,41.80440790872369 0 0,0 -0.7016767359231789,-0.15969934063279048 l 4.791373107169654 -20.24515083125972" fill="red" stroke="none" /><path d="M 94.81253420990036 120.34920634021253 l -6.281345174752094 24.64023749305025 a46.42826382036927,46.42826382036927 0 0,0 -0.7727200918518389,-0.20408239940169642 l 6.704555709415422 -24.528463744344972" fill="red" stroke="none" /><path d="M 94.11515582081647 120.15858648285463 l -10.875161576334483 37.25296345603021 a59.80789127958003,59.80789127958003 0 0,0 -0.9857622808485541,-0.2970020888883761 l 11.514798831623283 -37.0602459980361" fill="red" stroke="none" /><path d="M 93.42475214034765 119.94407469862007 l -7.920307697641215 24.023916927469834 a46.295846666266904,46.295846666266904 0 0,0 -0.7546890263409711,-0.25603149289727267 l 8.332666456919412 -23.88402244767444" fill="red" stroke="none" /><path d="M 92.40401165467489 119.57807347666478 l -9.263342276942184 23.875549499636183 a46.6095953511445,46.6095953511445 0 0,0 -0.7454847967936584,-0.29664378569699007 l 9.672948149777701 -23.712558869533126" fill="red" stroke="none" /><path d="M 91.7346041902142 119.30500536409082 l -7.0716678668127475 16.51688427797468 a38.9670796923295,38.9670796923295 0 0,0 -0.6143425930997335,-0.2693097389503296 l 7.354931134570224 -16.392709985729898" fill="red" stroke="none" /><path d="M 91.07499286063937 119.00905698771935 l -10.81784253104538 23.040540130206228 a46.453726770713516,46.453726770713516 0 0,0 -0.7208895751787409,-0.3460708044731392 l 11.212844774224363 -22.850915049233528" fill="red" stroke="none" /><path d="M 90.10565033884886 118.52300852407294 l -11.897088990243688 22.272295635881097 a46.250660968257165,46.250660968257165 0 0,0 -0.6989954632058227,-0.3811480591831725 l 12.278707265318152 -22.064206924938162" fill="red" stroke="none" /><line stroke="#e1ed5e" stroke-width="0.3" x1="58.666819895761336" x2="56.23545636021788" y1="174.27360380694188" y2="178.64263932499728" /><path d="M 58.180547188652646 175.14741091055294 a86.0,86.0 0 0,1 -31.652253787137756,-30.449443065178592" fill="none" id="id80" stroke="none" /><text fill="#e1ed5e" style="font-size:6.75px; font-family:Arial;" text-anchor="middle"><textPath startOffset="22.20632615414155" xlink:href="#id80">August</textPath></text><path d="M 89.4739219176387 118.17145234162733 l -8.678855692825053 14.982542535600627 a38.31470811096635,38.31470811096635 0 0,0 -0.5678461036334368,-0.3354934871234642 l 8.93546966748687 -14.830930476183413" fill="red" stroke="none" /><path d="M 88.8546689885994 117.79835938074946 l -13.218859167381787 21.109647243667595 a45.90693566939049,45.90693566939049 0 0,0 -0.6661275576535468,-0.4251541240290613 l 13.580268527082257 -20.87897869081473" fill="red" stroke="none" /><path d="M 88.54995079064634 117.60387380957326 l -10.586637168601646 16.276421295338803 a40.41645633793603,40.41645633793603 0 0,0 -0.579928613423417,-0.3843450624362929 l 10.865240480765026 -16.091778211811192" fill="red" stroke="none" /><path d="M 87.95078237400918 117.19931262002967 l -14.577421327912406 20.808125008202474 a46.40628424088136,46.40628424088136 0 0,0 -0.6502905365794404,-0.46396503156482005 l 14.933439192340733 -20.554115714793436" fill="red" stroke="none" /><path d="M 87.36589467227662 116.77436683061367 l -23.45744498146559 31.1445707330466 a59.990204041582395,59.990204041582395 0 0,0 -0.819498386254472,-0.6283564173760487 l 23.99007209621355 -30.736174973843184" fill="red" stroke="none" /><path d="M 86.79598089348748 116.32954008644616 l -15.374192197607831 19.013414458309864 a45.451497195314076,45.451497195314076 0 0,0 -0.6041366937894979,-0.49716336957203827 l 15.699199019942018 -18.745955969880644" fill="red" stroke="none" /><path d="M 86.51685102203217 116.09983520530335 l -28.17983291929109 33.6487171398108 a64.89008029742209,64.89008029742209 0 0,0 -0.8501667294051313,-0.724530530772366 l 28.754865125273277 -33.15866221881548" fill="red" stroke="none" /><path d="M 85.97065885151581 115.62618273729859 l -17.016940608664967 18.95383544860809 a46.47202673309965,46.47202673309965 0 0,0 -0.5906383272501273,-0.5395341080434147 l 17.34067848538195 -18.658108573978097" fill="red" stroke="none" /><path d="M 84.9287848128048 114.62390073753433 l -18.328430765394092 17.784441988169597 a46.53855421029966,46.53855421029966 0 0,0 -0.5529078277983333,-0.5797216469501865 l 18.631845144571383 -17.46631322463691" fill="red" stroke="none" /><path d="M 84.67929136418377 114.36230785411682 l -33.0226217326026 30.956861771062542 a66.26390213853895,66.26390213853895 0 0,0 -0.772932421383553,-0.8388654874046243 l 33.55060056198189 -30.383845028856573" fill="red" stroke="none" /><path d="M 84.19399662182784 113.82643327865904 l -18.497514646115953 16.180855207758178 a45.575966376476615,45.575966376476615 0 0,0 -0.5114437076270022,-0.594924576744587 l 18.773300863313732 -15.86005353185206" fill="red" stroke="none" /><path d="M 83.28015986056508 112.70617746262583 l -25.1563412100083 19.117463627588002 a52.59618519104026,52.59618519104026 0 0,0 -0.5415872601133939,-0.7255446398470301 l 25.48168973681678 -18.681606108231662" fill="red" stroke="none" /><path d="M 83.06392112726016 112.41649034213515 l -26.72279301296382 19.591506620485184 a54.135099186123206,54.135099186123206 0 0,0 -0.5444965185647632,-0.7562580412751423 l 27.05606932390419 -19.128614973758904" fill="red" stroke="none" /><path d="M 82.6465618267979 111.8261652097733 l -29.909014578274256 20.382643723616766 a57.19394035204396,57.19394035204396 0 0,0 -0.547419257146893,-0.8183175146144451 l 30.25543694083188 -19.864789294796502" fill="red" stroke="none" /><path d="M 82.24976979558568 111.22182372390057 l -19.00937451574194 12.017863850814342 a43.48967254133437,43.48967254133437 0 0,0 -0.39458668706598804,-0.6361993786867264 l 19.213425842475885 -11.68886814076235" fill="red" stroke="none" /><line stroke="#e1ed5e" stroke-width="0.3" x1="26.63291911575756" x2="22.317208475507996" y1="142.92168965132927" y2="145.44649492493687" /><path d="M 25.769776987707644 143.4266507060508 a86.0,86.0 0 0,1 -11.730757126820373,-40.83630448921669" fill="none" id="id81" stroke="none" /><text fill="#e1ed5e" style="font-size:6.75px; font-family:Arial;" text-anchor="middle"><textPath startOffset="21.46611528233685" xlink:href="#id81">September</textPath></text><path d="M 81.87401531095188 110.60418214915194 l -29.57081087334303 17.299709239438805 a55.259492049301414,55.259492049301414 0 0,0 -0.47325282565240195,-0.8251561921243619 l 29.864215695147813 -16.788133201456134" fill="red" stroke="none" /><path d="M 81.69416730710424 110.29060199501025 l -18.58575875070406 10.447962094234546 a42.32112427293492,42.32112427293492 0 0,0 -0.3515144024635183,-0.6381007447314625 l 18.762849562619095 -10.126490831105261" fill="red" stroke="none" /><path d="M 81.35079622478065 109.6543875284942 l -30.24201094559736 15.655794039728432 a55.05412035346129,55.05412035346129 0 0,0 -0.4284294086623625,-0.8453318683993849 l 30.507019024045988 -15.132907959626362" fill="red" stroke="none" /><path d="M 81.02952815118164 109.00673069616217 l -41.25566949386543 19.58721468724373 a66.66934688159265,66.66934688159265 0 0,0 -0.4832746130518546,-1.0409305223857683 l 41.586718723757116 -18.874164097579136" fill="red" stroke="none" /><path d="M 80.73074385275274 108.34839909993369 l -23.324320211066603 10.1052543164439 a46.41928555464095,46.41928555464095 0 0,0 -0.311338610672634,-0.735912507691279 l 23.49480980293154 -9.702267283086464" fill="red" stroke="none" /><path d="M 80.58989483394504 108.01547362559985 l -16.329371225427494 6.7432733238840905 a38.666921059947775,38.666921059947775 0 0,0 -0.2487523785673762,-0.6173830035701349 l 16.443026218252257 -6.46119095247115" fill="red" stroke="none" /><path d="M 80.32549172779594 107.34259656027581 l -18.015789631264745 6.7235568557545475 a40.22953178916612,40.22953178916612 0 0,0 -0.2365414841467192,-0.6508605738467443 l 18.128855376416688 -6.412448484901685" fill="red" stroke="none" /><path d="M 79.97269907076064 106.31721596034903 l -23.47955512161763 7.406161263579271 a45.61992553545243,45.61992553545243 0 0,0 -0.2297793696149906,-0.7509322748471421 l 23.60356126373875 -7.000902016180081" fill="red" stroke="none" /><path d="M 79.86692584326677 105.97154293290107 l -5.726468353234618 1.6984913162803568 a26.973048848961255,26.973048848961255 0 0,0 -0.1281956609884347,-0.44626591359147383 l 5.754856651109157 -1.5996679271842869" fill="red" stroke="none" /><path d="M 79.76711848015287 105.62410040840567 l -23.047220993663817 6.406397668860558 a44.92104359392291,44.92104359392291 0 0,0 -0.200672833918138,-0.7467782671359696 l 23.154081903923732 -6.00872846854905" fill="red" stroke="none" /><path d="M 79.58551787078972 104.9243191809786 l -15.759217550706152 3.80139044287179 a37.2112154729262,37.2112154729262 0 0,0 -0.14483922351395984,-0.6239635841034767 l 15.822317340150667 -3.5295582014197393" fill="red" stroke="none" /><path d="M 79.35854240842038 103.8639653848113 l -42.39142215847921 7.935437073983843 a64.12776175705805,64.12776175705805 0 0,0 -0.19376831563382152,-1.0867556174659363 l 42.52173691645222 -7.204562705784693" fill="red" stroke="none" /><path d="M 79.29508885075956 103.50808413554451 l -26.88161620093351 4.554618498604407 a48.264736185082015,48.264736185082015 0 0,0 -0.13173571449257282,-0.8203184198968236 l 26.956033669787377 -4.09122084901437" fill="red" stroke="none" /><path d="M 79.23777060512086 103.15116336523772 l -26.270836977863464 3.9872259131860788 a47.57169256935397,47.57169256935397 0 0,0 -0.11590718071702863,-0.8106545519761738 l 26.33557820959709 -3.5344258892295044" fill="red" stroke="none" /><path d="M 79.1416061653843 102.43462659150553 l -26.6613630887748 3.111958862047785 a47.842365203360174,47.842365203360174 0 0,0 -0.08843478609240961,-0.8187962868485316 l 26.710980176368263 -2.6525662533144714" fill="red" stroke="none" /><path d="M 79.07016306316243 101.71520430193888 l -28.594656392944543 2.343337781639365 a49.69051421967586,49.69051421967586 0 0,0 -0.06252354225821978,-0.853084058927755 l 28.6307564938671 -1.8507805862148492" fill="red" stroke="none" /><path d="M 79.0235259727143 100.99374915477108 l -27.982718710847763 1.3256662216409718 a49.01410247324782,49.01410247324782 0 0,0 -0.032671090230388104,-0.8430956681202212 l 28.00139193392935 -0.8437933065067537" fill="red" stroke="none" /><path d="M 79.0095281055655 100.63252640178507 l -31.9546461591763 0.9629205792528277 a52.96915118047568,52.96915118047568 0 0,0 -0.019618606548100152,-0.9115995564560109 l 31.96648682840941 -0.41273120700668786" fill="red" stroke="none" /><line stroke="#e1ed5e" stroke-width="0.3" x1="15.007084014347285" x2="10.007500721073583" y1="101.09737516637583" y2="101.16192664675087" /><path d="M 14.007167355692545 101.11028546245083 a86.0,86.0 0 0,1 10.666146001902534,-42.60595125391555" fill="none" id="id82" stroke="none" /><text fill="#e1ed5e" style="font-size:6.75px; font-family:Arial;" text-anchor="middle"><textPath startOffset="22.20632615414155" xlink:href="#id82">October</textPath></text><path d="M 79.00019446554 99.90962569577889 l -20.710361356662133 -0.08912865858233512 a41.710553141847875,41.710553141847875 0 0,0 0.009269659744245299,-0.7179453627152319 l 20.705758689800174 0.445610279358039" fill="red" stroke="none" /><path d="M 79.01574976396665 99.18683210126434 l -49.782051293697364 -1.9291213929451578 a70.81941529521431,70.81941529521431 0 0,0 0.05768879346259442,-1.217719252312118 l 49.741468892001265 2.785751751880285" fill="red" stroke="none" /><path d="M 79.05617556472873 98.46500227214037 l -27.939408647382805 -2.0477123900661134 a49.01434778105461,49.01434778105461 0 0,0 0.06891304373744406,-0.8409136839357992 l 27.900021119825862 2.5283399912096907" fill="red" stroke="none" /><path d="M 79.08570108090925 98.10471618934814 l -29.308302688283558 -2.655960489886837 a50.42840010248415,50.42840010248415 0 0,0 0.08578320947177752,-0.8638252125852744 l 29.25824235312955 3.160061233176542" fill="red" stroke="none" /><path d="M 79.16333360222342 97.38593545837743 l -28.564287230260266 -3.5835334203610048 a49.78819578833752,49.78819578833752 0 0,0 0.11400074539024635,-0.8494379682216623 l 28.49837048581219 4.074689730647326" fill="red" stroke="none" /><path d="M 79.26566170972629 96.67025291283419 l -31.244771412683743 -5.0176275289840415 a52.64509956771313,52.64509956771313 0 0,0 0.15138759823698608,-0.8934981743552963 l 31.153771952926533 5.554711491655166" fill="red" stroke="none" /><path d="M 79.3925641242962 95.95851677861259 l -31.719811691759034 -6.220816966799569 a53.32406251533174,53.32406251533174 0 0,0 0.18440147450172553,-0.8992070785211218 l 31.608030921342316 6.765899701484094" fill="red" stroke="none" /><path d="M 79.46518482838121 95.60439243477599 l -33.66178269635493 -7.205518308415342 a55.424338895460714,55.424338895460714 0 0,0 0.2077241222749546,-0.931186509551421 l 33.532764187077944 7.783882987516722" fill="red" stroke="none" /><path d="M 79.62865764111835 94.90015583598534 l -23.50596614368629 -5.884578548901554 a45.23135796950552,45.23135796950552 0 0,0 0.19557967705325274,-0.753648277657565 l 23.401190134762732 6.288323252107983" fill="red" stroke="none" /><path d="M 79.81627453868168 94.20196356495316 l -38.52383462858426 -11.066470222373992 a61.081823781774176,61.081823781774176 0 0,0 0.2989929180203943,-1.0080554822233 l 38.327635813452154 11.72795509134383" fill="red" stroke="none" /><path d="M 80.65960295795068 91.81776055985345 l -52.73453890475608 -22.310122338559637 a78.25969919811604,78.25969919811604 0 0,0 0.5355545628422183,-1.2361337699243105 l 52.34269363207118 23.214555253070547" fill="red" stroke="none" /><path d="M 80.95270993114464 91.15688171328213 l -27.92081945600699 -12.962847114681514 a51.78323511935588,51.78323511935588 0 0,0 0.38231268102962757,-0.8052480081378673 l 27.69354858113561 13.441537538459913" fill="red" stroke="none" /><path d="M 81.10775173730289 90.83032412892265 l -28.043160095702195 -13.61122746762001 a52.17185174686415,52.17185174686415 0 0,0 0.3990897899434631,-0.8045406637369362 l 27.80471029280532 14.091927719855908" fill="red" stroke="none" /><path d="M 81.43458229118936 90.18545643968196 l -19.12790272826104 -10.111899311317519 a42.63624668153051,42.63624668153051 0 0,0 0.3485856302353379,-0.6458762318439337 l 18.951008998807232 10.439656526493925" fill="red" stroke="none" /><line stroke="#e1ed5e" stroke-width="0.3" x1="26.266209847984243" x2="21.928928074336255" y1="57.711370442889674" y2="55.22380399835377" /><path d="M 25.398753493254645 57.213857153982495 a86.0,86.0 0 0,1 29.58750427330803,-30.492523968695096" fill="none" id="id83" stroke="none" /><text fill="#e1ed5e" style="font-size:6.75px; font-family:Arial;" text-anchor="middle"><textPath startOffset="21.46611528233685" xlink:href="#id83">November</textPath></text><path d="M 81.78341655067845 89.55222093294921 l -30.385254554301277 -17.42689167607123 a56.02799234639643,56.02799234639643 0 0,0 0.48701752198501647,-0.8324708141216317 l 30.080777357845935 17.94734190254675" fill="red" stroke="none" /><path d="M 83.6137871275137 86.86637796730984 l -32.19239433007144 -25.802346323011225 a62.25665193002731,62.25665193002731 0 0,0 0.6774161354422099,-0.8304320834666757 l 31.743479702552833 26.352662576085983" fill="red" stroke="none" /><path d="M 83.84228863543731 86.58626213691792 l -29.871257788821243 -24.798389609718193 a59.823345671407466,59.823345671407466 0 0,0 0.6645786481347786,-0.7866515004953781 l 29.43996852719934 25.308900059842685" fill="red" stroke="none" /><path d="M 84.31358615837235 86.03803664274999 l -23.98832065952606 -21.35121879555831 a53.114079032724064,53.114079032724064 0 0,0 0.6137366214339276,-0.6777033063601394 l 23.61724039747609 21.760974889188006" fill="red" stroke="none" /><path d="M 84.80347519578584 85.50635884689758 l -45.58957441264248 -43.480923459307235 a84.0,84.0 0 0,0 1.0069429451875265,-1.0377432177995054 l 44.83436720375183 44.259230872656865" fill="red" stroke="none" /><path d="M 85.31137513191541 84.99185889309783 l -29.483791084568825 -30.125141116857687 a63.15231979415949,63.15231979415949 0 0,0 0.7834398814821484,-0.753668545267214 l 28.96086795947425 30.628192748887216" fill="red" stroke="none" /><path d="M 85.57189188830299 84.74124197986013 l -22.722651454914025 -24.030831862524174 a54.072643818515836,54.072643818515836 0 0,0 0.6818099897862762,-0.6336680791693242 l 22.305633581332895 24.418404527768146" fill="red" stroke="none" /><path d="M 86.10567301691215 84.25364557470407 l -13.509092703557746 -15.309770810296952 a41.41775374366969,41.41775374366969 0 0,0 0.5386402568341431,-0.46710352287733625 l 13.24355864807683 15.54003932659397" fill="red" stroke="none" /><path d="M 86.65592168130627 83.78471172551755 l -23.680290872069197 -28.775516280976536 a58.266426083306534,58.266426083306534 0 0,0 0.7799283023719148,-0.6306477801402659 l 23.181459171132783 29.178870158380935" fill="red" stroke="none" /><path d="M 87.22198572758235 83.33499621200491 l -17.391479844823987 -22.681855827822233 a49.58199004595433,49.58199004595433 0 0,0 0.6817614442896446,-0.513488585441949 l 16.998472246775954 22.977861002770034" fill="red" stroke="none" /><path d="M 87.51073957382395 83.11751280151077 l -15.530253402499488 -20.993180965901956 a47.11326134003478,47.11326134003478 0 0,0 0.6561187590829276,-0.47669818189585195 l 15.166589327062779 21.257398382614475" fill="red" stroke="none" /><path d="M 88.09926311788651 82.69761687909137 l -20.113944203428897 -29.243497451268773 a56.49299782493745,56.49299782493745 0 0,0 0.8059541403453729,-0.5441838332629642 l 19.607585368676986 29.585393196830402" fill="red" stroke="none" /><path d="M 88.70189139769569 82.29822771554957 l -11.394486910264234 -17.85277692785766 a42.179140114367954,42.179140114367954 0 0,0 0.6153752714500006,-0.38534793852735616 l 11.085492486441993 18.046269207707947" fill="red" stroke="none" /><line stroke="#e1ed5e" stroke-width="0.3" x1="56.762969772571076" x2="54.21961505331055" y1="26.818313649435495" y2="22.513508569990535" /><path d="M 56.25429882871897 25.957352633546506 a86.0,86.0 0 0,1 42.265352541879196,-11.944610805530505" fill="none" id="id84" stroke="none" /><text fill="#e1ed5e" style="font-size:6.75px; font-family:Arial;" text-anchor="middle"><textPath startOffset="22.20632615414155" xlink:href="#id84">December</textPath></text><path d="M 89.63071344664047 81.73862282372117 l -14.916280978396967 -26.269100734380682 a51.208626112743474,51.208626112743474 0 0,0 0.7702653057491371,-0.4286518087008458 l 14.461891583575785 26.521967940641712" fill="red" stroke="none" /><path d="M 90.26544431104013 81.39251694778311 l -14.292433191401793 -27.31980964324496 a51.832541988519594,51.832541988519594 0 0,0 0.7941227041152964,-0.40678049294102164 l 13.820049999697734 27.561782661498487" fill="red" stroke="none" /><path d="M 90.91171255644093 81.06846463323043 l -11.946336107309484 -24.885049677772752 a48.60399688186521,48.60399688186521 0 0,0 0.7573469903653421,-0.3555845668909704 l 11.516210905644533 25.086999227303732" fill="red" stroke="none" /><path d="M 91.56875222667455 80.76684994638697 l -10.14959658195439 -23.153004073959565 a46.27995072038726,46.27995072038726 0 0,0 0.732360919668991,-0.3135587254455092 l 9.749551904495089 23.32428232736786" fill="red" stroke="none" /><path d="M 91.90106846888425 80.62456947434976 l -9.566432057945311 -22.886196655071263 a45.80513292957485,45.80513292957485 0 0,0 0.730081754627483,-0.29781867897369557 l 9.171066433729449 23.047476220228535" fill="red" stroke="none" /><path d="M 92.57280143429618 80.3572730644239 l -8.849574523422238 -23.404487482305747 a46.021690661404364,46.021690661404364 0 0,0 0.7433986128655166,-0.27379998291734053 l 8.445393584784151 23.553350733029408" fill="red" stroke="none" /><path d="M 93.25333710446033 80.11325718540243 l -15.761991219241326 -46.4606977518067 a70.06156135693377,70.06156135693377 0 0,0 1.1453970244929894,-0.37761939059878613 l 14.959911372505928 46.72513086666472" fill="red" stroke="none" /><path d="M 94.28887869178378 79.79150937346287 l -1.5730233108863956 -5.566057017146548 a26.784063714614348,26.784063714614348 0 0,0 0.4447456929739203,-0.1215657982556563 l 1.4769797286887527 5.592309356228501" fill="red" stroke="none" /><path d="M 94.98787191387505 79.60689891045804 l -4.5092607027588265 -18.34705892792847 a39.89306760138027,39.89306760138027 0 0,0 0.668258868407997,-0.15815528357407077 l 4.192778147388296 18.42196012364341" fill="red" stroke="none" /><path d="M 95.692805502759 79.44645832069477 l -10.011567873620617 -47.77429431094035 a69.81203425587239,69.81203425587239 0 0,0 1.178272855414863,-0.2363504501807037 l 9.187728608738619 47.939548717198264" fill="red" stroke="none" /><path d="M 96.40284397218896 79.31037775812273 l -3.0288444760046453 -17.420886820988567 a38.68222826709114,38.68222826709114 0 0,0 0.6569914792542969,-0.10840922339717667 l 2.728523790611463 17.47044230732537" fill="red" stroke="none" /><path d="M 96.75951476605007 79.25152402106235 l -2.778845779341473 -17.792648550834247 a39.00834046543068,39.00834046543068 0 0,0 0.6643139320208747,-0.09790260505976535 l 2.4721628668919498 17.837845640054983" fill="red" stroke="none" /><path d="M 98.19473922651362 79.07773832637324 l -2.6489991599650033 -30.7008574118466 a51.81492888799245,51.81492888799245 0 0,0 0.88926708136788,-0.06902424049357453 l 2.120141889234789 30.741906914528638" fill="red" stroke="none" /><path d="M 98.91598698831166 79.02799685794201 l -0.9722831912645655 -18.810407183593046 a39.835518389908586,39.835518389908586 0 0,0 0.6850934601447217,-0.029501565526210468 l 0.6483488987305197 18.824356475643448" fill="red" stroke="none" /><path d="M 99.63851952072746 79.00311137660856 l -0.42575588663640146 -24.730378111836448 a45.73404272716866,45.73404272716866 0 0,0 0.7872363659089311,-0.006775991940768782 l 6.0580932511601935e-15 24.734042727168656" fill="red" stroke="none" /></svg>