<?xml version="1.0" encoding="utf-8" ?>
<svg baseProfile="full" height="200mm" version="1.1" viewBox="0,0,200,200" width="200mm" xmlns="http://www.w3.org/2000/svg" xmlns:ev="http://www.w3.org/2001/xml-events" xmlns:xlink="http://www.w3.org/1999/xlink"><defs /><rect fill="#1a1a1a" height="200" width="200" x="0" y="0" /><rect fill="#1a1a1a" height="200" width="180" x="10" y="0" /><text alignment-baseline="middle" fill="#e1ed5e" style="dominant-baseline: central; font-size:9.0px; font-family:Arial;" text-anchor="middle" x="100.0" y="100.0">2024</text><line stroke="#e1ed5e" stroke-width="0.3" x1="100.0" x2="100.0" y1="15.0" y2="10.0" /><path d="M 100.0 14.0 a86.0,86.0 0 0,1 42.35913384403234,11.155469271406648" fill="none" id="id61" stroke="none" /><text fill="#e1ed5e" style="font-size:6.75px; font-family:Arial;" text-anchor="middle"><textPath startOffset="22.145653131862478" xlink:href="#id61">January</textPath></text><path d="M 100.72087961077811 79.0123766808444 l 1.027347698287591 -29.910107300979195 a50.92774568939775,50.92774568939775 0 0,0 0.8734696222853751,0.037510543889402094 l -1.5406430811738023 29.88806418866396" fill="#9fff22" stroke="none" /><path d="M 102.15924093988457 79.11130261209362 l 5.534212029556633 -53.53848115352041 a74.82375374324936,74.82375374324936 0 0,0 1.2765078416032973,0.14303536619221133 l -6.452455772760727 53.435590026821224" fill="#41ffcf" stroke="none" /><path d="M 103.23170211078529 79.25015418208739 l 2.3067785317234173 -14.811172944928574 a35.98973219237102,35.98973219237102 0 0,0 0.609636066662929,0.10031538277565419 l -2.560692101439417 14.769391563657251" fill="#ffa20f" stroke="none" /><path d="M 105.3480935250658 79.69241777938227 l 4.581080672131549 -17.395109485758194 a38.988222095195844,38.988222095195844 0 0,0 0.645753751866575,0.17600305661061946 l -4.879015824932816 17.313905935003433" fill="#ffca12" stroke="none" /><path d="M 106.38641147887787 79.99465700312896 l 5.465009257964504 -17.119063663255417 a38.97021610599688,38.97021610599688 0 0,0 0.6355434726313176,0.2089157629512966 l -5.758075468243564 17.0227269789021" fill="#ffca12" stroke="none" /><path d="M 108.07796709384702 80.6158196554323 l 8.05995647993543 -19.340961427713648 a41.95317845594697,41.95317845594697 0 0,0 0.6623905933860759,0.282735156137121 l -8.390782148491935 19.199751621917123" fill="#fff116" stroke="none" /><path d="M 109.3889696526874 81.21577127319529 l 14.712958389448362 -29.43577259899363 a53.907990717594764,53.907990717594764 0 0,0 0.8242089691207978,0.4208469723544924 l -15.21609458028274 29.178867674966302" fill="#7dff26" stroke="none" /><path d="M 110.34350942703115 81.72400993836675 l 7.439523995032212 -13.144926057800882 a36.10415831278634,36.10415831278634 0 0,0 0.536761436514883,0.3098993598624779 l -7.664077899407492 13.015279800662233" fill="#ffa30f" stroke="none" /><line stroke="#e1ed5e" stroke-width="0.3" x1="143.13028292997686" x2="145.6673583964461" y1="26.7553504044142" y2="22.446841604673864" /><path d="M 143.63769802327073 25.89364864446614 a86.0,86.0 0 0,1 29.32050498858742,28.57503671076993" fill="none" id="id62" stroke="none" /><text fill="#e1ed5e" style="font-size:6.75px; font-family:Arial;" text-anchor="middle"><textPath startOffset="20.669276256404974" xlink:href="#id62">February</textPath></text><path d="M 113.86319453409587 84.22622945171908 l 19.758422078399413 -22.481457321704266 a50.93010468300757,50.93010468300757 0 0,0 0.6517476340890815,0.5827967532777985 l -20.14143473931187 22.13896503854308" fill="#9fff22" stroke="none" /><path d="M 114.91283532996326 85.21462403516908 l 21.23700596118612 -21.05549418041257 a50.90558906587266,50.90558906587266 0 0,0 0.6099294335317371,0.6258413306539425 l -21.59532219586867 20.687830157690886" fill="#9fff22" stroke="none" /><path d="M 115.8921839302757 86.27271002978787 l 15.181102558882833 -13.11307481763449 a41.06037402632859,41.06037402632859 0 0,0 0.45617183260827737,0.5373692717847967 l -15.403968954998222 12.85053876340014" fill="#ffe615" stroke="none" /><path d="M 116.7966241395341 87.39550010848427 l 11.983548442396676 -8.99267815885961 a35.98244618679134,35.98244618679134 0 0,0 0.3665034557042066,0.49723232668947975 l -12.136153917684709 8.785639522901254" fill="#ffa20f" stroke="none" /><path d="M 117.42321728460499 88.27688183743584 l 17.190012857972704 -11.56620781674307 a41.71892143228878,41.71892143228878 0 0,0 0.3946919106277234,0.5976138581344934 l -17.38602920752115 11.269414080269517" fill="#ffee16" stroke="none" /><line stroke="#e1ed5e" stroke-width="0.3" x1="172.87174338648825" x2="177.1583165268699" y1="56.24261187166439" y2="53.66864786411523" /><path d="M 173.72905801456457 55.72781907015455 a86.0,86.0 0 0,1 12.242430191666344,42.057860355516425" fill="none" id="id63" stroke="none" /><text fill="#e1ed5e" style="font-size:6.75px; font-family:Arial;" text-anchor="middle"><textPath startOffset="22.145653131862474" xlink:href="#id63">March</textPath></text><path d="M 118.70294669586156 90.45014215332178 l 26.632416762206528 -13.598701762265097 a50.903349514977265,50.903349514977265 0 0,0 0.39069553774463434,0.7816527920544082 l -26.8619322131629 13.139517114046939" fill="#9fff22" stroke="none" /><path d="M 119.16976305983485 91.42560881287824 l 21.13728696604095 -9.454439604473995 a44.15537364240558,44.15537364240558 0 0,0 0.303549518135442,0.6945807017764892 l -21.29647036619336 9.090196832921656" fill="#f1ff19" stroke="none" /><path d="M 119.31412917781788 91.75594674310238 l 37.140342132477215 -15.853003555096521 a61.38220815452475,61.38220815452475 0 0,0 0.4053393274435483,0.9726668272635397 l -37.407007304457245 15.213104218391704" fill="#30ff31" stroke="none" /><path d="M 119.58574465831526 92.42381321644754 l 4.003115374817263 -1.5484910236920733 a25.292173942718687,25.292173942718687 0 0,0 0.15316135548294088,0.4062786920821812 l -4.029107414114645 1.4795440514157343" fill="#ff0701" stroke="none" /><path d="M 119.71291397450082 92.76114493625339 l 11.14451559232483 -4.092420493127347 a32.872157903268466,32.872157903268466 0 0,0 0.18996949968710994,0.5313785007850677 l -11.213125262055883 3.900507035961362" fill="#ff760a" stroke="none" /><path d="M 119.94978838288452 93.4421083053983 l 12.024917023579627 -3.952829070851792 a33.65794166076563,33.65794166076563 0 0,0 0.17571895239669222,0.550437115643603 l -12.091000691753576 3.745822921516802" fill="#ff820b" stroke="none" /><path d="M 120.16314734710363 94.1308016681162 l 22.07881062834299 -6.4268199938767685 a43.995171101688406,43.995171101688406 0 0,0 0.20485305579808877,0.7269512266103343 l -22.18588217621566 6.0468608433634214" fill="#f3ff19" stroke="none" /><path d="M 120.35273937422433 94.82641323984039 l 12.60967134905058 -3.205329147192421 a34.01068585712945,34.01068585712945 0 0,0 0.138978146584651,0.5670782644741772 l -12.662837022151521 2.988395058110149" fill="#ff860c" stroke="none" /><path d="M 120.43855184770803 95.1765574152323 l 16.73470260683595 -3.9493442489805077 a38.19440581515387,38.19440581515387 0 0,0 0.14511898730038017,0.6394210342956047 l -16.800032455693994 3.6614888807458765" fill="#ffc011" stroke="none" /><path d="M 120.82617615685814 97.30363454192243 l 19.427855731939708 -2.515324883721688 a40.59000861693869,40.59000861693869 0 0,0 0.0835340710060174,0.6917819398921672 l -19.46817188920539 2.1814492669061076" fill="#ffe014" stroke="none" /><path d="M 120.86939407059847 97.66154086499901 l 19.17326208512896 -2.1484040082363576 a40.2932531929597,40.2932531929597 0 0,0 0.0711225949996898,0.6880465894049611 l -19.207317072610316 1.8189528965484651" fill="#ffdc14" stroke="none" /><path d="M 120.93736805541906 98.37931529534042 l 17.66835487322459 -1.367642409673419 a38.7212079071077,38.7212079071077 0 0,0 0.04560996678694125,0.6631589070704036 l -17.689228801176597 1.0641400784486812" fill="#ffc712" stroke="none" /><path d="M 120.98066250479742 99.09900007780936 l 45.53408720803686 -1.9554296258319817 a66.57605514840756,66.57605514840756 0 0,0 0.03923331052269733,1.1422350285716625 l -45.56094520555641 1.1734883326961991" fill="#36ff71" stroke="none" /><line stroke="#e1ed5e" stroke-width="0.3" x1="184.99686870605535" x2="189.99668451229388" y1="99.2704041080226" y2="99.22748670261217" /><path d="M 185.99683186730306 99.26182062694052 a86.0,86.0 0 0,1 -10.086455211305974,41.156179273409016" fill="none" id="id64" stroke="none" /><text fill="#e1ed5e" style="font-size:6.75px; font-family:Arial;" text-anchor="middle"><textPath startOffset="21.40746469413373" xlink:href="#id64">April</textPath></text><path d="M 120.99922638620191 99.81974689727618 l 19.760770505220727 -0.16962244847838828 a40.761498494168634,40.761498494168634 0 0,0 0.0,0.699751102404428 l -19.760770505220727 -0.1696224484783859" fill="#ffe215" stroke="none" /><path d="M 120.99922638620191 100.18025310272382 l 19.982836191083805 0.17152861531278013 a40.98357236095588,40.98357236095588 0 0,0 -0.01207760194698573,0.7034597643862518 l -19.976947157538152 -0.5145352956681031" fill="#ffe515" stroke="none" /><path d="M 120.93736805541906 101.62068470465957 l 48.72491791009961 3.771616804159535 a69.87067340096067,69.87067340096067 0 0,0 -0.10283092354728651,1.1950512043483128 l -48.652993363854584 -4.607489055883505" fill="#3bff98" stroke="none" /><path d="M 120.86939407059847 102.33845913500097 l 19.805338843714967 2.2192295274218705 a40.92928564725153,40.92928564725153 0 0,0 -0.08423230174078586,0.6975642920075859 l -19.764324455714515 -2.558887496352865" fill="#ffe415" stroke="none" /><path d="M 120.82617615685814 102.69636545807757 l 22.38079669831269 2.897642211756406 a43.56759604473983,43.56759604473983 0 0,0 -0.10239522691978314,0.7408808538663011 l -22.327756954837696 -3.281411373822792" fill="#f8ff18" stroke="none" /><path d="M 120.7213421655516 103.40968896794604 l 19.648806914070306 3.233203700462319 a40.913041438090275,40.913041438090275 0 0,0 -0.11998272018631284,0.6920284458675405 l -19.59040937639176 -3.570025179250447" fill="#ffe415" stroke="none" /><path d="M 120.592083275326 104.11899336999214 l 18.39102778296674 3.678720627366047 a39.75534292856473,39.75534292856473 0 0,0 -0.13960238069117986,0.6680479282379733 l -18.3251676914512 -3.993885006889429" fill="#ffd513" stroke="none" /><path d="M 120.43855184770803 104.8234425847677 l 21.30254599484512 5.027342850957968 a42.88772811425549,42.88772811425549 0 0,0 -0.17525247769432672,0.7150899140475243 l -21.213105990634496 -5.3922885896135915" fill="#fffd17" stroke="none" /><path d="M 120.35273937422433 105.17358676015961 l 17.57750789382965 4.468133770301566 a39.136510225149514,39.136510225149514 0 0,0 -0.17110206301247424,0.6497024026333453 l -17.498216350012445 -4.769216677307715" fill="#ffcc13" stroke="none" /><path d="M 120.16314734710363 105.8691983318838 l 19.242874358579616 5.601320277126697 a41.04153193812867,41.04153193812867 0 0,0 -0.20271327263387004,0.6747665556793412 l -19.143884765942115 -5.930824436396762" fill="#ffe515" stroke="none" /><path d="M 119.94978838288452 106.5578916946017 l 45.13496862970106 14.836760682973594 a68.51099726134919,68.51099726134919 0 0,0 -0.37685804601436235,1.1141138497550536 l -44.87362516211434 -15.609376207202809" fill="#39ff88" stroke="none" /><path d="M 119.71291397450082 107.23885506374661 l 20.8964187277967 7.673454402405819 a43.26077757207088,43.26077757207088 0 0,0 -0.2619735000712303,0.6949158332630775 l -20.761614543911026 -8.031038515863056" fill="#fcff18" stroke="none" /><path d="M 119.58574465831526 107.57618678355244 l 24.141091665018244 9.338292865744524 a46.8842813387822,46.8842813387822 0 0,0 -0.29680278497327195,0.7481369040618568 l -23.97723020507885 -9.751330787019945" fill="#cfff1d" stroke="none" /><path d="M 119.31412917781788 108.2440532568976 l 12.510547247966043 5.340008697032977 a34.602554367764114,34.602554367764114 0 0,0 -0.23787792601766639,0.5443112471579049 l -12.417035439931412 -5.553982013966726" fill="#ff8f0d" stroke="none" /><path d="M 119.0197475246899 108.90220220490707 l 34.13891958220817 15.97873813957653 a58.69331376747916,58.69331376747916 0 0,0 -0.4349474781565153,0.9088729452168743 l -33.85959284609174 -16.562423586858507" fill="#49ff2c" stroke="none" /><path d="M 118.70294669586154 109.54985784667822 l 19.4785195722574 9.945870883541483 a42.87082697016491,42.87082697016491 0 0,0 -0.340296234871315,0.6525629001061913 l -19.30491526841114 -10.278780026752177" fill="#fffd17" stroke="none" /><line stroke="#e1ed5e" stroke-width="0.3" x1="174.33088141563837" x2="178.70328620479359" y1="141.23008692659167" y2="143.65538615756765" /><path d="M 175.20536237346943 141.71514677278685 a86.0,86.0 0 0,1 -30.301960400862466,31.631185727798858" fill="none" id="id65" stroke="none" /><text fill="#e1ed5e" style="font-size:6.75px; font-family:Arial;" text-anchor="middle"><textPath startOffset="22.145653131862474" xlink:href="#id65">May</textPath></text><path d="M 117.81537515405839 111.11811171558189 l 15.217898087348877 9.497093917381914 a38.93820545853205,38.93820545853205 0 0,0 -0.35875494647915024,0.5640223634779877 l -15.052625449243836 -9.756929955538574" fill="#ffca12" stroke="none" /><path d="M 117.423217284605 111.72311816256416 l 16.281499150437075 10.954919248634564 a40.62390048715564,40.62390048715564 0 0,0 -0.39426513570835364,0.5752446157548192 l -16.0910442779134 -11.232798599459427" fill="#ffe015" stroke="none" /><path d="M 116.79662413953412 112.60449989151573 l 15.666875345979124 11.756715335076949 a40.58753018061445,40.58753018061445 0 0,0 -0.42297622495714116,0.5536894561881314 l -15.462747143667677 -12.023925704505958" fill="#ffe014" stroke="none" /><path d="M 116.35404254752997 113.17365903436017 l 30.91030918195311 24.899157051001087 a60.6915007977067,60.6915007977067 0 0,0 -0.6605350263093923,0.8057453306045108 l -30.47832733640509 -25.426104663304088" fill="#35ff2f" stroke="none" /><path d="M 115.89218393027572 113.72728997021213 l 19.814080051588483 17.114930430863176 a47.18241035397702,47.18241035397702 0 0,0 -0.5347091257148766,0.6084008298631569 l -19.51735986191502 -17.452543538537626" fill="#cbff1d" stroke="none" /><path d="M 115.6541949942343 113.99807769240083 l 22.35132238802311 19.98669030446361 a50.98415251128307,50.98415251128307 0 0,0 -0.5889939342793103,0.6474075103236268 l -22.00493075290192 -20.36743539034491" fill="#9eff22" stroke="none" /><path d="M 115.16444852881244 114.52719865689866 l 16.811292812397202 16.104838227448035 a44.28057946779739,44.28057946779739 0 0,0 -0.5305513450851614,0.5443924190798359 l -16.532354666161233 -16.391053338595608" fill="#efff19" stroke="none" /><path d="M 114.65682725009322 115.03919595460226 l 37.938071063732906 38.92780307303385 a75.3568862990675,75.3568862990675 0 0,0 -0.9341652801507887,0.8949092067109075 l -37.2642332977168 -39.57332441005034" fill="#42ffd5" stroke="none" /><path d="M 114.13192950727249 115.5334660781643 l 17.395753230344862 19.120980087582645 a46.850031140421976,46.850031140421976 0 0,0 -0.5995353267545338,0.5361081861021868 l -17.064952876766952 -19.41678380356822" fill="#cfff1d" stroke="none" /><path d="M 113.86319453409587 115.77377054828091 l 11.046915894857412 12.56936243396677 a37.733894429703696,37.733894429703696 0 0,0 -0.49021812899453565,0.4234387441579325 l -10.82951828610002 -12.75714531058942" fill="#ffba11" stroke="none" /><path d="M 113.31354834802062 116.24036423190432 l 7.294181887276494 8.89771588509246 a32.50540904863878,32.50540904863878 0 0,0 -0.4345651690329877,0.3500549389187142 l -7.140365947888253 -9.021619117804578" fill="#ff710a" stroke="none" /><path d="M 112.7482090630111 116.68781488649013 l 26.24916620363523 34.36100117011362 a64.23999453976162,64.23999453976162 0 0,0 -0.8820671627585217,0.6619196431937139 l -25.655446051965942 -34.80653984057135" fill="#33ff55" stroke="none" /><path d="M 112.16784306229584 117.11559508785304 l 11.528554893510819 16.216356218206162 a40.89667778621461,40.89667778621461 0 0,0 -0.5756789861090548,0.4018686417872805 l -11.248480816228005 -16.411869675798563" fill="#ffe415" stroke="none" /><path d="M 111.8722381534696 117.32195027204791 l 14.420225005126904 21.039539236125528 a46.50696180392625,46.50696180392625 0 0,0 -0.6624002335659632,0.44569243912634166 l -14.056928483463937 -21.28398134930899" fill="#d4ff1c" stroke="none" /><path d="M 111.27062007382361 117.71928675628689 l 10.423784260175697 16.387920201542382 a40.422131881819965,40.422131881819965 0 0,0 -0.588692281916831,0.36738752340902087 l -10.14092784946915 -16.564443521792953" fill="#ffdd14" stroke="none" /><line stroke="#e1ed5e" stroke-width="0.3" x1="143.1302829299769" x2="145.66735839644613" y1="173.24464959558577" y2="177.55315839532614" /><path d="M 143.63769802327073 174.10635135553383 a86.0,86.0 0 0,1 -40.68552437913181,11.842963189579606" fill="none" id="id66" stroke="none" /><text fill="#e1ed5e" style="font-size:6.75px; font-family:Arial;" text-anchor="middle"><textPath startOffset="21.407464694133747" xlink:href="#id66">June</textPath></text><path d="M 110.65571695917076 118.09573695890943 l 10.757567083305222 18.268700736253685 a42.20072348158449,42.20072348158449 0 0,0 -0.6273992253662487,0.3622291116545678 l -10.442375390078574 -18.450676745184424" fill="#fff417" stroke="none" /><path d="M 110.02825361518725 118.45085714620011 l 8.983613562070794 16.52883710872713 a39.81243654605797,39.81243654605797 0 0,0 -0.6032744085592282,0.3212096429915963 l -8.698550337725012 -16.6806172194413" fill="#ffd513" stroke="none" /><path d="M 109.71004243097381 118.62028667847754 l 11.869454269683306 22.761243608326577 a46.67018027318255,46.67018027318255 0 0,0 -0.7135487830208898,0.36434309284683514 l -11.476978264948833 -22.96164465284625" fill="#d2ff1c" stroke="none" /><path d="M 108.4095320186766 119.2426549942271 l 25.228596056029783 57.7279649826813 a84.0,84.0 0 0,0 -1.3262596993182754,0.5661014013623844 l -24.233901281541076 -58.15254103370309" fill="#4dd2ff" stroke="none" /><path d="M 107.407793817531 119.65005319985036 l 5.281444591827593 14.00965925318695 a35.97211439199393,35.97211439199393 0 0,0 -0.5796835118185453,0.21286781499305818 l -5.04017192835492 -14.09825791718873" fill="#ffa20e" stroke="none" /><path d="M 107.06938296918513 119.77432235084164 l 5.0434891602128955 14.107536805085736 a35.98196841593366,35.98196841593366 0 0,0 -0.5834120264801781,0.20294098754526926 l -4.8005713616876955 -14.192036225199598" fill="#ffa20f" stroke="none" /><path d="M 106.38641147887787 120.00534299687104 l 4.5576100551131855 14.276648584276268 a35.98647737840305,35.98647737840305 0 0,0 -0.5901085988193563,0.18281715235938292 l -4.311860823422205 -14.352782324442297" fill="#ffa20f" stroke="none" /><path d="M 106.0420521117495 120.11202640906438 l 4.319464228277406 14.378091586331852 a36.012904078968695,36.012904078968695 0 0,0 -0.5935955319998384,0.17278700821117413 l -4.072008683895961 -14.450122288845543" fill="#ffa20f" stroke="none" /><path d="M 105.3480935250658 120.30758222061773 l 4.897898098749311 18.59811685835001 a40.23224782656918,40.23224782656918 0 0,0 -0.6693778301070135,0.1701532268315573 l -4.577914975416899 -18.679455317016835" fill="#ffdb14" stroke="none" /><path d="M 104.64783097203109 120.47920084513623 l 6.61816906769409 29.160874046404317 a50.902453694619105,50.902453694619105 0 0,0 -0.8537979655975702,0.18608129274056232 l -6.1166086854773845 -29.270186797278598" fill="#9fff22" stroke="none" /><path d="M 103.94208987418118 120.62667999033965 l 3.6184450724198602 18.933233628248733 a40.27590413869005,40.27590413869005 0 0,0 -0.680212584420028,0.12395739195470892 l -3.2928977544487754 -18.992559194134806" fill="#ffdb14" stroke="none" /><path d="M 103.2317021107853 120.74984581791261 l 3.231449370547481 20.748223044282177 a41.99835766267671,41.99835766267671 0 0,0 -0.7133218944755175,0.10483375389938908 l -2.8748023704642782 -20.800637871480447" fill="#fff216" stroke="none" /><path d="M 101.80034050326958 120.92268563240118 l 1.8594553515652483 21.609689776812274 a42.68954279035244,42.68954279035244 0 0,0 -0.730664060843903,0.05655801935180063 l -1.4882222959461096 -21.638425563159128" fill="#fffb17" stroke="none" /><path d="M 101.08105385017728 120.97215588758144 l 0.9601492017540764 18.626638008107754 a39.65136804566124,39.65136804566124 0 0,0 -0.6800667298563148,0.029204991527069502 l -0.6402567112969321 -18.64037556806065" fill="#ffd313" stroke="none" /><line stroke="#e1ed5e" stroke-width="0.3" x1="101.45913802915013" x2="101.54496967792366" y1="184.9874750549273" y2="189.98673829345242" /><path d="M 101.47630435890484 185.9873277026323 a86.0,86.0 0 0,1 -42.54439059252881,-10.42667462771756" fill="none" id="id67" stroke="none" /><text fill="#e1ed5e" style="font-size:6.75px; font-family:Arial;" text-anchor="middle"><textPath startOffset="22.145653131862474" xlink:href="#id67">July</textPath></text><path d="M 99.27912038922189 120.98762331915562 l -0.5138932088692802 14.96144006955479 a35.9702630299204,35.9702630299204 0 0,0 -0.616931529894731,-0.02649369438667816 l 0.77065049936485 -14.950413806742285" fill="#ffa20e" stroke="none" /><path d="M 98.91894614982273 120.97215588758144 l -1.253926299564747 24.325835222452472 a45.35813191594646,45.35813191594646 0 0,0 -0.7772561879368989,-0.04675780216890315 l 1.6713268396340921 -24.300725442458877" fill="#e2ff1b" stroke="none" /><path d="M 98.19965949673042 120.92268563240118 l -2.254627821338727 26.202192884215787 a47.299016303930514,47.299016303930514 0 0,0 -0.8083636953780925,-0.07655288240487108 l 2.704091080101835 -26.159628246305733" fill="#caff1d" stroke="none" /><path d="M 97.12497278360702 120.80226474461374 l -3.2274466369484602 23.352196114215246 a44.574169659844216,44.574169659844216 0 0,0 -0.7570708217166701,-0.11126333962678825 l 3.6278425642728154 -23.293351701289577" fill="#ecff1a" stroke="none" /><path d="M 96.76829788921471 120.74984581791261 l -4.370963197352664 28.064719244435302 a49.403059439813674,49.403059439813674 0 0,0 -0.8368466505118305,-0.13770279788422088 l 4.852087350917557 -27.985550448055413" fill="#b1ff20" stroke="none" /><path d="M 95.70440661134978 120.55596938700252 l -4.414328035116801 21.12415765277101 a42.58046173140747,42.58046173140747 0 0,0 -0.7142113780720146,-0.1556590456720543 l 4.776301829807952 -21.045267148965237" fill="#fff917" stroke="none" /><path d="M 95.00130118170881 120.39639698878247 l -3.7225936285878496 15.189452342829071 a36.63896306660638,36.63896306660638 0 0,0 -0.6095933217706245,-0.15495623859795268 l 3.982792243583853 -15.123310872395855" fill="#ffab0f" stroke="none" /><path d="M 92.93061703081489 119.77432235084164 l -5.456444317659845 15.262645876894881 a37.20867495371595,37.20867495371595 0 0,0 -0.5996104408053883,-0.2201852593337525 l 5.717643910119352 -15.166729768552408" fill="#ffb310" stroke="none" /><path d="M 92.25597844496254 119.51999308798841 l -5.967380264578428 15.041696448042218 a37.18215867111449,37.18215867111449 0 0,0 -0.5912769529298977,-0.24046718930610247 l 6.224711678698767 -14.937042002156824" fill="#ffb210" stroke="none" /><path d="M 91.59046798132341 119.24265499422711 l -6.169221477244075 14.116386049299516 a36.405572002627736,36.405572002627736 0 0,0 -0.5705040860685201,-0.2551792211794287 l 6.4106389661682295 -14.00840307721023" fill="#ffa80f" stroke="none" /><path d="M 89.97174638481275 118.45085714620012 l -10.682167858567789 19.65398570212411 a43.36935099947957,43.36935099947957 0 0,0 -0.6510685694516131,-0.36113676042073645 l 11.017980616175503 -19.467716026270224" fill="#fbff18" stroke="none" /><line stroke="#e1ed5e" stroke-width="0.3" x1="58.13341422392154" x2="55.67067388415222" y1="173.97424548756322" y2="178.32567169271397" /><path d="M 57.64086615596768 174.84453072859336 a86.0,86.0 0 0,1 -31.369924170532247,-30.572349798747897" fill="none" id="id68" stroke="none" /><text fill="#e1ed5e" style="font-size:6.75px; font-family:Arial;" text-anchor="middle"><textPath startOffset="22.145653131862474" xlink:href="#id68">August</textPath></text><path d="M 88.1277618465304 117.32195027204791 l -2.801159841091721 4.086975921828883 a25.954782400969194,25.954782400969194 0 0,0 -0.3653505278687265,-0.2550430430042759 l 2.8709054601342126 -4.038288063019478" fill="#ff1101" stroke="none" /><path d="M 87.83215693770417 117.11559508785305 l -10.413896824664386 14.64845005191938 a38.97293342774996,38.97293342774996 0 0,0 -0.5419446020159381,-0.39232609828358167 l 10.663822437054277 -14.467523182262733" fill="#ffca12" stroke="none" /><path d="M 86.96720088162412 116.46651593811092 l -10.948543823729738 13.833127460574122 a38.641599337946104,38.641599337946104 0 0,0 -0.5165999641128092,-0.41613636289656797 l 11.184394558197809 -13.643142803884144" fill="#ffc612" stroke="none" /><path d="M 86.68645165197938 116.24036423190432 l -8.048867319095807 9.818309401777283 a33.69580500123709,33.69580500123709 0 0,0 -0.44418398359135636,-0.37055407706272264 l 8.216225636849057 -9.67869314080269" fill="#ff820c" stroke="none" /><path d="M 84.3458050057657 113.99807769240083 l -8.940016991763173 7.99421832091504 a32.99297420890531,32.99297420890531 0 0,0 -0.3739029918485225,-0.42543296829809474 l 9.075931047570286 -7.839573074805645" fill="#ff780b" stroke="none" /><path d="M 83.8745106332314 113.45245675266167 l -12.54631980261258 10.466586204666003 a37.33889737311344,37.33889737311344 0 0,0 -0.4063773219403544,-0.4957142567389561 l 12.724143943791564 -10.249669666228552" fill="#ffb410" stroke="none" /><line stroke="#e1ed5e" stroke-width="0.3" x1="26.387840678322732" x2="22.057713659400548" y1="142.50000000000003" y2="145.00000000000006" /><path d="M 25.521815274538298 143.00000000000003 a86.0,86.0 0 0,1 -11.493303480769221,-40.785679425670985" fill="none" id="id69" stroke="none" /><text fill="#e1ed5e" style="font-size:6.75px; font-family:Arial;" text-anchor="middle"><textPath startOffset="21.40746469413373" xlink:href="#id69">September</textPath></text><path d="M 80.68587082218212 108.24405325689762 l -9.716330770930721 4.147323837368883 a31.56443934443013,31.56443934443013 0 0,0 -0.20843676041753223,-0.5001723462637573 l 9.78609337588474 -3.979918981663844" fill="#ff6409" stroke="none" /><path d="M 80.16572619554312 106.89939002012753 l -10.99503077244617 3.8246424512584976 a32.64124527561407,32.64124527561407 0 0,0 -0.17954950892216742,-0.530806219271447 l 11.059065702940707 -3.635334557512889" fill="#ff730a" stroke="none" /><path d="M 79.56144815229197 104.8234425847677 l -10.364471347820409 2.4459870170932785 a31.64918395031183,31.64918395031183 0 0,0 -0.12025052951420538,-0.529846020751317 l 10.404932738892281 -2.2677066624029347" fill="#ff6509" stroke="none" /><path d="M 79.00696218219943 100.54070618675478 l -15.07682241107915 0.38832546413845037 a36.081822525189615,36.081822525189615 0 0,0 -0.010633086987710894,-0.6193240098410434 l 15.081266929665526 -0.12945453832835463" fill="#ffa30f" stroke="none" /><line stroke="#e1ed5e" stroke-width="0.3" x1="15.003131293944662" x2="10.003315487706104" y1="100.72959589197737" y2="100.7725132973878" /><path d="M 14.003168132696942 100.73817937305945 a86.0,86.0 0 0,1 10.791469493833604,-42.45332614584628" fill="none" id="id70" stroke="none" /><text fill="#e1ed5e" style="font-size:6.75px; font-family:Arial;" text-anchor="middle"><textPath startOffset="22.145653131862435" xlink:href="#id70">October</textPath></text><path d="M 79.0935383218832 98.0201363427161 l -10.907172405727119 -1.0329205669667474 a31.955972562302172,31.955972562302172 0 0,0 0.05640625946695902,-0.5456793927091848 l 10.887833753778496 1.220004481958845" fill="#ff6909" stroke="none" /><path d="M 79.13060592940154 97.66154086499901 l -15.225453090833682 -1.706043776084013 a36.32073781471023,36.32073781471023 0 0,0 0.07474792923149284,-0.6190200820328974 l 15.19392307534252 1.9671575350403465" fill="#ffa60f" stroke="none" /><path d="M 79.22317932658666 96.9465228501225 l -14.969842491722801 -2.2000513314451755 a36.1306447347092,36.1306447347092 0 0,0 0.09545115514114416,-0.6128648880447451 l 14.92986984444339 2.4567044014213706" fill="#ffa40f" stroke="none" /><path d="M 79.2786578344484 96.59031103205396 l -15.511026551682667 -2.55233351644153 a36.719616759519155,36.719616759519155 0 0,0 0.10768496665477136,-0.6210982714984273 l 15.464926767535662 2.81822482086055" fill="#ffac0f" stroke="none" /><path d="M 79.407916724674 95.88100663000787 l -16.793622102775444 -3.3591947533725324 a38.12629360725529,38.12629360725529 0 0,0 0.13388191278006262,-0.6406734184506032 l 16.733482479171016 3.6469846231085445" fill="#ffbf11" stroke="none" /><path d="M 79.48165901384962 95.52812308129327 l -14.94538584998917 -3.257277285178403 a36.29622219757531,36.29622219757531 0 0,0 0.13790687132648607,-0.60764312058992 l 14.887268117105023 3.513354739707331" fill="#ffa60f" stroke="none" /><path d="M 79.64726062577567 94.8264132398404 l -15.375931331881022 -3.9085016174523917 a36.86491882161231,36.86491882161231 0 0,0 0.1611708255763747,-0.6119918764727963 l 15.30657102549992 4.171873998297973" fill="#ffae10" stroke="none" /><path d="M 79.73907114497095 94.47779374421319 l -15.183985471416333 -4.138462760418745 a36.73786163414697,36.73786163414697 0 0,0 0.17106111945439284,-0.6070355657045952 l 15.110705859887357 4.398506250026354" fill="#ffac0f" stroke="none" /><path d="M 80.28708602549916 92.7611449362534 l -16.90120021630947 -6.206354825445078 a39.00470518978594,39.00470518978594 0 0,0 0.2362000803335523,-0.6265487753424215 l 16.79216945216148 6.495571880981645" fill="#ffcb12" stroke="none" /><path d="M 80.68587082218212 91.75594674310238 l -14.110239819979387 -6.022822332425237 a36.34187917516274,36.34187917516274 0 0,0 0.24983504841553802,-0.5716714831989899 l 14.00477088954687 6.264155885400094" fill="#ffa70f" stroke="none" /><path d="M 81.1358732173502 90.77261029715801 l -13.550290896906326 -6.6281262914128725 a36.08450998626409,36.08450998626409 0 0,0 0.27695735482370176,-0.5541002360243084 l 13.43451362887088 6.859758383600951" fill="#ffa30f" stroke="none" /><path d="M 81.29705330413844 90.45014215332179 l -11.353394406929326 -5.7971240803160535 a33.74779244268883,33.74779244268883 0 0,0 0.26788022333832046,-0.5136956495826429 l 11.252206114616065 5.9911659730031825" fill="#ff830c" stroke="none" /><path d="M 81.63589988554816 89.8137432299009 l -13.487860268827824 -7.481488726440611 a36.423846737934156,36.423846737934156 0 0,0 0.3079838046777311,-0.5441778724273634 l 13.357443099128723 7.71192336896708" fill="#ffa80f" stroke="none" /><line stroke="#e1ed5e" stroke-width="0.3" x1="26.387840678322718" x2="22.05771365940052" y1="57.49999999999999" y2="54.99999999999999" /><path d="M 25.521815274538284 56.99999999999999 a86.0,86.0 0 0,1 29.574782752854787,-30.34633250058573" fill="none" id="id71" stroke="none" /><text fill="#e1ed5e" style="font-size:6.75px; font-family:Arial;" text-anchor="middle"><textPath startOffset="21.40746469413373" xlink:href="#id71">November</textPath></text><path d="M 81.81346652052679 89.5 l -13.551549056614117 -7.823990495772582 a36.64798099154516,36.64798099154516 0 0,0 0.3192323425722727,-0.5421263085439455 l 13.415243003912066 8.055467972610101" fill="#ffab0f" stroke="none" /><path d="M 82.37810715431573 88.57770195909679 l -7.5502674296133065 -4.893992128132169 a29.997649538012645,29.997649538012645 0 0,0 0.28379999300114267,-0.42970936112224634 l 7.4651429976914345 5.0228813675934765" fill="#ff4d07" stroke="none" /><path d="M 82.78059297857968 87.97951657250589 l -16.445610307093244 -11.480313224812495 a41.05631297403828,41.05631297403828 0 0,0 0.4083830423954574,-0.5744418923387538 l 16.246112166167812 11.76093234386077" fill="#ffe615" stroke="none" /><path d="M 83.2033758604659 87.39550010848427 l -12.378896034035838 -9.289354362037725 a36.47672999974405,36.47672999974405 0 0,0 0.3801362015726107,-0.49761049039454835 l 12.217607855108922 9.500485765673158" fill="#ffa90f" stroke="none" /><path d="M 87.54013794807813 83.09580414077388 l -10.630833122711369 -14.422766841575314 a38.91733284418698,38.91733284418698 0 0,0 0.5411714388618799,-0.3917663877846786 l 10.381680673475522 14.603134000733071" fill="#ffca12" stroke="none" /><path d="M 88.4268655584334 82.4767994020092 l -8.545049304045678 -12.938293755295302 a36.50539625120509,36.50539625120509 0 0,0 0.5258765174352401,-0.34086680514168693 l 8.321687154353413 13.083074402140895" fill="#ffa90f" stroke="none" /><path d="M 89.03521579738668 82.08984904055464 l -2.005703011629719 -3.276165135064015 a24.841367277815223,24.841367277815223 0 0,0 0.36560251942374783,-0.21953380830035935 l 1.9491677356485368 3.3101129439002976" fill="#ff0000" stroke="none" /><line stroke="#e1ed5e" stroke-width="0.3" x1="56.869717070023135" x2="54.33264160355391" y1="26.7553504044142" y2="22.446841604673864" /><path d="M 56.362301976729285 25.89364864446614 a86.0,86.0 0 0,1 42.16139366436587,-11.88097634709845" fill="none" id="id72" stroke="none" /><text fill="#e1ed5e" style="font-size:6.75px; font-family:Arial;" text-anchor="middle"><textPath startOffset="22.145653131862474" xlink:href="#id72">December</textPath></text><path d="M 89.65649057296885 81.72400993836675 l -8.551685186308083 -15.110008317558247 a38.36213324687956,38.36213324687956 0 0,0 0.575899307657561,-0.3194416380308099 l 8.291041690494419 15.254582871022203" fill="#ffc212" stroke="none" /><path d="M 89.97174638481275 81.54914285379989 l -8.235871508462075 -15.153075950029795 a38.24660228135585,38.24660228135585 0 0,0 0.579547457337649,-0.3085763778919428 l 7.974535235337865 15.292222795644314" fill="#ffc111" stroke="none" /><path d="M 90.61103034731259 81.2157712731953 l -7.576649362238749 -15.158374120674146 a37.94644274001587,37.94644274001587 0 0,0 0.5851698361104054,-0.28623589007603367 l 7.3153192768662905 15.286203760847394" fill="#ffbd11" stroke="none" /><path d="M 91.26138138417902 80.90454125486306 l -11.404616372713612 -24.921144979938735 a48.40672803747089,48.40672803747089 0 0,0 0.758571686130705,-0.3392994665639488 l 10.975131283727288 25.11324819741253" fill="#bdff1f" stroke="none" /><path d="M 91.92203290615298 80.6158196554323 l -6.4798697000203145 -15.549328366312379 a37.84548378565152,37.84548378565152 0 0,0 0.6018252606813252,-0.24475709423872766 l 6.211989978148549 15.658272717130398" fill="#ffbb11" stroke="none" /><path d="M 92.25597844496254 80.48000691201159 l -5.636539405470924 -14.20776136184636 a36.28499458241974,36.28499458241974 0 0,0 0.5809534111372159,-0.22472525972857635 l 5.391813731840179 14.302426509712978" fill="#ffa60f" stroke="none" /><path d="M 92.93061703081487 80.22567764915836 l -5.700019605995033 -15.94396930911433 a37.93222905699977,37.93222905699977 0 0,0 0.6150335736845329,-0.21394060312754704 l 5.425480260265496 16.039468344810462" fill="#ffbc11" stroke="none" /><path d="M 93.61358852112211 79.99465700312896 l -7.925190601833328 -24.82554668292552 a47.05986212898107,47.05986212898107 0 0,0 0.7716906828516628,-0.2390717461556516 l 7.4978592861100495 24.957935016887813" fill="#cdff1d" stroke="none" /><path d="M 94.30408787586887 79.78721728523814 l -4.588091532419345 -16.28151825365065 a37.91562651969525,37.91562651969525 0 0,0 0.6279885761316375,-0.1711610789658315 l 4.307921555353031 16.35787982676062" fill="#ffbc11" stroke="none" /><path d="M 94.6519064749342 79.69241777938228 l -3.625571298384678 -13.766884758761327 a35.23628754980334,35.23628754980334 0 0,0 0.5862558264899904,-0.14902393855818058 l 3.3887101786693092 13.82709392915477" fill="#ff980e" stroke="none" /><path d="M 95.35216902796891 79.52079915486377 l -3.785987735277593 -16.68176052325115 a38.10598834580372,38.10598834580372 0 0,0 0.6391600593936163,-0.13930196008004933 l 3.4990652592648583 16.74429394146491" fill="#ffbf11" stroke="none" /><path d="M 96.05791012581881 79.37332000966035 l -4.886645249414063 -25.568992844668106 a47.03176323041353,47.03176323041353 0 0,0 0.7943110875085279,-0.14474994003854688 l 4.446999428354498 25.649110958638015" fill="#cdff1d" stroke="none" /><path d="M 96.76829788921471 79.25015418208739 l -2.6368389012127214 -16.930397286383144 a38.13450529387173,38.13450529387173 0 0,0 0.6476962213521372,-0.09518903989441686 l 2.3458175742528993 16.973167399576447" fill="#ffbf11" stroke="none" /><path d="M 97.12497278360702 79.19773525538626 l -2.667886882540052 -19.303500475695817 a40.486989275750574,40.486989275750574 0 0,0 0.6892855519500195,-0.08924181467743962 l 2.3361235086992385 19.34645388657365" fill="#ffde14" stroke="none" /><path d="M 97.84075906011542 79.11130261209362 l -1.7732053831342613 -17.154153559573647 a38.245557157604665,38.245557157604665 0 0,0 0.6536355791641741,-0.06189996892919709 l 1.4784702405850716 17.182065284008026" fill="#ffc111" stroke="none" /><path d="M 98.5590905019552 79.04949213459386 l -0.8109846284294994 -11.7915385107048 a32.819394084172984,32.819394084172984 0 0,0 0.5623925867037809,-0.03383214147210861 l 0.6084476895932347 11.803722630001603" fill="#ff760a" stroke="none" /><path d="M 99.27912038922189 79.0123766808444 l -0.5765296359057234 -16.78503130038398 a37.79492965677283,37.79492965677283 0 0,0 0.6486090211397008,-0.016705867609968013 l 0.2883073006952787 16.792454885343993" fill="#ffba11" stroke="none" /><path d="M 99.63950707515114 79.00309439819443 l -0.1891451681422881 -11.016757796803825 a32.018381380587144,32.018381380587144 0 0,0 0.5496380929911375,-0.004717981977753201 l 2.6987250979041682e-15 11.018381380587144" fill="#ff6a09" stroke="none" /></svg>